<?xml version="1.0" encoding="utf-8" ?>
<svg baseProfile="full" height="300mm" version="1.1" viewBox="0,0,200,300" width="200mm" xmlns="http://www.w3.org/2000/svg" xmlns:ev="http://www.w3.org/2001/xml-events" xmlns:xlink="http://www.w3.org/1999/xlink"><defs /><rect fill="#222222" height="300" width="200" x="0" y="0" /><text fill="#FFFFFF" style="font-size:12px; font-family:Arial; font-weight:bold;" x="10" y="20">Over 10km Runs</text><text fill="#FFFFFF" style="font-size:4px; font-family:Arial" x="10" y="280">ATHLETE</text><text fill="#FFFFFF" style="font-size:9px; font-family:Arial" x="10" y="290">Wasabi</text><text fill="#FFFFFF" style="font-size:4px; font-family:Arial" x="120" y="280">STATISTICS</text><text fill="#FFFFFF" style="font-size:3px; font-family:Arial" x="120" y="285">Number: 4</text><text fill="#FFFFFF" style="font-size:3px; font-family:Arial" x="120" y="290">Weekly: 1.0</text><text fill="#FFFFFF" style="font-size:3px; font-family:Arial" x="141" y="285">Total: 57.6 km</text><text fill="#FFFFFF" style="font-size:3px; font-family:Arial" x="141" y="290">Avg: 14.4 km</text><text fill="#FFFFFF" style="font-size:3px; font-family:Arial" x="167" y="285">Min: 10.0 km</text><text fill="#FFFFFF" style="font-size:3px; font-family:Arial" x="167" y="290">Max: 20.8 km</text><polyline fill="none" points="79.0075566751184,78.62254480159027 95.5,77.70739368133945 79.78967254399322,77.9859181715874 68.7380352645414,81.0098850443901 68.29596977320034,98.99402671080315 69.21410579350777,101.22209045494674 71.32241813605651,103.76843282268965 74.51889168762136,105.24052912302432 76.08312342572026,106.75240579940146 75.84508816117886,107.2696253694885 73.43073047848884,106.71261964912992 69.79219143569935,102.85334302301635 68.15994962211698,99.94891279222793 67.47984886658378,81.92502811030135 65.47355163714383,82.04439443268348 62.07304785877932,83.51657595258439 53.33375314855948,88.41054327561869 58.19647355156485,84.8693863110675 68.32997481105849,79.7366388051305 64.79345088149421,63.50237052273587 62.9571788412286,44.80025938345352 64.82745591935236,43.96461138143786 90.77329974807799,39.10985759738833 66.76574307307601,43.56668310740497 62.889168765745126,44.76046666371985 64.31738035252783,60.91596389422193 66.18765743076801,72.4551788714889 61.29093198990449,75.5985586893803 59.99874055408873,75.63834813862923 58.400503778248094,72.3358094986761 61.86901763221249,70.14736426644959 62.24307304795366,69.43114305453491 60.440806045313366,66.7651965279947 57.992443324881606,67.40184219626826 56.66624685144052,65.41232089605182 54.35390428209212,66.2081306821201 62.345088161178865,81.20882937900024 59.04659949627239,76.39434687118046 53.12972292199265,65.41232089605182 49.21914357680362,66.80498691397952 45.13853904278949,69.59030344200437 36.39924433233682,78.54296653205529 30.822418135940097,70.94316400954267 21.43702770769596,71.34106324811 30.78841309819836,71.18190360328299 35.685138538945466,78.42359909581137 35.379093199037015,80.13452871891786 28.476070528966375,87.17711037275149 26.809823677525856,84.94896323911962 16.812342569231987,64.69609064553515 15.520151133532636,60.518053599545965 14.5,51.04766403880785 15.45214105793275,60.79659085007734 17.118387909256853,65.85001648726757 27.931989924167283,87.29647502437001 30.618387909256853,89.96227568524773 36.87531486141961,93.34423434638302 40.581863979808986,96.20892842870671 52.313602015026845,110.89014240258257 53.265743072959594,110.69121380202705 68.05793450889178,97.28318307179143 67.921914357692,96.76594973859028 53.91183879098389,109.85571252845693 52.44962216622662,110.65142806922086 41.704030226683244,97.48211877938593 41.4319899242837,95.6916936148773 50.00125944579486,90.59888199716806 52.1095717883436,90.59888199716806 57.17632241814863,97.00467290409142 57.51637279591523,98.39722167607397 56.80226700240746,101.65974427896435 54.96599496214185,103.05227577796904 53.6738035264425,101.38123735910631 53.84382871526759,96.12935388844926 51.42947103269398,97.60148015338928 49.01511335012037,96.52722642134177 48.062972292187624,96.76594973859028 47.5528967253631,97.52190590827377 47.99496221647132,99.35210927610751 46.80478589423001,100.86400967391091 47.79093198990449,103.64907341016806 51.565491183893755,107.42876970925136 53.23173803510144,107.90620232356014 54.55793450877536,106.99112261264236 56.768261964665726,103.967365092627 60.712846347596496,102.01782430068124 64.41939546598587,96.96488572040107 66.39168765745126,95.81105555829708 68.5,95.81105555829708 72.10453400504775,97.60148015338928 74.24685138545465,97.24339591772878 77.47732997476123,94.10019740866846 80.0957178841345,93.42380947730271 81.82997481094208,89.24609229358612 82.03400503774174,86.85880444943905 83.02015113341622,86.46092166550807 86.93073047860526,86.93838095551473 88.6989924433874,84.98875169685925 88.32493702764623,81.52714009504416 83.05415617127437,82.64122547468287 81.96599496214185,85.1081170445832 78.83753148606047,84.15319319948321 77.03526448365301,82.68101417715661 74.31486146093812,82.76059156912379 72.92065491178073,83.63594176870538 72.61460957175586,85.82430833377293 71.90050377836451,86.54049825601396 69.86020151129924,86.22219179262174 68.15994962211698,86.85880444943905 65.3715365238022,86.18240346573293 63.19521410576999,87.33626323318458 62.75314861466177,88.41054327561869 63.90931989927776,91.3150628071744 62.3790931989206,93.58295968850143 56.59823677584063,92.70763269168674 55.64609571779147,90.9967603936675 56.56423173798248,88.25139087080606 64.11335012584459,84.11340465306421 68.56801007548347,84.3123473423766 71.59445843822323,83.31763284149929 74.14483627211303,81.08946279092925 78.56549118377734,82.40249317183043" stroke="#ff0000" stroke-linecap="round" stroke-linejoin="round" stroke-width="0.5"><title>2024-03-17 20.8km</title><desc>1710630792000</desc></polyline><polyline fill="none" points="137.40673875261564,48.81072093555122 136.70293492951896,48.83271448069718 135.63940915232524,47.55709513544571 134.45076269551646,46.919290250283666 134.54460320528597,48.72274679291877 133.9189998068614,50.5922103888588 133.30903649353422,50.81214908527909 132.98059470939916,50.52622885396704 132.99623479426373,49.75644680391997 132.62087275541853,49.09663731846376 131.02558408956975,47.51310848922003 130.00897856720258,47.117229355848394 130.18101950187702,47.66706181757036 129.71181695302948,48.898695138894254 128.99237304495182,47.82101533183595 127.08428268006537,46.10554382347618 127.16248310485389,47.51310848922003 126.83404132071882,49.05265014091856 125.95819656306412,47.49111517172423 123.87806526361965,49.0306565578212 123.94062560342718,50.8341429757711 122.81453948642593,52.54967812926043 121.81357404903974,55.25499202008359 122.01689515344333,58.33428096197895 121.5633326896932,60.379849743592786 121.75101370923221,61.435640025360044 122.98658042098396,62.645410476165125 123.48706313967705,64.77903362197685 122.14201583317481,66.05482535192277 120.53108708246145,64.9110114845389 119.48320139013231,65.74687445463496 120.14008495851886,67.52860066277208 120.12444487353787,69.31035178172169 120.76568835682701,69.86027999754879 121.15669048076961,71.44408651842969 121.79793396405876,72.19200199571787 121.6571731994627,73.26988790530595 123.3306622899836,75.0957154520438 124.23778721760027,76.96556595742004 123.87806526361965,77.07555801808485 122.57993821206037,76.01963815488853 119.3111604556907,75.2717002123245 118.21635450865142,74.76574468161562 117.76279204478487,77.14155330002541 117.13718864647672,77.62551974548842 116.90258737199474,78.30747558388975 118.31019501842093,80.39736298008938 118.43531569803599,82.00329974206397 117.29358949605376,81.78330720841768 115.35421896120533,80.77134644557373 113.33664800156839,80.55135603883537 114.63477505312767,81.7393087472592 115.02577717707027,82.48728465300519 114.55657462833915,83.1692665113369 112.71104460326023,82.88327367472812 113.10204672720283,84.6652395016863 112.42952307395171,84.59924032297567 112.36696273414418,84.90723678286304 112.61720409337431,85.39123272398137 114.97885692224372,86.88723180166562 115.30729870626237,88.1192442306492 114.94757675228175,88.60325237273355 113.53996910608839,88.09724390425254 113.16460706701037,88.3832484438899 113.43048851122148,88.86725758883404 110.99063525779638,88.91125851133256 110.31811160454527,88.36124807191663 109.05126472294796,88.07524358163937 108.06593937054276,86.7552311765321 107.01805367833003,86.0952301020443 106.97113342338707,85.3692328686011 106.07964858075138,84.22524562253966 104.84408186911605,83.01527028882992 104.5,83.10326810745755 104.87536203896161,82.99327084360993 105.07868314348161,81.05733454215806 105.07868314348161,82.42128660238814 105.23508399305865,80.92533995627309 105.00048271869309,82.4652852989966 112.74232477322221,84.68723923549987 112.97692604747135,83.9832496365998 112.58592392352875,82.97127140226075 114.61913496814668,83.1692665113369 114.97885692224372,82.44328594877152 114.47837420355063,81.56331505457638 113.52432902099099,80.96933813631767 113.39920834137592,80.41936197708128 115.22909828159027,80.70534928367124 118.46659586788155,82.09129686185042 118.16943425370846,80.1553742638207 116.63670592778362,77.8895022177312 117.85663255455438,78.08748943082173 119.57704190001823,79.03343258370296 119.18603977607563,77.62551974548842 119.3111604556907,75.64566863485379 120.09316470369231,75.42568707693135 122.07945549336728,75.7776577519544 124.25342730246484,77.0315611824335 123.26810195017606,74.9197309348383 121.62589302950073,73.2478901425784 121.89177447382826,72.45597321225796 121.12541031092405,71.64206371759064 120.6718478470575,69.79428848635871 120.06188453361392,69.42033723503118 120.03060436376836,67.46261035895441 119.43628113530576,65.8128638699709 120.65620776207652,64.86701884851209 121.9543348136358,66.03282883454813 122.83017957140692,65.19696398891392 123.31502220511902,65.17496761967777 123.47142305469606,65.83486034939415 123.87806526361965,65.70288153004367 122.87709982623346,62.66740640887292 121.67281328444369,61.50162720834487 121.42257192509715,60.40184528523241 121.92305464379024,58.40026653924724 121.70409345440567,55.123024156549945 122.72069897665642,52.52768394272425 123.89370534848422,50.79015519854147 123.75294458388817,48.21689665116719 124.53494883177336,48.502811701997416 125.94255647808313,47.55709513544571 126.7558408959303,49.0306565578212 127.13120293489192,46.127536901825806 129.64925661322195,48.85470802965574 130.00897856720258,48.568792189413216 129.993338482338,47.02925638205488 130.9786638347432,47.51310848922003 132.62087275541853,49.0306565578212 133.02751496434212,50.50423501658952 133.49671751307324,50.72417356117512 133.90335972199682,50.63619809781085 134.57588337513153,48.72274679291877 134.497682950343,46.897297035262454 135.63940915232524,47.535101810412016 137.078296968597,48.92068869926152 137.53185943234712,48.63477271099691 137.50057926238514,47.315168768836884 138.75178605900146,47.46912185809924 139.45558988221455,48.12892291840399 139.1115080130985,46.87530382411205 138.79870631394442,46.67736509421957 139.2991890326375,46.61138558591483 140.6755165089853,50.482241182995494 146.38414751878008,58.00435358815594 152.85914269159548,68.27649316046154 155.73691832402255,73.88582680432592 157.23836647998542,76.12962939904537 163.44748020847328,81.76130797591759 172.37796871981118,88.49325036079972 177.52355667110533,91.66134632230387 179.10320525197312,94.0154686414462 181.90278045949526,101.07809659081977 182.96630623668898,102.24423792934977 185.5,103.89445617652382" stroke="#4dd2ff" stroke-linecap="round" stroke-linejoin="round" stroke-width="0.5"><title>2024-02-12 14.9km</title><desc>1707689857000</desc></polyline><polyline fill="none" points="51.01113059668569,188.42570367916778 51.57865266618319,184.76550924150797 48.80590198346181,184.53792991573573 48.659967736923136,184.99308827820641 48.919406397326384,186.13097912464582 48.076230751059484,188.33088093265542 48.10866058367537,189.54460829710297 47.49249376519583,191.36518392557628 48.076230751059484,193.33745331187674 47.719502593099605,194.28565201912716 47.8816517557716,196.76990883443796 48.238379913789686,197.8887613404222 48.06001583480975,199.0644971230504 48.95183622982586,200.9229024633969 48.38431416027015,204.58276682642463 49.113985392672475,206.3273390734539 48.708612485730555,207.86330710056063 50.184169866726734,214.72759591294744 49.843656624958385,217.287415317478 50.216599699284416,219.1645929771039 51.35164383845404,221.57266078251996 51.46514825237682,223.4118718811078 54.416263014194556,230.59788690510322 55.745886148593854,237.40442703277222 56.18368888803525,238.03008488286287 57.72410593397217,239.1676390164066 57.886255096818786,240.1914315653703 57.626816436473746,241.72710942692356 59.151018566219136,242.7888049492758 58.356487668759655,244.02112222544383 58.50242191524012,245.48093326989328 59.378027394006494,248.95030663406942 59.783400300832,252.24899282262777 60.561716281983536,253.1020914434048 60.83736985863652,255.33908633019018 61.664330588595476,258.0120690501499 61.25895768176997,259.43385213696456 61.631900756096,260.4006581974827 61.5508261747309,261.538070419454 62.23185265820939,262.9029555638117 62.50750623480417,265.5 62.23185265820939,263.03565217659343 61.51839634211501,261.4811999796948 61.61568583972985,260.4196151269862 61.22652784921229,259.3580239902076 61.64811567234574,257.9362403022242 60.75629527727142,255.20638402229815 60.496856616809964,253.0831337403506 59.718540635716636,252.15420383645687 59.280737896391656,248.8175995980855 58.45377716637449,245.40509922255296 58.34027275245171,243.98320489711477 59.13480364991119,242.75088736029284 57.49709710624302,241.65127379183832 57.886255096818786,240.1155952807021 57.70789101778064,239.1865981908486 56.24854855315061,238.10592204966815 55.71345631609438,237.38546766985382 54.416263014194556,230.6168469858094 52.68126697279513,226.27493613833212 51.41650350345299,223.96173545220518 51.43271841976093,222.19837389298482 50.13552511786111,218.9180960219528 49.74636712728534,216.83233898442995 50.16795495041879,214.76551943020604 48.80590198346181,208.58388015651144 48.7248274020385,207.8064196306077 49.049125727498904,206.4031896553788 48.43295890907757,204.62069249068736 48.919406397326384,200.9229024633969 48.076230751059484,199.02657028278918 48.22216499753995,197.77498004880908 47.8005771744065,196.48545369347266 47.687072760483716,194.49425506120315 48.09244566736743,193.37538135655632 47.49249376519583,191.93411001525237 47.638428011734504,190.49282707895327 48.12487549992511,189.46875057771103 48.01137108600233,188.3498454859946 48.8869765647687,186.3016621281422 48.627537904365454,184.97412336953857 48.8869765647687,184.5 50.33010411314899,184.86033387530188 51.40028858720325,184.67068455761182 56.15125905547757,185.61892913824704 57.70789101778064,186.33959166247223 59.19966331496835,187.61022641925956 57.91868492937647,186.41545070687425 56.55663196236128,185.71375332021853 52.032670321990736,184.80343910108786 51.6597272476065,185.42928062364808 51.02734551287722,189.27910613879794" stroke="#4dd2ff" stroke-linecap="round" stroke-linejoin="round" stroke-width="0.5"><title>2024-02-03 11.9km</title><desc>1706940021000</desc></polyline><polyline fill="none" points="185.5,209.89108843063877 185.04991665121634,209.94373772460676 183.95471383584663,209.2417457626725 183.47462493053172,209.34704474655155 181.7493054268998,210.80367382444092 181.14919429522706,211.733803764786 180.1740137062152,212.24274057852745 179.4988886830979,211.92684894715785 178.0886275236262,212.5059831445833 171.44239674007986,216.75290540712012 168.5918688646052,218.2621160291019 168.14178551582154,218.9991673835466 161.61557695869124,221.68411245036987 154.5492683830089,223.210826517854 153.1390072235372,224.21107983212278 151.38368216337403,224.35146577909472 149.82339322101325,223.8250178649032 146.1477125393576,224.61468910900294 144.85747360624373,224.0706937662908 142.1269679570105,224.17598332680063 141.22680125950137,223.8776627315674 138.88636784587288,223.78992127781385 137.65614002587972,224.4918516070611 136.03583997034002,224.57959268915874 134.20550101873232,223.68463147197326 125.15882570843678,223.5091483135766 121.933228375623,224.21107983212278 121.24310057418188,224.61468910900294 117.11733654380077,225.36926033756754 115.07695869600866,226.1589242231421 112.81153917388292,227.54521394327458 109.60094461933477,228.91394431523804 107.15549175767228,230.6862578732398 104.90507501387037,232.984972968261 104.5,235.26610910230374 105.40016669745091,238.42455345919007 105.74523059825879,239.02114174660528 106.87043897015974,239.42471495873178 108.1006667901529,240.75825423731294 106.78042230039136,239.3369817353232 105.7002222633455,238.95095500069147 105.32515280606458,238.30172619229415 104.57501389150275,235.47667393187294 104.95008334878366,232.86214167026628 107.69559177628253,230.24756816355512 109.70596406742698,228.8788488059363 117.05732543062186,225.42190471371578 121.39312835707096,224.61468910900294 122.143267271691,224.17598332680063 125.4288757176837,223.49159998752293 134.26551213179482,223.78992127781385 135.85580663080327,224.57959268915874 137.55112057784572,224.5269480454881 138.99138729390688,223.80746957231895 145.56260418589227,224.14088681410067 146.34274865715997,224.57959268915874 149.1782737544272,223.9303075815551 150.25847379141487,223.91275930004485 151.53370994632132,224.42165870792815 152.9889794406481,224.2286280820117 153.6641044637654,224.0005006887659 154.51926282641944,223.26347157965938" stroke="#4dd2ff" stroke-linecap="round" stroke-linejoin="round" stroke-width="0.5"><title>2023-12-09 10.0km</title><desc>1702077671000</desc></polyline></svg>
