<?xml version="1.0" encoding="utf-8" ?>
<svg baseProfile="full" height="200mm" version="1.1" viewBox="0,0,200,200" width="200mm" xmlns="http://www.w3.org/2000/svg" xmlns:ev="http://www.w3.org/2001/xml-events" xmlns:xlink="http://www.w3.org/1999/xlink"><defs /><rect fill="#1a1a1a" height="200" width="200" x="0" y="0" /><text alignment-baseline="middle" fill="#e1ed5e" style="dominant-baseline: central; font-size:9.0px; font-family:Arial;" text-anchor="middle" x="100.0" y="100.0">2025</text><line stroke="#e1ed5e" stroke-width="0.3" x1="100.0" x2="100.0" y1="15.0" y2="10.0" /><path d="M 100.0 14.0 a86.0,86.0 0 0,1 42.46469731375804,11.215312516191453" fill="none" id="id37" stroke="none" /><text fill="#e1ed5e" style="font-size:6.75px; font-family:Arial;" text-anchor="middle"><textPath startOffset="22.20632615414155" xlink:href="#id37">January</textPath></text><path d="M 100.0 79.0 l 0.0 -12.445709016179514 a33.445709016179514,33.445709016179514 0 0,0 0.5757129011799093,0.004955342699505114 l -0.21423242190738087 12.443865050088567" fill="#ff6809" stroke="none" /><path d="M 100.36148047927253 79.00311137660856 l 0.2465732678274597 -14.322409476987486 a35.32453181094964,35.32453181094964 0 0,0 0.6078735676518476,0.015699580850734376 l -0.4930734706741751 14.316043103994392" fill="#ff840c" stroke="none" /><path d="M 101.08401301168833 79.027996857942 l 1.6343530172704948 -31.61922988363868 a52.6614404002637,52.6614404002637 0 0,0 0.9048688694850496,0.05458416129703388 l -2.178383935595156 31.58641245296134" fill="#96ff23" stroke="none" /><path d="M 102.16513564639614 79.11191278185805 l 1.5716413755739427 -15.16236739405786 a36.24360330124754,36.24360330124754 0 0,0 0.619995670980617,0.0696637376211734 l -1.8324037500642851 15.133067702966084" fill="#ff910d" stroke="none" /><path d="M 102.52436894288641 79.15227682838746 l 1.4639377019977138 -12.090058403601708 a33.17836712362666,33.17836712362666 0 0,0 0.5663788545704598,0.07353223050521253 l -1.6718312850760197 12.063067849932358" fill="#ff6409" stroke="none" /><path d="M 102.88285421437855 79.19881850522331 l 2.1980092082817637 -15.859694965017578 a37.0112825489745,37.0112825489745 0 0,0 0.6303039387444214,0.09289041612418232 l -2.4706821274548405 15.819510064732427" fill="#ff9c0e" stroke="none" /><path d="M 103.59715602781102 79.31037775812273 l 5.8410608160692785 -33.59580202859451 a55.0997933337071,55.0997933337071 0 0,0 0.9330359683661001,0.17050635940308292 l -6.418491905538279 33.49028018784069" fill="#7aff26" stroke="none" /><path d="M 103.95276090670814 79.375362276772 l 1.2409198976868703 -6.474847312394424 a27.592687609108783,27.592687609108783 0 0,0 0.46570358770230413,0.09341575858119369 l -1.3521898948562998 6.4525275977360215" fill="#ff0f01" stroke="none" /><path d="M 104.66035177308747 79.52364482259891 l 3.5646002785922124 -15.661912431464643 a37.06243680631947,37.06243680631947 0 0,0 0.6208422558053108,0.14693330334032498 l -3.8336662213600463 15.598233215983448" fill="#ff9d0e" stroke="none" /><path d="M 105.01212808612495 79.60689891045804 l 2.9860038994396714 -12.149306308354712 a33.51086979636894,33.51086979636894 0 0,0 0.5589790391476906,0.14249620326623463 l -3.194691827272387 12.09610710891961" fill="#ff6909" stroke="none" /><path d="M 105.36241919743992 79.69619591428918 l 4.533899674647281 -17.16676883117505 a38.755399132736216,38.755399132736216 0 0,0 0.643528070550604,0.1759005310951785 l -4.8287256344215965 17.086181759253577" fill="#ffb510" stroke="none" /><path d="M 106.0581310904928 79.89281104454417 l 10.54026196846152 -34.98356768351492 a57.53692830864228,57.53692830864228 0 0,0 0.9458375838780033,0.29387634141233593 l -11.14088492505024 34.79695120722006" fill="#5eff29" stroke="none" /><path d="M 106.40334571778207 80.00007090966166 l 3.4011108603300197 -10.62288044921317 a32.15406401821911,32.15406401821911 0 0,0 0.5256686910557914,0.17330470267391998 l -3.5834623736282283 10.562762022280015" fill="#ff5507" stroke="none" /><path d="M 107.08798089147638 80.2323363322302 l 6.170690851368193 -17.209434282521435 a39.28228798338937,39.28228798338937 0 0,0 0.6345355413360576,0.23370479493978794 l -6.466008718476827 17.100666219775324" fill="#ffbc11" stroke="none" /><path d="M 107.4271985657038 80.35727306442388 l 4.42565744031757 -11.70454510425777 a33.513305713385364,33.513305713385364 0 0,0 0.5378356296154149,0.20867186851294092 l -4.626476234932652 11.626630531854282" fill="#ff6909" stroke="none" /><path d="M 108.09893153111575 80.62456947434976 l 15.029695696031037 -35.95620282271922 a59.97101838730694,59.97101838730694 0 0,0 0.949016355807512,0.4063192764141992 l -15.646395809628865 35.69216401834223" fill="#44ff2d" stroke="none" /><path d="M 108.76106565485865 80.91482961587045 l 7.639448575735051 -16.6418314223958 a39.31151898758649,39.31151898758649 0 0,0 0.6125516933165651,0.287601233433605 l -7.924778480351215 16.50786520632219" fill="#ffbc11" stroke="none" /><path d="M 109.08828744355905 81.06846463323043 l 5.2788282711227 -10.996166739938243 a33.19761086805643,33.19761086805643 0 0,0 0.5130275520614797,0.2517403917423718 l -5.467327090194612 10.90367118806104" fill="#ff6509" stroke="none" /><path d="M 109.41281617654863 81.2277094730956 l 8.267211306302881 -16.487572855813628 a39.44415466913094,39.44415466913094 0 0,0 0.6043210995580904,0.30955673915250526 l -8.549792893449728 16.342823591348623" fill="#ffbe11" stroke="none" /><path d="M 109.73455568895987 81.39251694778311 l 5.734489808747575 -10.961406492378115 a33.37080456792439,33.37080456792439 0 0,0 0.506687920848493,0.27065513960333154 l -5.922322776124378 10.86107262627303" fill="#ff6709" stroke="none" /><path d="M 110.36928655335952 81.73862282372117 l 6.471645303457369 -11.397231162373389 a34.106451506885335,34.106451506885335 0 0,0 0.5080290226365028,0.29428320091550014 l -6.6668710585592 11.284143804067838" fill="#ff720a" stroke="none" /><line stroke="#e1ed5e" stroke-width="0.3" x1="143.23703022742887" x2="145.7803849466894" y1="26.81831364943548" y2="22.513508569990506" /><path d="M 143.74570117128098 25.957352633546492 a86.0,86.0 0 0,1 28.547481713284135,27.462654790039103" fill="none" id="id38" stroke="none" /><text fill="#e1ed5e" style="font-size:6.75px; font-family:Arial;" text-anchor="middle"><textPath startOffset="19.985693538727396" xlink:href="#id38">February</textPath></text><path d="M 110.99172775467656 82.1063720568725 l 19.128524761235056 -31.139663646856192 a57.54557581405059,57.54557581405059 0 0,0 0.8395648711969051,0.5257354453216727 l -19.661708784804222 30.805783860211577" fill="#5eff2a" stroke="none" /><path d="M 111.2981086023043 82.29822771554956 l 4.012861085868674 -6.287313713438015 a28.458777904299392,28.458777904299392 0 0,0 0.4106641957564026,0.2671074162877363 l -4.120492307409356 6.21730737299075" fill="#ff1d02" stroke="none" /><path d="M 111.60114157652 82.49532879139004 l 9.662029643108811 -14.578793905314694 a38.48988417794567,38.48988417794567 0 0,0 0.5491137434546878,0.37076405077153823 l -9.911548080970041 14.410317942244484" fill="#ffb110" stroke="none" /><path d="M 111.90073688211348 82.69761687909136 l 6.976735933317909 -10.143418785529754 a33.31112460102192,33.31112460102192 0 0,0 0.4696374618957891,0.32901105461100455 l -7.150304534797349 10.021822888154812" fill="#ff6609" stroke="none" /><path d="M 112.19680574252982 82.90503203632743 l 10.852079725794038 -15.210208243686486 a39.6847014745031,39.6847014745031 0 0,0 0.5526655626342923,0.40153503501782145 l -11.11229060478212 15.02115397385199" fill="#ffc212" stroke="none" /><path d="M 112.48926042617603 83.11751280151076 l 7.6708922172376415 -10.369208042702079 a33.898180601980826,33.898180601980826 0 0,0 0.4661061918769018,0.35106152032692944 l -7.848244562872925 10.235629932869301" fill="#ff6f0a" stroke="none" /><path d="M 113.06298171725822 83.55741782278167 l 18.942193498511767 -23.842839250441987 a51.451398622353594,51.451398622353594 0 0,0 0.6887053948498675,0.5568851997187492 l -19.349802291926125 23.513247953459107" fill="#a5ff21" stroke="none" /><path d="M 113.6212207817346 84.01681056812373 l 13.091154503302457 -15.361207755241859 a41.18279043960569,41.18279043960569 0 0,0 0.5355845456231937,0.46445364022668156 l -13.353632847572415 15.133589121595506" fill="#ffd614" stroke="none" /><path d="M 113.89432698308785 84.25364557470407 l 8.411394584693795 -9.532581211225269 a33.71305090873238,33.71305090873238 0 0,0 0.4318304890031444,0.3877016767557146 l -8.57423606129293 9.386380525700256" fill="#ff6c0a" stroke="none" /><path d="M 114.16331599549186 84.49514656593476 l 13.581760781511528 -14.868213796889064 a41.137725974801796,41.137725974801796 0 0,0 0.5187116912731174,0.482085985796041 l -13.835680356579491 14.632223225018382" fill="#ffd513" stroke="none" /><path d="M 114.68862486808459 84.99185889309783 l 27.259455235905264 -27.852420110930268 a59.972236345815155,59.972236345815155 0 0,0 0.731559044557236,0.7284174975312084 l -27.734850080629823 27.37906676274894" fill="#44ff2d" stroke="none" /><path d="M 114.94478906791727 85.2469230424477 l 8.99705431079872 -8.881639883659412 a33.64240931525599,33.64240931525599 0 0,0 0.40328555617987377,0.41562121544456027 l -9.148604130681703 8.725454472664739" fill="#ff6b09" stroke="none" /><path d="M 115.4437574822437 85.77008943001954 l 16.125420685932962 -14.857996477085466 a42.926907023367406,42.926907023367406 0 0,0 0.4960231894240126,0.5477211946690722 l -16.37878751597301 14.578222495146845" fill="#ffed16" stroke="none" /><path d="M 115.68641384162765 86.03803664274999 l 9.723739430690415 -8.654782093436065 a34.01754053578575,34.01754053578575 0 0,0 0.38554530612320825,0.44074493314394964 l -9.871276600391472 8.486121604089167" fill="#ff710a" stroke="none" /><path d="M 115.9244219780498 86.31012108654704 l 14.164746242255225 -12.177123990029408 a39.67946425291778,39.67946425291778 0 0,0 0.4407998987010977,0.5217680446169064 l -14.37225675444344 11.931496995783395" fill="#ffc112" stroke="none" /><path d="M 116.38621287248628 86.86637796730983 l 33.26240379175135 -26.659963635227594 a63.627938808217934,63.627938808217934 0 0,0 0.6776251845083283,0.8605151704106924 l -33.716383056853644 26.083456070863864" fill="#32ff46" stroke="none" /><path d="M 116.60985879189232 87.15038557335679 l 10.21235665611524 -7.900419086193452 a33.91157814557117,33.91157814557117 0 0,0 0.3532037164479312,0.46477468877121003 l -10.346836312787286 7.723459621541208" fill="#ff6f0a" stroke="none" /><path d="M 117.04232023915458 87.72973835380427 l 16.725267761263655 -12.04198774893858 a41.60931950918206,41.60931950918206 0 0,0 0.4134923752435423,0.5848556408732315 l -16.93007275631108 11.752305607733554" fill="#ffdc14" stroke="none" /><path d="M 117.2510076193507 88.02491185347247 l 10.252373090201617 -7.116863789946677 a33.4804208336636,33.4804208336636 0 0,0 0.32456164575470187,0.4762541663414599 l -10.373359201625053 6.939331600334811" fill="#ff6909" stroke="none" /><path d="M 117.45458315368197 88.32363383020206 l 13.754545864397345 -9.201200200424424 a37.54840225109665,37.54840225109665 0 0,0 0.35474901635960193,0.5403070898467357 l -13.910891516114871 8.963075046600014" fill="#ffa40f" stroke="none" /><line stroke="#e1ed5e" stroke-width="0.3" x1="172.23445277983987" x2="176.4835382374775" y1="55.19839476539836" y2="52.563006222186495" /><path d="M 173.08426987136738 54.67131705675599 a86.0,86.0 0 0,1 12.851231095245387,41.99856678651699" fill="none" id="id39" stroke="none" /><text fill="#e1ed5e" style="font-size:6.75px; font-family:Arial;" text-anchor="middle"><textPath startOffset="22.20632615414155" xlink:href="#id39">March</textPath></text><path d="M 117.84615892207809 88.93136811851018 l 6.126413343786004 -3.7997540172256965 a28.209096410115627,28.209096410115627 0 0,0 0.2523830266705486,0.4148513361977207 l -6.190912168742777 3.693734907820894" fill="#ff1902" stroke="none" /><path d="M 118.03404312379186 89.2402003453031 l 22.217833466537268 -13.256008939336281 a46.87187463147089,46.87187463147089 0 0,0 0.40742891682927157,0.696428088885052 l -22.442722057836868 12.871601438097334" fill="#ddff1b" stroke="none" /><path d="M 118.3937258080291 89.86733742301442 l 18.287081392565515 -10.073914725196872 a41.87824474779559,41.87824474779559 0 0,0 0.34238835438777937,0.6343936209014933 l -18.45777784617176 9.757640120962918" fill="#ffdf14" stroke="none" /><path d="M 118.73160827565052 90.50648371742162 l 13.293144760798349 -6.737205069431129 a35.90294030650023,35.90294030650023 0 0,0 0.27464037456051227,0.553658236331175 l -13.407145148312269 6.507387244601004" fill="#ff8c0c" stroke="none" /><path d="M 119.04729006885535 91.15688171328212 l 6.585147639796318 -3.057297878265548 a28.260250667460596,28.260250667460596 0 0,0 0.2010483796073162,0.4429834544921159 l -6.636798336366981 2.9434924149313693" fill="#ff1a02" stroke="none" /><path d="M 119.196687751892 91.48605970444005 l 23.654435513300715 -10.49100002502078 a46.876502873802096,46.876502873802096 0 0,0 0.32078995014531597,0.7404274334299394 l -23.831516173288712 10.082273447004237" fill="#ddff1b" stroke="none" /><path d="M 119.47837535516314 92.15188598940014 l 10.22272122411816 -4.118879537055018 a32.02130654082384,32.02130654082384 0 0,0 0.20159158409105749,0.5130285928665386 l -10.292106358090917 3.942301939292695" fill="#ff5307" stroke="none" /><path d="M 119.7369772167798 92.82701384747503 l 9.233196033160132 -3.3556094513348085 a30.824053327249985,30.824053327249985 0 0,0 0.17694022216924404,0.5002338350990192 l -9.289589336139185 3.1961779898091747" fill="#ff4106" stroke="none" /><path d="M 119.97218684219823 93.5106431181261 l 5.334189665621449 -1.7331832858024296 a26.608698930323108,26.608698930323108 0 0,0 0.13778809965406838,0.43682592989706714 l -5.363233249043724 1.6411071894789433" fill="#ff0000" stroke="none" /><path d="M 120.08093135843002 93.85539295169968 l 49.32660538474459 -15.093553267318498 a72.58419669836582,72.58419669836582 0 0,0 0.3552965420702978,1.197883312488721 l -49.579107823926584 14.242240568083247" fill="#3effb3" stroke="none" /><path d="M 120.78858239683441 97.02765380044208 l 8.793146069190485 -1.257241778299219 a29.88257140040096,29.88257140040096 0 0,0 0.06842255197005509,0.5098274868907953 l -8.813484620218377 1.1056959493437593" fill="#ff3304" stroke="none" /><path d="M 120.96714384426684 98.82574320788733 l 26.107440055710875 -1.4621370959152116 a47.14835121283535,47.14835121283535 0 0,0 0.03840657938054587,0.810702188761565 l -26.128740243324916 1.012523800530647" fill="#daff1c" stroke="none" /><line stroke="#e1ed5e" stroke-width="0.3" x1="184.98032266829074" x2="189.97916517819016" y1="98.17113171792111" y2="98.06355123074" /><path d="M 185.9800911702706 98.14961562048488 a86.0,86.0 0 0,1 -9.607161424134198,41.387399972396054" fill="none" id="id40" stroke="none" /><text fill="#e1ed5e" style="font-size:6.75px; font-family:Arial;" text-anchor="middle"><textPath startOffset="21.466115282336823" xlink:href="#id40">April</textPath></text><path d="M 120.99513854157772 99.54816195383933 l 13.475904646943967 -0.2900160155582883 a34.47902501454784,34.47902501454784 0 0,0 0.007662541158619153,0.5934722571516843 l -13.478900195220302 0.05800750034614135" fill="#ff780b" stroke="none" /><path d="M 120.99824983174949 100.27111621757518 l 14.620373307964831 0.18876908040208668 a35.62159189110291,35.62159189110291 0 0,0 -0.013193452799487864,0.6130479089148978 l -14.614957792480336 -0.44040680510709934" fill="#ff880c" stroke="none" /><path d="M 120.9764740272857 100.99374915477107 l 8.602658174783231 0.4075462958576848 a29.612306407428388,29.612306407428388 0 0,0 -0.028503465291939298,0.5089485203325084 l -8.594368358603763 -0.5555665325256165" fill="#ff2f04" stroke="none" /><path d="M 120.8583938346157 102.4346265915055 l 14.484284432857839 1.6906298883206743 a35.58261721884008,35.58261721884008 0 0,0 -0.07624590818547228,0.6077549072564556 l -14.453037015425519 -1.9397025498645248" fill="#ff880c" stroke="none" /><path d="M 120.81339534386255 102.79330883721812 l 12.443397324180182 1.6699943058977276 a33.55495989436626,33.55495989436626 0 0,0 -0.08175577933786343,0.5717997302721302 l -12.412807493825717 -1.883939508150267" fill="#ff6a09" stroke="none" /><path d="M 120.70491114924044 103.5080841355445 l 12.015284189504001 2.0357792190189588 a33.18652744563168,33.18652744563168 0 0,0 -0.1002763444206422,0.5624029926751305 l -11.97846140274417 -2.242300962427308" fill="#ff6509" stroke="none" /><path d="M 120.64145759157962 103.86396538481128 l 19.15881018407671 3.5864220846323014 a40.49159898619453,40.49159898619453 0 0,0 -0.13414301216152782,0.6839923290200965 l -19.094237238939517 -3.915678140720343" fill="#ffcd13" stroke="none" /><path d="M 120.49622156327973 104.57218783832717 l 13.631285642171255 3.040794530907976 a34.96633021368405,34.96633021368405 0 0,0 -0.13610133538818792,0.5863209907494289 l -13.576923740852514 -3.2749841790059695" fill="#ff7f0b" stroke="none" /><path d="M 120.32669344350535 105.2749913415812 l 9.184165337033326 2.383387773675522 a30.488383962386347,30.488383962386347 0 0,0 -0.13619875946390342,0.5068462511473466 l -9.141778501227646 -2.541124957998417" fill="#ff3c05" stroke="none" /><path d="M 120.13307415673323 105.97154293290107 l 6.088275814623256 1.8058047236768935 a27.35043566182512,27.35043566182512 0 0,0 -0.1377592311102195,0.4502051379639653 l -6.056289811006904 -1.910336834192916" fill="#ff0c01" stroke="none" /><path d="M 120.02730092923936 106.31721596034902 l 25.064955472136166 7.906244446691395 a47.28232664873883,47.28232664873883 0 0,0 -0.2515143941259587,0.774081710164077 l -24.92514882699396 -8.336525056833267" fill="#d8ff1c" stroke="none" /><path d="M 119.79798401119884 107.00284435728193 l 13.648716605076919 4.827756099203724 a35.47738560373043,35.47738560373043 0 0,0 -0.20859982881062597,0.5739771388252564 l -13.563592515261066 -5.061981035035112" fill="#ff860c" stroke="none" /><path d="M 119.54520255179757 107.68017299344265 l 13.653895449831507 5.365218334840999 a35.67018843558063,35.67018843558063 0 0,0 -0.22947377174253022,0.5695350824579117 l -13.559519063831585 -5.599452785141724" fill="#ff890c" stroke="none" /><path d="M 119.26925614724726 108.34839909993367 l 13.99935064224071 6.065214215237577 a36.25675725313624,36.25675725313624 0 0,0 -0.2530357625800572,0.5705288451276039 l -13.89287379492938 -6.305291396857869" fill="#ff910d" stroke="none" /><path d="M 118.97047184881838 109.00673069616215 l 12.60666318674557 5.98534507760866 a34.95536858711013,34.95536858711013 0 0,0 -0.2627424331098881,0.5413272339444143 l -12.501767497020968 -6.20146126751835" fill="#ff7f0b" stroke="none" /><path d="M 118.81262510543309 109.33194174019688 l 7.266693273709171 3.604619658026901 a29.111603664701825,29.111603664701825 0 0,0 -0.22654557121621416,0.4469959043935006 l -7.203569032706688 -3.7291697741230956" fill="#ff2703" stroke="none" /><line stroke="#e1ed5e" stroke-width="0.3" x1="174.80103733775053" x2="179.2010983576182" y1="140.37084112569926" y2="142.7455964860345" /><path d="M 175.68104954172406 140.8457921977663 a86.0,86.0 0 0,1 -30.038265399797805,32.042727171017184" fill="none" id="id41" stroke="none" /><text fill="#e1ed5e" style="font-size:6.75px; font-family:Arial;" text-anchor="middle"><textPath startOffset="22.206326154141568" xlink:href="#id41">May</textPath></text><path d="M 118.30583269289576 110.29060199501025 l 6.528087871577383 3.6697568038479464 a28.488861479452268,28.488861479452268 0 0,0 -0.24398404137956464,0.42540674162132147 l -6.463951834045439 -3.781583391327583" fill="#ff1d03" stroke="none" /><path d="M 118.12598468904814 110.60418214915192 l 13.633411836618839 7.975907787082107 a36.795094913766604,36.795094913766604 0 0,0 -0.3245312027870697,0.5439329628710364 l -13.494099758133542 -8.209402843839248" fill="#ff990e" stroke="none" /><path d="M 117.94076556474637 110.91462005526583 l 7.098488533753867 4.318506087879967 a29.308912943032407,29.308912943032407 0 0,0 -0.26592306135909455,0.42875264665692253 l -7.02310083272681 -4.440055065902163" fill="#ff2a04" stroke="none" /><path d="M 117.75023020441432 111.22182372390056 l 20.450688999150003 12.929073276114488 a45.194867561511735,45.194867561511735 0 0,0 -0.4213778699458241,0.6539878117311434 l -20.22510626582713 -13.279182687767085" fill="#f3ff19" stroke="none" /><path d="M 117.55443506779139 111.5257021239791 l 4.876807013974858 3.2019614839293205 a26.834021254342602,26.834021254342602 0 0,0 -0.2568359495935986,0.3839348966831782 l -4.820967958970539 -3.2854332948183056" fill="#ff0400" stroke="none" /><path d="M 116.498646956653 112.99209946851258 l 21.677361717593143 17.070153715625082 a48.59163204506833,48.59163204506833 0 0,0 -0.523128458543396,0.652683186710521 l -21.380315346994895 -17.440764735913852" fill="#c8ff1d" stroke="none" /><path d="M 115.56566222782051 114.09645910891815 l 9.313054284731423 8.434018866811384 a33.564459970730326,33.564459970730326 0 0,0 -0.39151119207210466,0.42490807459473734 l -9.166496684663597 -8.593078196207456" fill="#ff6a09" stroke="none" /><path d="M 115.07121518719521 114.62390073753431 l 15.681454024761324 15.216027654701378 a42.85029743320077,42.85029743320077 0 0,0 -0.5182016548723836,0.5249355404974678 l -15.417211744833406 -15.48370368917951" fill="#ffec16" stroke="none" /><path d="M 114.81725581225074 114.88116024355365 l 13.078174229597284 13.134578282899234 a39.535257965545306,39.535257965545306 0 0,0 -0.4863778942016138,0.47602313845322364 l -12.850146383019876 -13.35775152427503" fill="#ffbf11" stroke="none" /><path d="M 114.29624159901734 115.38237550388516 l 10.988277371692945 11.823094028002663 a37.14087333424841,37.14087333424841 0 0,0 -0.47204361076690665,0.4312006463895838 l -10.783134211459174 -12.01048744097883" fill="#ff9e0e" stroke="none" /><path d="M 113.75828350139079 115.86535959552629 l 7.986474788087016 9.20960048546728 a33.19018132115633,33.19018132115633 0 0,0 -0.4348459390532255,0.37058514304233764 l -7.826763372456743 -9.345710018732564" fill="#ff6509" stroke="none" /><path d="M 113.20401910651253 116.32954008644616 l 4.135357906300382 5.114237730042933 a27.576975944352828,27.576975944352828 0 0,0 -0.3716884006934723,0.29529174496101973 l -4.046712012889559 -5.184663389009079" fill="#ff0f01" stroke="none" /><path d="M 112.92097659922987 116.55440617244103 l 31.922412774567945 40.89912113191315 a72.88235294117648,72.88235294117648 0 0,0 -0.9956120599343454,0.7633928724814757 l -31.213671986140106 -41.442553346222" fill="#3effb6" stroke="none" /><path d="M 112.34349029814194 116.9893568818739 l 4.42876010072684 6.095665332744514 a28.534656719361095,28.534656719361095 0 0,0 -0.3998556991295795,0.2852864245016794 l -4.323177073748376 -6.170996019090413" fill="#ff1e03" stroke="none" /><path d="M 111.7513745106137 117.40417183066458 l 8.865482527421072 13.13007096570977 a36.84283888728857,36.84283888728857 0 0,0 -0.5286514060470092,0.3503613254478693 l -8.6381564226341 -13.280730312248958" fill="#ff9a0e" stroke="none" /><line stroke="#e1ed5e" stroke-width="0.3" x1="143.8653032363475" x2="146.44561519142675" y1="172.8068346515853" y2="177.08958963109032" /><path d="M 144.38136562736335 173.6633856474863 a86.0,86.0 0 0,1 -40.68145358897372,12.25698825130547" fill="none" id="id42" stroke="none" /><text fill="#e1ed5e" style="font-size:6.75px; font-family:Arial;" text-anchor="middle"><textPath startOffset="21.466115282336833" xlink:href="#id42">June</textPath></text><path d="M 110.8373102113329 117.98757091392108 l 7.047219405914516 11.696846942453378 a34.65575079408961,34.65575079408961 0 0,0 -0.5136182428930641,0.3034547111547249 l -6.84483329199307 -11.816420225901853" fill="#ff7a0b" stroke="none" /><path d="M 110.5260780823613 118.17145234162733 l 5.577757703558215 9.629033481444196 a32.127877910292526,32.127877910292526 0 0,0 -0.48092562082407736,0.2730821188916145 l -5.411183315812939 -9.72361876613044" fill="#ff5507" stroke="none" /><path d="M 110.21172684928248 118.3499491758327 l 5.922007549369405 10.641543703008619 a33.17836712362666,33.17836712362666 0 0,0 -0.5014312792612523,0.27342031381380416 l -5.737953458239504 -10.741904668582194" fill="#ff6409" stroke="none" /><path d="M 109.57404056367764 118.69057910512821 l 5.55330963853737 10.841250609291706 a33.180803040643085,33.180803040643085 0 0,0 -0.5105831829777043,0.25601700747802825 l -5.365872547876905 -10.935235457679035" fill="#ff6509" stroke="none" /><path d="M 108.92500713936063 119.00905698771935 l 8.280571582612502 17.636496492040532 a40.48368225589115,40.48368225589115 0 0,0 -0.6333421557258514,0.2907363202226378 l -7.97576143111923 -17.776419882597246" fill="#ffcd13" stroke="none" /><path d="M 108.59647513512805 119.15986991738527 l 4.487207156346382 10.001111392347013 a31.961626573921382,31.961626573921382 0 0,0 -0.5038968458540333,0.22089356905913868 l -4.314389635834594 -10.076869514700608" fill="#ff5207" stroke="none" /><path d="M 107.93186726928326 119.44442032107085 l 4.598946200512207 11.27399638960822 a33.17593120661023,33.17593120661023 0 0,0 -0.5306236226183483,0.2111460902633634 l -4.404201501851992 -11.351489324277653" fill="#ff6409" stroke="none" /><path d="M 107.59598834532513 119.57807347666477 l 4.404642054167872 11.352624813856954 a33.17714916511844,33.17714916511844 0 0,0 -0.5341991487145206,0.20198840843970112 l -4.208572684693077 -11.426761472403285" fill="#ff6409" stroke="none" /><path d="M 107.2578585660854 119.70592522655815 l 5.594311960349168 15.189203837591482 a37.18666857415724,37.18666857415724 0 0,0 -0.6025664724347932,0.21605889872690306 l -5.332025927284639 -15.283250277358343" fill="#ff9f0e" stroke="none" /><path d="M 106.57524785965236 119.94407469862006 l 7.037839800750751 21.34721088833834 a43.477424269079904,43.477424269079904 0 0,0 -0.7127785307747302,0.22820917674994598 l -6.66933992488508 -21.46519291174799" fill="#fff517" stroke="none" /><path d="M 106.2309692047433 120.05430185196036 l 3.252816508474158 10.469152067116964 a31.962844532429592,31.962844532429592 0 0,0 -0.5268162086071257,0.1587254021140713 l -3.072125325426786 -10.52359283833676" fill="#ff5207" stroke="none" /><path d="M 105.53697534728816 120.25689768951611 l 4.690477802560659 17.160005779681295 a38.789501970966185,38.789501970966185 0 0,0 -0.6455857932111876,0.17050507562504089 l -4.394401566537975 -17.238202204609923" fill="#ffb510" stroke="none" /><path d="M 105.18746579009965 120.34920634021253 l 2.7125486158941343 10.640689254863933 a31.980992114201975,31.980992114201975 0 0,0 -0.5346105824925653,0.13139427416582272 l -2.528984748658358 -10.685804787343786" fill="#ff5307" stroke="none" /><path d="M 104.83641907484287 120.43548508189849 l 4.007542797067622 16.933206113286605 a38.40097320684609,38.40097320684609 0 0,0 -0.6445509190056102,0.1466976906880484 l -3.7154717286691494 -16.99968053755234" fill="#ffb010" stroke="none" /><path d="M 104.13013068566511 120.58985236759428 l 2.155375696292261 10.745148461618644 a31.959190656904955,31.959190656904955 0 0,0 -0.5403117950132698,0.10355204146720354 l -1.970096286707287 -10.780657701434315" fill="#ff5207" stroke="none" /><path d="M 103.7750983002368 120.6578951692458 l 4.066087812896313 22.250232737645774 a43.618707456032666,43.618707456032666 0 0,0 -0.739754643977419,0.12861582708352043 l -3.6824841974468447 -22.3169271432503" fill="#fff717" stroke="none" /><path d="M 103.06178313531738 120.77559828337769 l 2.572918548403033 17.45842857414908 a38.64700082550521,38.64700082550521 0 0,0 -0.6589707634282084,0.09132734325587824 l -2.272019193787994 -17.500130482897564" fill="#ffb310" stroke="none" /><path d="M 102.70371172650421 120.8252237178851 l 1.4992598186077035 11.547984508729634 a32.64490129702915,32.64490129702915 0 0,0 -0.5578742786999138,0.06755080598454798 l -1.3002581168564094 -11.572080843439533" fill="#ff5d08" stroke="none" /><path d="M 102.34483914955558 120.86867818915974 l 1.6320884489482026 14.525315573906264 a35.616720057070054,35.616720057070054 0 0,0 -0.6098386451593253,0.0632122690505456 l -1.3818172071832746 -14.551257211412567" fill="#ff880c" stroke="none" /><path d="M 101.62511606390274 120.93702456842531 l 2.356243766556275 30.356437134166704 a51.44774474682896,51.44774474682896 0 0,0 -0.8835225061736517,0.060932884893201415 l -1.8333584996036931 -30.39249836357619" fill="#a5ff21" stroke="none" /><path d="M 101.26447882468166 120.96189622390904 l 0.6598521180920928 10.93869770895943 a31.958581677650848,31.958581677650848 0 0,0 -0.5494013953435387,0.028397776652900896 l -0.4714626543350745 -10.948435292374532" fill="#ff5207" stroke="none" /><line stroke="#e1ed5e" stroke-width="0.3" x1="102.19456741930631" x2="102.32365962044197" y1="184.97166512339345" y2="189.96999836594603" /><path d="M 102.22038585953345 185.97133177190398 a86.0,86.0 0 0,1 -42.740103519485714,-10.115201625700543" fill="none" id="id43" stroke="none" /><text fill="#e1ed5e" style="font-size:6.75px; font-family:Arial;" text-anchor="middle"><textPath startOffset="22.20632615414155" xlink:href="#id43">July</textPath></text><path d="M 100.54218724476979 120.99299961872073 l 0.3668339954985713 14.203480443190855 a35.20821677341525,35.20821677341525 0 0,0 -0.6059842280433038,0.010432568039659446 l -0.12229007756259964 -14.207690488509673" fill="#ff820c" stroke="none" /><path d="M 99.81925306533755 120.99922214144158 l -0.132836988740388 15.433033154166786 a36.43360482852884,36.43360482852884 0 0,0 -0.6270749251214979,-0.01079566351655424 l 0.39847160375455376 -15.428460013371073" fill="#ff940d" stroke="none" /><path d="M 99.09653310690486 120.98055641714683 l -0.9516864707490351 22.100324697656546 a43.120806017875,43.120806017875 0 0,0 -0.7412916891466811,-0.038316312993483564 l 1.331966228309205 -22.080668577900862" fill="#fff016" stroke="none" /><path d="M 98.73552117531835 120.96189622390904 l -0.7287524865219285 12.080893485293679 a33.10285369611742,33.10285369611742 0 0,0 -0.5684819889193704,-0.0392058463170309 l 0.936597236220229 -12.066559294460362" fill="#ff6309" stroke="none" /><path d="M 98.01472825383883 120.90594882070398 l -1.2405151426340348 13.063272639306447 a34.12204137579046,34.12204137579046 0 0,0 -0.5842463721909278,-0.06055952531687492 l 1.465194111430556 -13.039983745533812" fill="#ff720a" stroke="none" /><path d="M 97.65516085044442 120.86867818915974 l -1.0878323059025619 9.681526479099759 a30.74245010719968,30.74245010719968 0 0,0 -0.5253629662707068,-0.06361413881408155 l 1.2543226952246578 -9.66136681156033" fill="#ff4006" stroke="none" /><path d="M 97.2962882734958 120.8252237178851 l -1.0504697756357027 8.091198433634537 a29.15910404652215,29.15910404652215 0 0,0 -0.4971924507460934,-0.06890634324547638 l 1.189590817568627 -8.071917524896454" fill="#ff2803" stroke="none" /><path d="M 96.58105272829116 120.7198165907248 l -10.256841815126537 62.1594497721744 a84.0,84.0 0 0,0 -1.4246041141118002,-0.24768568591597528 l 11.325294900710388 -61.97368550773742" fill="#4dd2ff" stroke="none" /><path d="M 95.51606077576429 120.51570834832081 l -2.0796967462845304 9.51539478258599 a30.740014190183253,30.740014190183253 0 0,0 -0.5159636004484321,-0.11743163562879814 l 2.243180496125825 -9.478186413379504" fill="#ff4006" stroke="none" /><path d="M 94.81253420990036 120.34920634021253 l -3.7475466187044284 14.700742616775386 a36.170891178307194,36.170891178307194 0 0,0 -0.6020034361354265,-0.15899457900745328 l 4.000040497651344 -14.634056688464351" fill="#ff900d" stroke="none" /><path d="M 94.11515582081647 120.15858648285463 l -7.508122753998256 25.719141790660167 a47.792651263680284,47.792651263680284 0 0,0 -0.7877253638195122,-0.23733519030912745 l 7.949723092258013 -25.586091231245316" fill="#d2ff1c" stroke="none" /><path d="M 93.08242187328487 119.8279376855182 l -5.626591272341994 16.12756648154469 a38.08089371088758,38.08089371088758 0 0,0 -0.6170563449311193,-0.2212544514791143 l 5.903367177902839 -16.028324489025618" fill="#ffab0f" stroke="none" /><path d="M 92.7421414339146 119.70592522655815 l -3.971582644536823 10.783306110434589 a32.49143852499425,32.49143852499425 0 0,0 -0.5231582350303402,-0.19781367961777463 l 4.156611100327447 -10.713344180710182" fill="#ff5a08" stroke="none" /><path d="M 92.40401165467489 119.57807347666478 l -5.560519165342123 14.331808823070451 a36.37270690311817,36.37270690311817 0 0,0 -0.5817536026697243,-0.23149176452833284 l 5.806393844053706 -14.23397021413605" fill="#ff930d" stroke="none" /><path d="M 91.7346041902142 119.30500536409082 l -3.532382545508261 8.250380932552707 a29.97477085947272,29.97477085947272 0 0,0 -0.4725727101639507,-0.2071619885040957 l 3.673875930329955 -8.18835439075416" fill="#ff3405" stroke="none" /><path d="M 91.40352486487194 119.15986991738527 l -10.160034159114069 22.64473866147194 a45.81955848037444,45.81955848037444 0 0,0 -0.7168186371718737,-0.32905627859164177 l 10.548320792053362 -22.466495312546225" fill="#ebff1a" stroke="none" /><path d="M 90.7491055286396 118.85261126421891 l -7.1589678438477655 14.589425728608278 a37.25122037509256,37.25122037509256 0 0,0 -0.573218395155214,-0.2874236031495069 l 7.40904014668574 -14.464034284549468" fill="#ff9f0e" stroke="none" /><path d="M 90.10565033884886 118.52300852407294 l -7.4830396135056585 14.008844572288407 a36.88217894710387,36.88217894710387 0 0,0 -0.5574077260185452,-0.30394313572692766 l 7.723070151392844 -13.877960784801713" fill="#ff9a0e" stroke="none" /><line stroke="#e1ed5e" stroke-width="0.3" x1="58.666819895761336" x2="56.23545636021788" y1="174.27360380694188" y2="178.64263932499728" /><path d="M 58.180547188652646 175.14741091055294 a86.0,86.0 0 0,1 -31.652253787137756,-30.449443065178592" fill="none" id="id44" stroke="none" /><text fill="#e1ed5e" style="font-size:6.75px; font-family:Arial;" text-anchor="middle"><textPath startOffset="22.20632615414155" xlink:href="#id44">August</textPath></text><path d="M 89.4739219176387 118.17145234162733 l -12.214779610196796 21.086703310905 a45.36903562818626,45.36903562818626 0 0,0 -0.6723953118071235,-0.3972630021412683 l 12.5759427930323 -20.873321736469983" fill="#f0ff19" stroke="none" /><path d="M 88.8546689885994 117.79835938074946 l -6.809899617315811 10.87496105874594 a33.831192884029086,33.831192884029086 0 0,0 -0.49090381572496616,-0.31331804150583087 l 6.9960852350877 -10.756128588416304" fill="#ff6e0a" stroke="none" /><line stroke="#e1ed5e" stroke-width="0.3" x1="26.63291911575756" x2="22.317208475507996" y1="142.92168965132927" y2="145.44649492493687" /><path d="M 25.769776987707644 143.4266507060508 a86.0,86.0 0 0,1 -11.730757126820373,-40.83630448921669" fill="none" id="id45" stroke="none" /><text fill="#e1ed5e" style="font-size:6.75px; font-family:Arial;" text-anchor="middle"><textPath startOffset="21.46611528233685" xlink:href="#id45">September</textPath></text><line stroke="#e1ed5e" stroke-width="0.3" x1="15.007084014347285" x2="10.007500721073583" y1="101.09737516637583" y2="101.16192664675087" /><path d="M 14.007167355692545 101.11028546245083 a86.0,86.0 0 0,1 10.666146001902534,-42.60595125391555" fill="none" id="id46" stroke="none" /><text fill="#e1ed5e" style="font-size:6.75px; font-family:Arial;" text-anchor="middle"><textPath startOffset="22.20632615414155" xlink:href="#id46">October</textPath></text><line stroke="#e1ed5e" stroke-width="0.3" x1="26.266209847984243" x2="21.928928074336255" y1="57.711370442889674" y2="55.22380399835377" /><path d="M 25.398753493254645 57.213857153982495 a86.0,86.0 0 0,1 29.58750427330803,-30.492523968695096" fill="none" id="id47" stroke="none" /><text fill="#e1ed5e" style="font-size:6.75px; font-family:Arial;" text-anchor="middle"><textPath startOffset="21.46611528233685" xlink:href="#id47">November</textPath></text><line stroke="#e1ed5e" stroke-width="0.3" x1="56.762969772571076" x2="54.21961505331055" y1="26.818313649435495" y2="22.513508569990535" /><path d="M 56.25429882871897 25.957352633546506 a86.0,86.0 0 0,1 42.265352541879196,-11.944610805530505" fill="none" id="id48" stroke="none" /><text fill="#e1ed5e" style="font-size:6.75px; font-family:Arial;" text-anchor="middle"><textPath startOffset="22.20632615414155" xlink:href="#id48">December</textPath></text></svg>