<?xml version="1.0" encoding="utf-8" ?>
<svg baseProfile="full" height="200mm" version="1.1" viewBox="0,0,200,200" width="200mm" xmlns="http://www.w3.org/2000/svg" xmlns:ev="http://www.w3.org/2001/xml-events" xmlns:xlink="http://www.w3.org/1999/xlink"><defs /><rect fill="#1a1a1a" height="200" width="200" x="0" y="0" /><text alignment-baseline="middle" fill="#e1ed5e" style="dominant-baseline: central; font-size:9.0px; font-family:Arial;" text-anchor="middle" x="100.0" y="100.0">2023</text><line stroke="#e1ed5e" stroke-width="0.3" x1="100.0" x2="100.0" y1="15.0" y2="10.0" /><path d="M 100.0 14.0 a86.0,86.0 0 0,1 42.46469731375804,11.215312516191453" fill="none" id="id13" stroke="none" /><text fill="#e1ed5e" style="font-size:6.75px; font-family:Arial;" text-anchor="middle"><textPath startOffset="22.20632615414155" xlink:href="#id13">January</textPath></text><line stroke="#e1ed5e" stroke-width="0.3" x1="143.23703022742887" x2="145.7803849466894" y1="26.81831364943548" y2="22.513508569990506" /><path d="M 143.74570117128098 25.957352633546492 a86.0,86.0 0 0,1 28.547481713284135,27.462654790039103" fill="none" id="id14" stroke="none" /><text fill="#e1ed5e" style="font-size:6.75px; font-family:Arial;" text-anchor="middle"><textPath startOffset="19.985693538727396" xlink:href="#id14">February</textPath></text><line stroke="#e1ed5e" stroke-width="0.3" x1="172.23445277983987" x2="176.4835382374775" y1="55.19839476539836" y2="52.563006222186495" /><path d="M 173.08426987136738 54.67131705675599 a86.0,86.0 0 0,1 12.851231095245387,41.99856678651699" fill="none" id="id15" stroke="none" /><text fill="#e1ed5e" style="font-size:6.75px; font-family:Arial;" text-anchor="middle"><textPath startOffset="22.20632615414155" xlink:href="#id15">March</textPath></text><path d="M 119.34039704204932 91.81776055985345 l 5.807533371350118 -2.4569624138384834 a27.305878857253784,27.305878857253784 0 0,0 0.17941043346732025,0.4344565953490471 l -5.848965491703636 2.356631248036133" fill="#ff0000" stroke="none" /><path d="M 120.67395015179393 96.31383870115 l 6.355684132062861 -1.133217246985197 a27.455919927897213,27.455919927897213 0 0,0 0.07895294736645359,0.46598476462690297 l -6.3742489409495375 1.0236466940424562" fill="#ff0300" stroke="none" /><path d="M 120.83666639777658 97.38593545837742 l 8.777037983203527 -1.1011235355198246 a29.845839066989242,29.845839066989242 0 0,0 0.059563265695676874,0.510301685807201 l -8.794691601902793 0.9498781113877708" fill="#ff2903" stroke="none" /><path d="M 120.94382443527127 98.46500227214037 l 10.031813531432908 -0.735243509352956 a31.05872088028523,31.05872088028523 0 0,0 0.0344890959565272,0.5335310492122803 l -10.04298321839385 0.5624533958876404" fill="#ff3b05" stroke="none" /><line stroke="#e1ed5e" stroke-width="0.3" x1="184.98032266829074" x2="189.97916517819016" y1="98.17113171792111" y2="98.06355123074" /><path d="M 185.9800911702706 98.14961562048488 a86.0,86.0 0 0,1 -9.607161424134198,41.387399972396054" fill="none" id="id16" stroke="none" /><text fill="#e1ed5e" style="font-size:6.75px; font-family:Arial;" text-anchor="middle"><textPath startOffset="21.466115282336823" xlink:href="#id16">April</textPath></text><path d="M 120.70491114924044 103.5080841355445 l 7.959202985794921 1.3485473820577047 a29.072638491270464,29.072638491270464 0 0,0 -0.08784582585036915,0.4926860431311836 l -7.934810717605363 -1.4853521759221067" fill="#ff1c02" stroke="none" /><path d="M 120.49622156327973 104.57218783832717 l 7.36515706055722 1.6429799724637952 a28.54618590524995,28.54618590524995 0 0,0 -0.11111186098744573,0.4786669890663398 l -7.335784633639221 -1.7695156188787" fill="#ff1402" stroke="none" /><path d="M 120.41448212921028 104.9243191809786 l 12.214831821184688 2.946424516124347 a33.56517146118765,33.56517146118765 0 0,0 -0.14031629943040932,0.5604938665376923 l -12.162304207459218 -3.156246222059435" fill="#ff6109" stroke="none" /><path d="M 120.13307415673323 105.97154293290107 l 8.43467894063674 2.5017564147005324 a29.797874401815257,29.797874401815257 0 0,0 -0.15008654037794716,0.49049149790423996 l -8.39036562775266 -2.6465748851568294" fill="#ff2803" stroke="none" /><path d="M 119.79798401119884 107.00284435728193 l 29.003209708904855 10.25887097081103 a51.76411232287488,51.76411232287488 0 0,0 -0.3043624772607345,0.8374748189389912 l -28.822322970638893 -10.756593586756152" fill="#a5ff21" stroke="none" /><path d="M 119.41010516605496 108.01547362559984 l 14.706323723388918 6.073029946303756 a36.91092863995731,36.91092863995731 0 0,0 -0.24756514677231858,0.5851708774076276 l -14.59960759542429 -6.325275349377548" fill="#ff930d" stroke="none" /><line stroke="#e1ed5e" stroke-width="0.3" x1="174.80103733775053" x2="179.2010983576182" y1="140.37084112569926" y2="142.7455964860345" /><path d="M 175.68104954172406 140.8457921977663 a86.0,86.0 0 0,1 -30.038265399797805,32.042727171017184" fill="none" id="id17" stroke="none" /><text fill="#e1ed5e" style="font-size:6.75px; font-family:Arial;" text-anchor="middle"><textPath startOffset="22.206326154141568" xlink:href="#id17">May</textPath></text><path d="M 115.80600337817218 113.82643327865902 l 5.672388387868527 4.961969050557929 a28.53638685853642,28.53638685853642 0 0,0 -0.32659371640288976,0.36693150257486307 l -5.586135821817299 -5.058874722873658" fill="#ff1402" stroke="none" /><path d="M 115.32070863581623 114.36230785411682 l 4.590694282488113 4.303519250740945 a27.292436089207975,27.292436089207975 0 0,0 -0.32425161910312883,0.3399765262887408 l -4.5159361120060195 -4.381902893612192" fill="#ff0000" stroke="none" /><path d="M 115.07121518719521 114.62390073753431 l 5.419727378633062 5.258869588496468 a28.551764973005834,28.551764973005834 0 0,0 -0.345285161243134,0.34977204537788775 l -5.328401592334392 -5.351382127855021" fill="#ff1402" stroke="none" /><path d="M 114.29624159901734 115.38237550388516 l 4.287186334509892 4.612898403807688 a27.297523191752443,27.297523191752443 0 0,0 -0.3469391065865456,0.3169206480199882 l -4.207147678456482 -4.68601181841426" fill="#ff0000" stroke="none" /><path d="M 113.48314897796784 116.09983520530334 l 4.845194123096335 5.785505080973473 a28.546388217714295,28.546388217714295 0 0,0 -0.3794356987487588,0.31224974821937646 l -4.744888295802885 -5.868049948050027" fill="#ff1402" stroke="none" /><path d="M 113.20401910651253 116.32954008644616 l 3.9480710247434265 4.8826182045500195 a27.279110235361525,27.279110235361525 0 0,0 -0.3676737027360237,0.2921022260975454 l -3.863439829290052 -4.949854344652691" fill="#ff0000" stroke="none" /><path d="M 112.92097659922987 116.55440617244103 l 4.651934444719933 5.960076755347788 a28.560622263253784,28.560622263253784 0 0,0 -0.3901534296988878,0.29915301289738716 l -4.548652286527552 -6.039269110072547" fill="#ff1402" stroke="none" /><path d="M 112.04921762599082 117.19931262002967 l 7.204915567715095 10.284451579889232 a33.5570996904934,33.5570996904934 0 0,0 -0.475940529277954,0.3273562358948249 l -7.026818153814258 -10.406948605149152" fill="#ff6109" stroke="none" /><path d="M 111.45004920935366 117.60387380957326 l 3.4374525823736906 5.284910167640579 a27.304471090908287,27.304471090908287 0 0,0 -0.39619853461348836,0.25287265027519507 l -3.3459722457132717 -5.343297246739583" fill="#ff0000" stroke="none" /><line stroke="#e1ed5e" stroke-width="0.3" x1="143.8653032363475" x2="146.44561519142675" y1="172.8068346515853" y2="177.08958963109032" /><path d="M 144.38136562736335 173.6633856474863 a86.0,86.0 0 0,1 -40.68145358897372,12.25698825130547" fill="none" id="id18" stroke="none" /><text fill="#e1ed5e" style="font-size:6.75px; font-family:Arial;" text-anchor="middle"><textPath startOffset="21.466115282336833" xlink:href="#id18">June</textPath></text><path d="M 107.59598834532513 119.57807347666477 l 2.2719154961882504 5.855686777681994 a27.28097664859057,27.28097664859057 0 0,0 -0.4392624100777156,0.1660914573010688 l -2.17078286535026 -5.893926485089693" fill="#ff0000" stroke="none" /><path d="M 107.2578585660854 119.70592522655815 l 6.943497841823011 18.85239951093889 a41.09042382826828,41.09042382826828 0 0,0 -0.665822260675883,0.23874017385701085 l -6.6179560205173935 -18.969127225835862" fill="#ffce13" stroke="none" /><path d="M 106.57524785965236 119.94407469862006 l 2.3633923772790038 7.168653580930373 a28.548193008420384,28.548193008420384 0 0,0 -0.4680254042391995,0.14984695468225936 l -2.239645627948864 -7.208273382272339" fill="#ff1402" stroke="none" /><path d="M 105.53697534728816 120.25689768951611 l 3.310683772684635 12.112060874256894 a33.55637868433499,33.55637868433499 0 0,0 -0.5584892883243633,0.14750209707661613 l -3.101704041548774 -12.167254320637094" fill="#ff6109" stroke="none" /><path d="M 104.48393922423573 120.51570834832081 l 3.2041661639425536 14.660265278285022 a36.00633395722765,36.00633395722765 0 0,0 -0.6066356379377369,0.1271263961376801 l -2.9513390645754387 -14.713247655149244" fill="#ff860c" stroke="none" /><path d="M 104.13013068566511 120.58985236759428 l 2.469583472255532 12.311561781731795 a33.55680676094988,33.55680676094988 0 0,0 -0.5673215786522093,0.10872853078543317 l -2.2572942790316186 -12.352247510865697" fill="#ff6109" stroke="none" /><path d="M 103.41894727170886 120.7198165907248 l 1.0227378108987832 6.198089112860317 a27.281902679984753,27.281902679984753 0 0,0 -0.4640055814196779,0.07246812906100386 l -0.9158963658705883 -6.214775549268427" fill="#ff0000" stroke="none" /><path d="M 103.06178313531738 120.77559828337769 l 1.4652776784165171 9.942578907446459 a31.049970846010694,31.049970846010694 0 0,0 -0.5294336573542329,0.07337468069882395 l -1.2939154298754538 -9.966328153637885" fill="#ff3b05" stroke="none" /><path d="M 102.70371172650421 120.8252237178851 l 0.9721739544676457 7.488128226105929 a28.55097255513153,28.55097255513153 0 0,0 -0.4879124331071128,0.05907940079810749 l -0.8431340983091525 -7.503753155629387" fill="#ff1402" stroke="none" /><path d="M 101.98527174616119 120.90594882070398 l 0.8314517085958887 8.75562093723627 a29.795010513938976,29.795010513938976 0 0,0 -0.5109924923593158,0.04409058238503518 l -0.6806148984950313 -8.768635771899968" fill="#ff2803" stroke="none" /><path d="M 101.26447882468166 120.96189622390904 l 0.734901507796295 12.182828878212696 a33.20497438350341,33.20497438350341 0 0,0 -0.5708281876414046,0.029505297069157606 l -0.5250852517414109 -12.193673982044057" fill="#ff5c08" stroke="none" /><line stroke="#e1ed5e" stroke-width="0.3" x1="102.19456741930631" x2="102.32365962044197" y1="184.97166512339345" y2="189.96999836594603" /><path d="M 102.22038585953345 185.97133177190398 a86.0,86.0 0 0,1 -42.740103519485714,-10.115201625700543" fill="none" id="id19" stroke="none" /><text fill="#e1ed5e" style="font-size:6.75px; font-family:Arial;" text-anchor="middle"><textPath startOffset="22.20632615414155" xlink:href="#id19">July</textPath></text><path d="M 99.81925306533755 120.99922214144158 l -0.08645558716190098 10.044430814674888 a31.044802883050615,31.044802883050615 0 0,0 -0.5343258657748005,-0.009198904347799625 l 0.25934114282936943 -10.041454433047928" fill="#ff3b05" stroke="none" /><path d="M 99.09653310690486 120.98055641714683 l -0.3511034997053825 8.15342193513092 a29.160978061469066,29.160978061469066 0 0,0 -0.5013076674725153,-0.025911880268104953 l 0.4913992355913867 -8.146170248100614" fill="#ff1e03" stroke="none" /><path d="M 98.37488393609728 120.93702456842531 l -1.2672427227709329 16.326398224811022 a37.37550558344775,37.37550558344775 0 0,0 -0.6410000339600687,-0.05530818011755378 l 1.548087074472543 -16.302165792414804" fill="#ff990e" stroke="none" /><path d="M 98.01472825383883 120.90594882070398 l -2.3008675605900186 24.22933765008498 a45.33834001104432,45.33834001104432 0 0,0 -0.7762947234278068,-0.08046612216090827 l 2.7175948806234187 -24.18614215946831" fill="#f7ff19" stroke="none" /><path d="M 97.65516085044442 120.86867818915974 l -2.1318964587703704 18.973523680342964 a40.092919718038225,40.092919718038225 0 0,0 -0.685154734124102,-0.08296269658116176 l 2.4581786159458616 -18.934015455036455" fill="#ffc011" stroke="none" /><path d="M 96.93821686468263 120.77559828337769 l -2.8846571541158776 19.573717526852548 a40.7851374702782,40.7851374702782 0 0,0 -0.6936661143895153,-0.1083363811034809 l 3.2211591321139097 -19.52116283840196" fill="#ffca12" stroke="none" /><path d="M 96.58105272829116 120.7198165907248 l -2.04497893529296 12.393168160791143 a33.56075459148212,33.56075459148212 0 0,0 -0.5691760602824039,-0.09895855381963055 l 2.2580039670474137 -12.356131028450505" fill="#ff6109" stroke="none" /><path d="M 95.51606077576429 120.51570834832081 l -3.830248693669815 17.524828319737253 a38.93851757229744,38.93851757229744 0 0,0 -0.653573469368895,-0.1487511937758259 l 4.131342312431572 -17.45630039238374" fill="#ffb010" stroke="none" /><path d="M 95.16358092515715 120.4354850818985 l -7.395659631868212 31.249130759569795 a53.11236451305223,53.11236451305223 0 0,0 -0.8878533858013454,-0.21821276086441502 l 7.932466302412768 -31.11719674039135" fill="#95ff23" stroke="none" /><path d="M 94.46302465271185 120.25689768951611 l -4.519371381149108 16.534016849777444 a38.140549316444734,38.140549316444734 0 0,0 -0.6318051589790474,-0.17855444885863408 l 4.8033077082327695 -16.45377360758029" fill="#ffa40f" stroke="none" /><path d="M 94.11515582081647 120.15858648285463 l -4.764156149715041 16.319659592954388 a38.0008374219853,38.0008374219853 0 0,0 -0.626335277332225,-0.18870968115357467 l 5.044366401487512 -16.23523454269509" fill="#ffa20f" stroke="none" /><path d="M 93.42475214034765 119.94407469862007 l -3.9327568280007283 11.928857683138608 a33.56042283893187,33.56042283893187 0 0,0 -0.5470832625329131,-0.18560034604521722 l 4.137509823470867 -11.859394350195267" fill="#ff6109" stroke="none" /><path d="M 93.08242187328487 119.8279376855182 l -7.5307334722604455 21.58543225374913 a43.86138298991155,43.86138298991155 0 0,0 -0.7107224131045208,-0.2548397710470131 l 7.901175445994693 -21.45260494166216" fill="#fff417" stroke="none" /><path d="M 92.7421414339146 119.70592522655815 l -8.683749347339687 23.57738357212781 a46.125694395074234,46.125694395074234 0 0,0 -0.7426890887183383,-0.28082146397413815 l 9.088308656818308 -23.42441385804704" fill="#ecff1a" stroke="none" /><path d="M 92.06813273071674 119.44442032107085 l -7.443636525884152 18.2475566487443 a40.707385630230334,40.707385630230334 0 0,0 -0.6465273769964143,-0.27024849601942497 l 7.756635362378029 -18.116723109704903" fill="#ffc912" stroke="none" /><path d="M 91.7346041902142 119.30500536409082 l -8.786777063514009 20.522765303432482 a43.32468021862056,43.32468021862056 0 0,0 -0.6830431379738052,-0.2994260389002145 l 9.138740876145558 -20.368474711237816" fill="#ffec16" stroke="none" /><path d="M 90.7491055286396 118.85261126421891 l -6.30084997878452 12.84064753434791 a35.303249265691484,35.303249265691484 0 0,0 -0.5432431926814123,-0.272393414354147 l 6.5209470791486925 -12.730286279084462" fill="#ff7b0b" stroke="none" /><path d="M 90.42595943632237 118.69057910512821 l -12.376948845551691 24.16245679546699 a48.14798668627588,48.14798668627588 0 0,0 -0.7343922933641587,-0.3841993383648233 l 12.791032041442346 -23.94582803815745" fill="#d2ff1c" stroke="none" /><line stroke="#e1ed5e" stroke-width="0.3" x1="58.666819895761336" x2="56.23545636021788" y1="174.27360380694188" y2="178.64263932499728" /><path d="M 58.180547188652646 175.14741091055294 a86.0,86.0 0 0,1 -31.652253787137756,-30.449443065178592" fill="none" id="id20" stroke="none" /><text fill="#e1ed5e" style="font-size:6.75px; font-family:Arial;" text-anchor="middle"><textPath startOffset="22.20632615414155" xlink:href="#id20">August</textPath></text><path d="M 89.4739219176387 118.17145234162733 l -9.965508680276512 17.2037262717222 a40.88163878781151,40.88163878781151 0 0,0 -0.6058894988466309,-0.35797019558447657 l 10.260166050151525 -17.029637503843972" fill="#ffcb12" stroke="none" /><path d="M 89.1626897886671 117.98757091392108 l -9.074308988610488 15.061373463017928 a38.583744032863926,38.583744032863926 0 0,0 -0.5659331288861789,-0.34764235066474286 l 9.332221317428976 -14.902942645524806" fill="#ffab0f" stroke="none" /><path d="M 88.54995079064634 117.60387380957326 l -10.2683865982013 15.787127076709968 a39.832767844008195,39.832767844008195 0 0,0 -0.5715533700293777,-0.37879440780278734 l 10.53861466697064 -15.608034647815863" fill="#ffbc11" stroke="none" /><path d="M 88.24862548938628 117.40417183066458 l -9.716209834455922 14.390026064519716 a38.36310985062108,38.36310985062108 0 0,0 -0.5441041977839651,-0.37423982864276895 l 9.96247091686278 -14.220645446511845" fill="#ffa80f" stroke="none" /><path d="M 87.65650970185807 116.9893568818739 l -9.063912559067312 12.475405375031858 a36.42044909040563,36.42044909040563 0 0,0 -0.5040157090370193,-0.37285877223176306 l 9.277313238522895 -12.31753665406033" fill="#ff8c0c" stroke="none" /><path d="M 87.07902340077011 116.55440617244103 l -12.36251925330834 15.83890841858552 a41.092359298518396,41.092359298518396 0 0,0 -0.5538516383815157,-0.4400132380834622 l 12.633328384407214 -15.623761266496926" fill="#ffce13" stroke="none" /><path d="M 86.51685102203217 116.09983520530335 l -16.125074274322063 19.2544811982779 a46.11479776082699,46.11479776082699 0 0,0 -0.6041796621271691,-0.5148950154626276 l 16.454119413026287 -18.974061792592323" fill="#edff1a" stroke="none" /><path d="M 86.24171649860922 115.8653595955263 l -14.636390029969062 16.877947818298814 a43.34030070671824,43.34030070671824 0 0,0 -0.5594152349468571,-0.4936189027465295 l 14.924747617822508 -16.623505773779996" fill="#ffed16" stroke="none" /><path d="M 85.44109423537348 115.13401014063109 l -12.193640894808063 12.675312824787225 a38.588303882914666,38.588303882914666 0 0,0 -0.4747281021851585,-0.4646213650089323 l 12.410018949369016 -12.463541356855723" fill="#ffab0f" stroke="none" /><path d="M 85.18274418774928 114.88116024355367 l -27.916263160062957 28.036661494542134 a60.56478404568171,60.56478404568171 0 0,0 -0.7324283190422828,-0.7419460202742761 l 28.394732104160774 -27.551974980287195" fill="#40ff2d" stroke="none" /><path d="M 84.67929136418377 114.36230785411682 l -18.32130605576509 17.17520018932036 a46.11290021348081,46.11290021348081 0 0,0 -0.5378819307155543,-0.583764602820224 l 18.614234394476373 -16.857284331698793" fill="#edff1a" stroke="none" /><path d="M 84.43433777217949 114.09645910891817 l -13.030464266572624 11.80055201092974 a38.57970496808988,38.57970496808988 0 0,0 -0.4415376510599257,-0.49607223167433223 l 13.231660767280887 -11.574505609514544" fill="#ffab0f" stroke="none" /><path d="M 83.95833913139862 113.55231037782056 l -24.930807426388732 21.062036093370647 a53.63670515432168,53.63670515432168 0 0,0 -0.5897585606030405,-0.7104021782944229 l 25.28966198688531 -20.629772657962466" fill="#8fff24" stroke="none" /><path d="M 83.50135304334701 112.99209946851258 l -13.434726538626265 10.57937077996046 a38.100145124166346,38.100145124166346 0 0,0 -0.40130916021275453,-0.5187461865941818 l 13.614842516057088 -10.346546599253026" fill="#ffa40f" stroke="none" /><path d="M 83.06392112726016 112.41649034213515 l -17.790464747429677 13.042873464300358 a43.0594012642068,43.0594012642068 0 0,0 -0.4330959845337043,-0.6015324428720501 l 18.01234052433899 -12.73470741597717" fill="#ffe915" stroke="none" /><path d="M 82.85270091963577 112.12312394758628 l -42.87060652726569 30.309477556928687 a73.50288881375576,73.50288881375576 0 0,0 -0.7215151819538167,-1.039396432749584 l 43.385982616381646 -29.567039861992093" fill="#3fffbc" stroke="none" /><path d="M 82.24976979558568 111.22182372390057 l -21.225276491434506 13.418773082655228 a46.11126904761356,46.11126904761356 0 0,0 -0.41837272682642296,-0.6745500484204869 l 21.453113857928887 -13.051426702869477" fill="#edff1a" stroke="none" /><path d="M 82.05923443525364 110.91462005526583 l -21.46749386292708 13.06017506371181 a46.128101111098935,46.128101111098935 0 0,0 -0.4068479282619601,-0.6819005296161573 l 21.689122666887272 -12.688712440209542" fill="#ecff1a" stroke="none" /><line stroke="#e1ed5e" stroke-width="0.3" x1="26.63291911575756" x2="22.317208475507996" y1="142.92168965132927" y2="145.44649492493687" /><path d="M 25.769776987707644 143.4266507060508 a86.0,86.0 0 0,1 -11.730757126820373,-40.83630448921669" fill="none" id="id21" stroke="none" /><text fill="#e1ed5e" style="font-size:6.75px; font-family:Arial;" text-anchor="middle"><textPath startOffset="21.46611528233685" xlink:href="#id21">September</textPath></text><path d="M 81.69416730710424 110.29060199501025 l -32.445369958940915 18.239125989493946 a58.22052859153372,58.22052859153372 0 0,0 -0.48357303050314054,-0.8778255136448606 l 32.754519398895575 -17.677929957451262" fill="#5aff2a" stroke="none" /><path d="M 81.51974371655577 109.97397251340807 l -22.101203999661916 11.928232911105969 a46.114656251206455,46.114656251206455 0 0,0 -0.3709978813196623,-0.7017881772547758 l 22.303254389206465 -11.546029718765066" fill="#edff1a" stroke="none" /><path d="M 81.18737489456691 109.33194174019688 l -17.496302960906043 8.678984404619625 a40.530626912504374,40.530626912504374 0 0,0 -0.30464892692869733,-0.6276670235046226 l 17.643105144449457 -8.376528425149717" fill="#ffc612" stroke="none" /><path d="M 80.87730276802145 108.67885076344099 l -22.869322848132338 10.379259664686753 a46.11443725666775,46.11443725666775 0 0,0 -0.321832471550699,-0.7256472620556695 l 23.044596404414317 -9.984064066138387" fill="#edff1a" stroke="none" /><path d="M 80.58989483394504 108.01547362559985 l -38.87478843149737 16.05348547613114 a63.05904862839904,63.05904862839904 0 0,0 -0.40567202938633173,-1.0068447080158798 l 39.14536307514109 -15.381941400272456" fill="#31ff3b" stroke="none" /><path d="M 80.45479744820244 107.68017299344265 l -18.319167882794584 7.198409843178697 a40.68270855823417,40.68270855823417 0 0,0 -0.250500330390942,-0.653977316507374 l 18.440362492779034 -6.882008959838165" fill="#ffc812" stroke="none" /><path d="M 80.0844068197444 106.66101706037122 l -11.911159164458828 3.9838348617160815 a33.55972343829656,33.55972343829656 0 0,0 -0.17851815056234888,-0.5494223730727167 l 11.977969566037427 -3.7782135886655617" fill="#ff6109" stroke="none" /><path d="M 79.86692584326677 105.97154293290107 l -9.553043186742316 2.833467312810323 a30.96439517183699,30.96439517183699 0 0,0 -0.14716545869131908,-0.5123022679988735 l 9.600401282319739 -2.6686075693068534" fill="#ff3a05" stroke="none" /><path d="M 79.67330655649465 105.27499134158121 l -51.39933972146891 13.338670785157623 a74.10190450556166,74.10190450556166 0 0,0 -0.30977660975125426,-1.2374035694158787 l 51.62132764551523 -12.451939376344352" fill="#40ffc3" stroke="none" /><path d="M 79.50377843672027 104.57218783832718 l -9.804989469229527 2.1872447791281444 a31.04598716978701,31.04598716978701 0 0,0 -0.11186306966431492,-0.5225870203382282 l 9.841186577618283 -2.0181439393737524" fill="#ff3b05" stroke="none" /><path d="M 79.4281124754447 104.21870165774334 l -32.151664856805944 6.593380489209519 a53.820758969589036,53.820758969589036 0 0,0 -0.17830065756261002,-0.9091512115831406 l 32.26039544734422 -6.038965550558423" fill="#8dff24" stroke="none" /><path d="M 79.29508885075956 103.50808413554451 l -11.142516362782548 1.8879040146838084 a32.30132082827207,32.30132082827207 0 0,0 -0.0881645257947454,-0.5490005862835003 l 11.173362642938583 -1.6958241987070943" fill="#ff4e07" stroke="none" /><path d="M 79.23777060512086 103.15116336523772 l -13.752465362970968 2.087264532593181 a34.9099596257048,34.9099596257048 0 0,0 -0.08505720062959048,-0.5948898630971363 l 13.786356614617157 -1.850229197515644" fill="#ff750a" stroke="none" /><path d="M 79.18660465613746 102.79330883721812 l -9.955442652116735 1.3360927171729393 a31.04469920647043,31.04469920647043 0 0,0 -0.06652212429413053,-0.5302467823261294 l 9.976966285657715 -1.1645281805594012" fill="#ff3b05" stroke="none" /><path d="M 79.10278846688536 102.07522291339032 l -8.763511252511261 0.8702711040727372 a29.80661690250436,29.80661690250436 0 0,0 -0.04630728143136928,-0.5109969918716408 l 8.777193130219706 -0.7192927236525303" fill="#ff2803" stroke="none" /><path d="M 79.07016306316243 101.71520430193888 l -26.394717998515418 2.163052392435779 a47.48320097483641,47.48320097483641 0 0,0 -0.059746170256579266,-0.8151890245977013 l 26.428040727436333 -1.708390231341317" fill="#dbff1b" stroke="none" /><line stroke="#e1ed5e" stroke-width="0.3" x1="15.007084014347285" x2="10.007500721073583" y1="101.09737516637583" y2="101.16192664675087" /><path d="M 14.007167355692545 101.11028546245083 a86.0,86.0 0 0,1 10.666146001902534,-42.60595125391555" fill="none" id="id22" stroke="none" /><text fill="#e1ed5e" style="font-size:6.75px; font-family:Arial;" text-anchor="middle"><textPath startOffset="22.20632615414155" xlink:href="#id22">October</textPath></text><path d="M 79.00175016825051 100.2711162175752 l -13.841713766643664 0.17871551730453922 a34.84286744983922,34.84286744983922 0 0,0 -0.0025811973015810526,-0.599779349301074 l 13.842739261234748 0.05957331020021012" fill="#ff740a" stroke="none" /><path d="M 79.00486145842228 99.54816195383935 l -13.809278460449883 -0.2971905799097966 a34.81247602130162,34.81247602130162 0 0,0 0.018049946460736273,-0.5989898489784682 l 13.802116819533502 0.5348505763132592" fill="#ff740a" stroke="none" /><path d="M 79.03285615573316 98.82574320788736 l -20.05547101528657 -1.1231989074734183 a41.08689855181106,41.08689855181106 0 0,0 0.045624866270946,-0.7057964871677094 l 20.033165558011213 1.4682544588941395" fill="#ffce13" stroke="none" /><path d="M 79.05617556472873 98.46500227214037 l -13.815474214337243 -1.012552487433814 a34.852530104887904,34.852530104887904 0 0,0 0.04900185435920633,-0.5979467403280019 l 13.79599787615854 1.2502131449695943" fill="#ff750a" stroke="none" /><path d="M 79.12142395522702 97.74499172005258 l -12.49140375316526 -1.3491446366432631 a33.564050261566706,33.564050261566706 0 0,0 0.06698369039200285,-0.5738753530283137 l 12.466329709769669 1.5639637279964385" fill="#ff6109" stroke="none" /><path d="M 79.16333360222342 97.38593545837743 l -24.953699835589234 -3.1305670819525693 a46.14930586992991,46.14930586992991 0 0,0 0.10566872699666777,-0.7873547533163635 l 24.89611510953473 3.559640177333592" fill="#ecff1a" stroke="none" /><path d="M 79.26566170972629 96.67025291283419 l -29.55374859873971 -4.746064568534883 a50.932410279264374,50.932410279264374 0 0,0 0.1464625450025254,-0.8644302313742301 l 29.46767419221696 5.254080588224941" fill="#b0ff20" stroke="none" /><path d="M 79.32604984820605 96.31383870115002 l -24.203746192215466 -4.315523247655238 a45.58546462115852,45.58546462115852 0 0,0 0.14438496092899872,-0.7713102347119962 l 24.125875507376602 4.731511559829808" fill="#f4ff19" stroke="none" /><path d="M 79.46518482838121 95.60439243477599 l -46.301022537375594 -9.91102784427212 a68.3499013825425,68.3499013825425 0 0,0 0.25616766126968027,-1.148349396041353 l 46.12356048910387 10.706555409863432" fill="#38ff7f" stroke="none" /><path d="M 79.62865764111835 94.90015583598534 l -25.936013249718133 -6.492926360923576 a47.73639609255389,47.73639609255389 0 0,0 0.20641142230932477,-0.7953874106761836 l 25.820405495538502 6.938410197148623" fill="#d8ff1c" stroke="none" /><path d="M 79.81627453868168 94.20196356495316 l -21.206659218440297 -6.091887399567705 a43.06430346274431,43.06430346274431 0 0,0 0.21079792576009587,-0.7107058124007825 l 21.098655395568496 6.456022598715027" fill="#ffe915" stroke="none" /><path d="M 79.91906864156998 93.8553929516997 l -24.214424909815843 -7.409423562863349 a46.32267622600393,46.32267622600393 0 0,0 0.23987319127423437,-0.760463567599902 l 24.083296234773403 7.8251372968896655" fill="#eaff1a" stroke="none" /><path d="M 80.14247586403 93.16781622104843 l -49.70495875366603 -17.101498183004242 a73.56466650523846,73.56466650523846 0 0,0 0.4222854242123948,-1.1938577598152404 l 49.40322024864382 17.954553569246094" fill="#3fffbd" stroke="none" /><path d="M 80.52162464483688 92.15188598940014 l -23.548229729489588 -9.487916127247436 a46.387785957631266,46.387785957631266 0 0,0 0.3047861169294283,-0.7380637575625429 l 23.381421925673962 9.89185445526329" fill="#e9ff1a" stroke="none" /><path d="M 80.65960295795068 91.81776055985345 l -23.127769262818287 -9.784542965349019 a46.11236731403321,46.11236731403321 0 0,0 0.3155607416272992,-0.7283576992000835 l 22.955917811348307 10.181199809135702" fill="#edff1a" stroke="none" /><path d="M 80.95270993114464 91.15688171328213 l -18.893608674119985 -8.771768359919895 a41.830563335898375,41.830563335898375 0 0,0 0.30883267105784246,-0.650480367398414 l 18.73981780922039 9.09569114295884" fill="#ffd814" stroke="none" /><path d="M 81.10775173730289 90.83032412892265 l -36.14550582377996 -17.543839568032592 a61.17815199888837,61.17815199888837 0 0,0 0.46798369260169387,-0.9434265675330042 l 35.83816211822486 18.16342572406456" fill="#3aff2e" stroke="none" /><path d="M 81.26839172434947 90.50648371742162 l -26.882833418524548 -13.624703924241217 a51.138335880260115,51.138335880260115 0 0,0 0.40470042986613847,-0.7817524169417388 l 26.644323555498293 14.085429063443293" fill="#adff20" stroke="none" /><line stroke="#e1ed5e" stroke-width="0.3" x1="26.266209847984243" x2="21.928928074336255" y1="57.711370442889674" y2="55.22380399835377" /><path d="M 25.398753493254645 57.213857153982495 a86.0,86.0 0 0,1 29.58750427330803,-30.492523968695096" fill="none" id="id23" stroke="none" /><text fill="#e1ed5e" style="font-size:6.75px; font-family:Arial;" text-anchor="middle"><textPath startOffset="21.46611528233685" xlink:href="#id23">November</textPath></text><path d="M 81.78341655067845 89.55222093294921 l -19.264539987873878 -11.048814843991378 a43.208079844984255,43.208079844984255 0 0,0 0.37558176001979127,-0.6419909744900929 l 19.071498553383762 11.378785230835364" fill="#ffeb16" stroke="none" /><path d="M 81.96595687620814 89.24020034530311 l -21.397125941755874 -12.766343450508648 a45.91618999092171,45.91618999092171 0 0,0 0.41080603343727246,-0.6752571047973044 l 21.174204110032385 13.132768328513027" fill="#efff19" stroke="none" /><path d="M 82.34701348167596 88.62581576622439 l -10.770709519211751 -6.939790854812588 a33.81284046009233,33.81284046009233 0 0,0 0.3194562531137222,-0.4865537901259511 l 10.64965663074011 7.124162708916207" fill="#ff6509" stroke="none" /><path d="M 82.54541684631803 88.32363383020206 l -44.271555393480035 -29.61576837036761 a74.26410004050794,74.26410004050794 0 0,0 0.7199216117798345,-1.056396131625911 l 43.75520931603146 30.37344252526394" fill="#40ffc5" stroke="none" /><path d="M 83.17141714833178 87.43820079747576 l -20.40064111906359 -15.22818407225729 a46.457489039718325,46.457489039718325 0 0,0 0.4838747909410076,-0.6367225057129181 l 20.135490387898475 15.577091353851236" fill="#e8ff1a" stroke="none" /><path d="M 83.39014120810768 87.1503855733568 l -20.087174384593297 -15.539713431444634 a46.39640266432397,46.39640266432397 0 0,0 0.494112672904527,-0.6274729166611948 l 19.816707631094797 15.883178742058876" fill="#e9ff1a" stroke="none" /><path d="M 83.84228863543731 86.58626213691792 l -48.47313409368807 -40.241213589246236 a84.0,84.0 0 0,0 0.9331575460515031,-1.1045642014835364 l 47.77326593414944 41.06963674035889" fill="#4dd2ff" stroke="none" /><path d="M 84.07557802195018 86.31012108654704 l -9.528060167380486 -8.191065908158466 a33.564931009162706,33.564931009162706 0 0,0 0.3804155561251937,-0.4348807421292677 l 9.38565274767745 8.353862206490676" fill="#ff6109" stroke="none" /><path d="M 84.5562425177563 85.77008943001954 l -11.082613735994622 -10.21154356549303 a36.06983573935757,36.06983573935757 0 0,0 0.42464962313938726,-0.4529866101263676 l 10.905196790884778 10.40079959249745" fill="#ff860c" stroke="none" /><path d="M 84.80347519578584 85.50635884689758 l -8.185054094747498 -7.806471439779709 a32.31088444260833,32.31088444260833 0 0,0 0.38732401359826024,-0.3991714427550041 l 8.04946581744612 7.946207078084837" fill="#ff4e07" stroke="none" /><path d="M 85.31137513191541 84.99185889309783 l -14.099347013309226 -14.406044908308571 a41.15752256855775,41.15752256855775 0 0,0 0.5105821085956654,-0.49117958393535044 l 13.849281661101132 14.646607579006236" fill="#ffcf13" stroke="none" /><path d="M 86.37877921826538 84.01681056812374 l -10.631582554501785 -12.475137188664915 a37.39083876710393,37.39083876710393 0 0,0 0.49345662624190306,-0.41325573342473304 l 10.41526839130077 12.65629407948346" fill="#ff9a0e" stroke="none" /><path d="M 86.65592168130627 83.78471172551755 l -8.916703856799854 -10.835287386888847 a35.03250014880962,35.03250014880962 0 0,0 0.46892936817233405,-0.37917493721036827 l 8.72887109006302 10.98716842136335" fill="#ff770b" stroke="none" /><path d="M 87.22198572758235 83.33499621200491 l -9.170776917986931 -11.960468099257637 a36.071693548929446,36.071693548929446 0 0,0 0.49599239298581194,-0.37357118739623085 l 8.963538371242729 12.116555876159723" fill="#ff860c" stroke="none" /><path d="M 87.51073957382395 83.11751280151077 l -8.213348648489095 -11.102479144739991 a34.81029106069181,34.81029106069181 0 0,0 0.484782507608924,-0.3522151086109668 l 8.02102082452639 11.242213488167627" fill="#ff740a" stroke="none" /><line stroke="#e1ed5e" stroke-width="0.3" x1="56.762969772571076" x2="54.21961505331055" y1="26.818313649435495" y2="22.513508569990535" /><path d="M 56.25429882871897 25.957352633546506 a86.0,86.0 0 0,1 42.265352541879196,-11.944610805530505" fill="none" id="id24" stroke="none" /><text fill="#e1ed5e" style="font-size:6.75px; font-family:Arial;" text-anchor="middle"><textPath startOffset="22.20632615414155" xlink:href="#id24">December</textPath></text><path d="M 89.63071344664047 81.73862282372117 l -5.052224254791645 -8.89748510865515 a31.231823453297324,31.231823453297324 0 0,0 0.46978003253577827,-0.261432079486113 l 4.898320133183821 8.98313258570145" fill="#ff3e05" stroke="none" /><path d="M 89.94658935756843 81.56283822128135 l -6.011664030957032 -11.024917437496693 a33.557424454270915,33.557424454270915 0 0,0 0.5095214768093553,-0.27216872706536943 l 5.820997507619372 11.12676489106381" fill="#ff6109" stroke="none" /><path d="M 90.58718382345135 81.22770947309562 l -6.253245319022414 -12.471053897467675 a34.950995030227034,34.950995030227034 0 0,0 0.540123911137356,-0.26503645746270804 l 6.037650140874632 12.576845515065212" fill="#ff760a" stroke="none" /><path d="M 90.91171255644093 81.06846463323043 l -6.0201247947718635 -12.540338999220516 a34.910499802666976,34.910499802666976 0 0,0 0.5439750566596835,-0.255403583010893 l 5.803371526812572 12.642107564871417" fill="#ff750a" stroke="none" /><path d="M 91.56875222667455 80.76684994638697 l -4.537424571145237 -10.350658642708407 a32.301520078144655,32.301520078144655 0 0,0 0.51115808428714,-0.21885121543990294 l 4.3585827290677885 10.427229386111096" fill="#ff4e07" stroke="none" /><path d="M 91.90106846888425 80.62456947434976 l -10.217469569466104 -24.443702361299344 a47.49323063597109,47.49323063597109 0 0,0 0.7569881132961344,-0.3087944582530707 l 9.79519758658159 24.615957705735994" fill="#dbff1b" stroke="none" /><path d="M 92.91201910852362 80.23233633223022 l -4.25800101750006 -11.875135288835477 a33.615443345090064,33.615443345090064 0 0,0 0.5463597978604912,-0.1906142054176782 l 4.052959215576284 11.946670347425364" fill="#ff6209" stroke="none" /><path d="M 93.59665428221793 80.00007090966166 l -4.275970874910209 -13.355379837304394 a35.02319854818283,35.02319854818283 0 0,0 0.5757390682518612,-0.17888493106002992 l 4.045446433947619 13.427004903246948" fill="#ff770b" stroke="none" /><path d="M 94.28887869178378 79.79150937346287 l -6.146033110535048 -21.747402270365487 a43.59918645670439,43.59918645670439 0 0,0 0.7239584926467291,-0.1978852037308478 l 5.770776728664597 21.84997401492263" fill="#fff016" stroke="none" /><path d="M 94.63758080256005 79.69619591428918 l -3.713509016762165 -14.060512013468706 a35.54263206226685,35.54263206226685 0 0,0 0.592869908769125,-0.1511357405444252 l 3.4709302193080407 14.122350750181994" fill="#ff7f0b" stroke="none" /><path d="M 95.692805502759 79.44645832069477 l -2.7828032834281053 -13.279284998131493 a34.567733936654946,34.567733936654946 0 0,0 0.5834269550358729,-0.11702995858436742 l 2.5538099189250962 13.32521891279307" fill="#ff700a" stroke="none" /><path d="M 96.04723909329186 79.375362276772 l -2.600150850501438 -13.56701570953252 a34.813931363231305,34.813931363231305 0 0,0 0.5895239926835263,-0.10773174152038546 l 2.3662317367150183 13.60976293240364" fill="#ff740a" stroke="none" /><path d="M 96.75951476605007 79.25152402106235 l -3.710737437095033 -23.759449903082267 a45.047474545659355,45.047474545659355 0 0,0 0.7671606786132689,-0.1130595420559332 l 3.3012077780531155 23.81980392929917" fill="#fbff18" stroke="none" /><path d="M 97.11714578562143 79.19881850522333 l -1.5518086147250303 -11.197046482286837 a32.3040682899223,32.3040682899223 0 0,0 0.5514539376768333,-0.07159454794443917 l 1.3588399485403393 11.222099353395413" fill="#ff4e07" stroke="none" /><path d="M 97.83486435360386 79.11191278185805 l -1.3593195284738453 -13.113998153116281 a34.184259446037444,34.184259446037444 0 0,0 0.5858121916027197,-0.05562992632000598 l 1.1333822097808894 13.135453623951468" fill="#ff6b09" stroke="none" /><path d="M 98.55514903715128 79.0497635885617 l -0.9203403298334871 -13.344869460429972 a34.37656784226188,34.37656784226188 0 0,0 0.5906843003870228,-0.03563169008819693 l 0.6904939806068413 13.358734419898477" fill="#ff6e0a" stroke="none" /><path d="M 98.91598698831166 79.02799685794201 l -0.6676433300263847 -12.916651243216842 a33.933894500691736,33.933894500691736 0 0,0 0.5835970043646819,-0.025130914636855253 l 0.4452054932723787 12.92622988437789" fill="#ff6709" stroke="none" /><path d="M 99.63851952072746 79.00311137660856 l -0.45608948879225925 -26.492330146686463 a47.49625585290909,47.49625585290909 0 0,0 0.8175699680647884,-0.00703708283118422 l 6.489710983930888e-15 26.496255852909087" fill="#dbff1b" stroke="none" /></svg>