<?xml version="1.0" encoding="utf-8" ?>
<svg baseProfile="full" height="200mm" version="1.1" viewBox="0,0,200,200" width="200mm" xmlns="http://www.w3.org/2000/svg" xmlns:ev="http://www.w3.org/2001/xml-events" xmlns:xlink="http://www.w3.org/1999/xlink"><defs /><rect fill="#1a1a1a" height="200" width="200" x="0" y="0" /><text alignment-baseline="middle" fill="#e1ed5e" style="dominant-baseline: central; font-size:9.0px; font-family:Arial;" text-anchor="middle" x="100.0" y="100.0">2024</text><line stroke="#e1ed5e" stroke-width="0.3" x1="100.0" x2="100.0" y1="15.0" y2="10.0" /><path d="M 100.0 14.0 a86.0,86.0 0 0,1 42.35913384403234,11.155469271406648" fill="none" id="id25" stroke="none" /><text fill="#e1ed5e" style="font-size:6.75px; font-family:Arial;" text-anchor="middle"><textPath startOffset="22.145653131862478" xlink:href="#id25">January</textPath></text><path d="M 100.72087961077811 79.0123766808444 l 0.5171958121714141 -15.05759176123997 a36.066471423538076,36.066471423538076 0 0,0 0.6185816148945,0.026564556136442836 l -0.7756031876667504 15.046494636677695" fill="#ff810b" stroke="none" /><path d="M 101.08105385017728 79.02784411241856 l 0.7819232338567662 -15.169101844350088 a36.18924141318158,36.18924141318158 0 0,0 0.6201382340273895,0.03730597622000661 l -1.042205820016618 15.15344389030539" fill="#ff820c" stroke="none" /><path d="M 101.80034050326958 79.07731436759882 l 1.2819706098238237 -14.898441717336159 a35.953495051302035,35.953495051302035 0 0,0 0.6144630986546227,0.058190294297467686 l -1.5375332718634593 14.874239667533507" fill="#ff7f0b" stroke="none" /><path d="M 102.15924093988457 79.11130261209362 l 2.2695136681592083 -21.95548600260859 a43.072472854229616,43.072472854229616 0 0,0 0.7348247929973682,0.08233865075319954 l -2.6460743627573735 21.913291591348422" fill="#ffe415" stroke="none" /><path d="M 102.87502721639298 79.19773525538626 l 1.672181592374092 -12.099073006090437 a33.2140803536157,33.2140803536157 0 0,0 0.5641251715458974,0.08290697350005767 l -1.8796318695276713 12.068584959291496" fill="#ff5607" stroke="none" /><path d="M 103.23170211078529 79.25015418208739 l 2.113328432262498 -13.569084534651633 a34.73266952093187,34.73266952093187 0 0,0 0.5883424727437333,0.09681152999941332 l -2.345948408059302 13.530807006156552" fill="#ff6d0a" stroke="none" /><path d="M 103.94208987418118 79.37332000966035 l 2.5258020910354775 -13.216063842669545 a34.45525992675714,34.45525992675714 0 0,0 0.580002641716811,0.1160167722647147 l -2.752301218283246 13.17075767374197" fill="#ff6909" stroke="none" /><path d="M 104.29559338865022 79.4440306129975 l 5.8075197149786035 -27.791084181975073 a49.39140090325749,49.39140090325749 0 0,0 0.8284527473313779,0.1805574203845716 l -6.283734878929115 27.687295303456782" fill="#c6ff1e" stroke="none" /><path d="M 105.3480935250658 79.69241777938227 l 3.483411491713908 -13.227080817617985 a34.67807817554799,34.67807817554799 0 0,0 0.5743657413950621,0.1565459369082267 l -3.709958634043663 13.165334386565616" fill="#ff6c09" stroke="none" /><path d="M 105.69591212413111 79.78721728523813 l 4.056008055272358 -14.39334170258995 a35.953912087208124,35.953912087208124 0 0,0 0.5926231754618619,0.17250396939424806 l -4.302491243115824 14.321594038893187" fill="#ff7f0b" stroke="none" /><path d="M 107.74402155503746 80.48000691201159 l 5.008820342719247 -12.62549926727088 a34.58276529185039,34.58276529185039 0 0,0 0.54994096137674,0.2236562013981232 l -5.224815765286427 12.537655809293463" fill="#ff6a09" stroke="none" /><path d="M 108.73861861582097 80.90454125486305 l 6.001816237225821 -13.115051633715426 a35.423119548157715,35.423119548157715 0 0,0 0.550764205826305,0.25778545804176 l -6.226069156923631 13.010089944103132" fill="#ff770b" stroke="none" /><path d="M 109.06512990194946 81.05736502329252 l 10.5888529869259 -22.126630188743476 a45.52980984614727,45.52980984614727 0 0,0 0.7021124891296103,0.3434384017388003 l -10.967125725317578 21.941598036907454" fill="#f8ff18" stroke="none" /><path d="M 109.3889696526874 81.21577127319529 l 6.024418278303683 -12.0528721544231 a34.47461846446226,34.47461846446226 0 0,0 0.527088644321393,0.26913521744578495 l -6.230434144338655 11.947678985304481" fill="#ff6909" stroke="none" /><path d="M 110.34350942703115 81.72400993836675 l 7.7680848005161405 -13.725461519002664 a36.77122174651136,36.77122174651136 0 0,0 0.5466786854874476,0.31562508622640867 l -8.002555953863986 13.590089535500082" fill="#ff8b0c" stroke="none" /><line stroke="#e1ed5e" stroke-width="0.3" x1="143.13028292997686" x2="145.6673583964461" y1="26.7553504044142" y2="22.446841604673864" /><path d="M 143.63769802327073 25.89364864446614 a86.0,86.0 0 0,1 29.32050498858742,28.57503671076993" fill="none" id="id26" stroke="none" /><text fill="#e1ed5e" style="font-size:6.75px; font-family:Arial;" text-anchor="middle"><textPath startOffset="20.669276256404974" xlink:href="#id26">February</textPath></text><path d="M 110.65571695917076 81.90426304109057 l 7.0887816646577395 -12.038301022287033 a34.97037998740137,34.97037998740137 0 0,0 0.5146761402307243,0.30904823436192896 l -7.294390561445898 11.914838787389183" fill="#ff700a" stroke="none" /><path d="M 111.27062007382361 82.28071324371311 l 13.045462657635921 -20.509634091557366 a45.30697814458526,45.30697814458526 0 0,0 0.6526672308454665,0.42305101373225373 l -13.395615520738394 20.282669236121215" fill="#fbff18" stroke="none" /><path d="M 111.8722381534696 82.67804972795209 l 9.154386595088697 -13.356523624392308 a37.192575992141876,37.192575992141876 0 0,0 0.5235384778652417,0.3654705175971552 l -9.3823201641277 13.197408290990026" fill="#ff910d" stroke="none" /><path d="M 112.16784306229584 82.88440491214696 l 8.680435647491471 -12.210119818935022 a35.98122121267123,35.98122121267123 0 0,0 0.5003428506683336,0.362209638543498 l -8.888759508533772 12.059309409018448" fill="#ff7f0b" stroke="none" /><path d="M 112.7482090630111 83.31218511350987 l 6.555580141884608 -8.581464842676603 a31.798942996551393,31.798942996551393 0 0,0 0.4309363308538025,0.3350986973670115 l -6.701926417373636 8.4676650936888" fill="#ff4006" stroke="none" /><path d="M 113.03279911837588 83.53348406188908 l 17.627102578334718 -22.271268275716043 a49.40288956983163,49.40288956983163 0 0,0 0.6604677709025911,0.5320260841787265 l -18.00682111959257 21.96539389774391" fill="#c6ff1e" stroke="none" /><path d="M 113.86319453409587 84.22622945171908 l 10.419877836679603 -11.855908227549167 a36.784055690201896,36.784055690201896 0 0,0 0.4707220104397079,0.4209225243511405 l -10.621864873942688 11.67529017331464" fill="#ff8b0c" stroke="none" /><path d="M 114.13192950727249 84.46653392183569 l 8.5541801575682 -9.402542464969976 a33.71148311463683,33.71148311463683 0 0,0 0.4247168950945179,0.393111617444412 l -8.714326823976684 9.254313101393189" fill="#ff5d08" stroke="none" /><path d="M 114.39649973595853 84.71141617570332 l 6.458951540606832 -6.85918270807116 a30.42159447368702,30.42159447368702 0 0,0 0.3771227650165953,0.36127507802382575 l -6.57574679148874 6.747295499741753" fill="#ff2b04" stroke="none" /><path d="M 114.91283532996326 85.21462403516908 l 15.287948205232226 -15.157282766413914 a42.528227544015124,42.528227544015124 0 0,0 0.5095553987493238,0.522848728497349 l -15.545890405132361 14.892611345848822" fill="#ffdd14" stroke="none" /><path d="M 115.16444852881244 85.47280134310134 l 9.719394563937957 -9.3109601306527 a34.45959171907197,34.45959171907197 0 0,0 0.4055470031047106,0.43067686349982887 l -9.877797400778928 9.142741807208377" fill="#ff6909" stroke="none" /><path d="M 115.8921839302757 86.27271002978787 l 7.950048849318616 -6.8670628474191435 a31.50522864372578,31.50522864372578 0 0,0 0.3500162438348893,0.4123182551341758 l -8.066759656660619 6.7295778098354155" fill="#ff3b05" stroke="none" /><path d="M 116.35404254752997 86.82634096563983 l 12.997176304175571 -10.469605208807206 a37.689494453401096,37.689494453401096 0 0,0 0.40154310101783713,0.5073365907578498 l -13.174985835834969 10.244948674134678" fill="#ff980e" stroke="none" /><path d="M 117.01052211995028 87.68569379921539 l 21.378728887234832 -15.476551033798508 a47.39268233309488,47.39268233309488 0 0,0 0.47141027521663803,0.663097588418354 l -21.64125426098143 15.10727621867065" fill="#e0ff1b" stroke="none" /><path d="M 117.42321728460499 88.27688183743584 l 12.39619096318495 -8.34071050445617 a35.94098397411943,35.94098397411943 0 0,0 0.34002834079997296,0.5148462462718357 l -12.537543742905648 8.126684379845276" fill="#ff7f0b" stroke="none" /><line stroke="#e1ed5e" stroke-width="0.3" x1="172.87174338648825" x2="177.1583165268699" y1="56.24261187166439" y2="53.66864786411523" /><path d="M 173.72905801456457 55.72781907015455 a86.0,86.0 0 0,1 12.242430191666344,42.057860355516425" fill="none" id="id27" stroke="none" /><text fill="#e1ed5e" style="font-size:6.75px; font-family:Arial;" text-anchor="middle"><textPath startOffset="22.145653131862474" xlink:href="#id27">March</textPath></text><path d="M 118.00360718960297 89.18935116829356 l 10.662265900200183 -6.4023843212880305 a33.43681788577956,33.43681788577956 0 0,0 0.29126062099582284,0.4946242101046922 l -10.770600231325773 6.218408942889782" fill="#ff5908" stroke="none" /><path d="M 118.18653347947321 89.5 l 11.991123792067112 -6.923078549236076 a34.84615709847215,34.84615709847215 0 0,0 0.2946435646624853,0.5206069465575331 l -12.108200721750974 6.716214832579424" fill="#ff6e0a" stroke="none" /><path d="M 118.36410011445183 89.81374322990088 l 18.93967890406525 -10.505520622173808 a42.658194766231404,42.658194766231404 0 0,0 0.34970507647720217,0.6434179526144177 l -19.117229330157794 10.178847836084786" fill="#ffdf14" stroke="none" /><path d="M 118.70294669586156 90.45014215332178 l 12.998085676671781 -6.636915161535821 a35.59448094724592,35.59448094724592 0 0,0 0.2731962632504891,0.5465755334225305 l -13.110101853134006 6.412807771949541" fill="#ff7a0b" stroke="none" /><path d="M 119.0197475246899 91.09779779509293 l 8.878606024970786 -4.155635926785775 a30.80300744173135,30.80300744173135 0 0,0 0.220044268830722,0.48083643906298146 l -8.948634758656558 4.00261050550811" fill="#ff3004" stroke="none" /><path d="M 119.4528033332814 92.08871423366111 l 26.547372241374326 -10.796585178423069 a49.65884199399963,49.65884199399963 0 0,0 0.31436725020619877,0.7924108304067411 l -26.728798166546646 10.339273330802763" fill="#c3ff1e" stroke="none" /><path d="M 119.83427380445688 93.10060997987247 l 13.211175214858882 -4.595532527693136 a34.98763989280491,34.98763989280491 0 0,0 0.1924563082092983,0.5689628779759 l -13.288116944640544 4.368067975243074" fill="#ff710a" stroke="none" /><path d="M 120.05942366710727 93.78553927170692 l 12.854702179056442 -3.9824195944693246 a34.457452728456886,34.457452728456886 0 0,0 0.1701930381093619,0.5665172715803042 l -12.921171537169432 3.761164719298297" fill="#ff6909" stroke="none" /><path d="M 120.26092885502905 94.47779374421319 l 27.387590142547612 -7.46460948055507 a49.38662516949424,49.38662516949424 0 0,0 0.21591484276730674,0.8198638265389873 l -27.51169446611965 6.993365149643284" fill="#c6ff1e" stroke="none" /><path d="M 120.43855184770803 95.1765574152323 l 11.050618128220579 -2.6079157889868987 a32.354179220806955,32.354179220806955 0 0,0 0.12292914690652566,0.5416485032199577 l -11.093758136684771 2.417832951827915" fill="#ff4906" stroke="none" /><path d="M 120.77682067341334 96.94652285012252 l 55.55440733680244 -8.164584757425441 a77.15115865950187,77.15115865950187 0 0,0 0.18132536828405788,1.3119800377723012 l -55.68637722164171 7.209716411453053" fill="#44ffe4" stroke="none" /><path d="M 120.9064616781168 98.02013634271609 l 13.438090799157909 -1.2726011702105808 a34.49821462508408,34.49821462508408 0 0,0 0.050772135117007865,0.5900491712593962 l -13.457956556972658 1.0417309515755229" fill="#ff6909" stroke="none" /><path d="M 120.93736805541906 98.37931529534042 l 13.439742180133255 -1.0403210436123829 a34.47994576184325,34.47994576184325 0 0,0 0.040614156066255694,0.5905209156213724 l -13.455620297364577 0.8094567038366763" fill="#ff6909" stroke="none" /><line stroke="#e1ed5e" stroke-width="0.3" x1="184.99686870605535" x2="189.99668451229388" y1="99.2704041080226" y2="99.22748670261217" /><path d="M 185.99683186730306 99.26182062694052 a86.0,86.0 0 0,1 -10.086455211305974,41.156179273409016" fill="none" id="id28" stroke="none" /><text fill="#e1ed5e" style="font-size:6.75px; font-family:Arial;" text-anchor="middle"><textPath startOffset="21.40746469413373" xlink:href="#id28">April</textPath></text><path d="M 120.99922638620191 99.81974689727618 l 16.63508398320151 -0.1427921889548174 a37.63569682151589,37.63569682151589 0 0,0 0.0,0.6460905833572865 l -16.63508398320151 -0.14279218895481538" fill="#ff980e" stroke="none" /><path d="M 120.99922638620191 100.18025310272382 l 13.721993706182035 0.11778681250473837 a34.72249922593182,34.72249922593182 0 0,0 -0.010232502929755428,0.595991996726127 l -13.717949771653611 -0.3533257251999365" fill="#ff6d0a" stroke="none" /><path d="M 120.96210409425399 101.26102812881392 l 16.28621270318629 0.9797381139899012 a37.31565539552215,37.31565539552215 0 0,0 -0.043954357191173674,0.6390867069042855 l -16.266994384830053 -1.25916824504853" fill="#ff930d" stroke="none" /><path d="M 120.93736805541906 101.62068470465957 l 21.542323217456353 1.667512060205098 a42.606764822071085,42.606764822071085 0 0,0 -0.06270574996283589,0.7287358649287229 l -21.510523844795777 -2.0370689725094784" fill="#ffde14" stroke="none" /><path d="M 120.82617615685814 102.69636545807757 l 13.651472752208608 1.7674564597793923 a34.765413565945266,34.765413565945266 0 0,0 -0.08170779970025153,0.5911969359361157 l -13.619120435953146 -2.001541703915593" fill="#ff6d0a" stroke="none" /><path d="M 120.7213421655516 103.40968896794604 l 13.776558708381982 2.2669274928688234 a34.96182402494101,34.96182402494101 0 0,0 -0.10253001492287518,0.5913658797839721 l -13.735613875966871 -2.5030864055733835" fill="#ff700a" stroke="none" /><path d="M 120.65975698304385 103.76489593502545 l 15.887858469073459 2.8952970654769765 a37.14951367164562,37.14951367164562 0 0,0 -0.11971644428927977,0.6264070238756918 l -15.83581573250202 -3.167606654385983" fill="#ff900d" stroke="none" /><path d="M 120.51834098615036 104.47187691870673 l 19.717639132610692 4.297367676462109 a41.18050202325408,41.18050202325408 0 0,0 -0.1564646084313483,0.6894119344062372 l -19.64096366262168 -4.635213944807362" fill="#ffca12" stroke="none" /><path d="M 120.35273937422433 105.17358676015961 l 13.27998805668284 3.3757210330194445 a34.70232006918568,34.70232006918568 0 0,0 -0.15171609632535074,0.5760907295053839 l -13.220082479552758 -3.6031922668976315" fill="#ff6c0a" stroke="none" /><path d="M 120.16314734710363 105.8691983318838 l 14.21622335979484 4.138135430577057 a35.80625447091106,35.80625447091106 0 0,0 -0.1768550705052087,0.588693010717482 l -14.143091969286 -4.381566044885262" fill="#ff7d0b" stroke="none" /><path d="M 119.83427380445688 106.89939002012753 l 27.020828322162338 9.399246733178341 a49.60893221298086,49.60893221298086 0 0,0 -0.2866919798889954,0.801928492265498 l -26.855496172229397 -9.86171018182476" fill="#c4ff1e" stroke="none" /><path d="M 119.4528033332814 107.91128576633889 l 12.463493612356086 5.068794349326082 a34.45478907976639,34.45478907976639 0 0,0 -0.22752327511000597,0.5459730333239965 l -12.374644492709594 -5.281999892091356" fill="#ff6909" stroke="none" /><line stroke="#e1ed5e" stroke-width="0.3" x1="174.33088141563837" x2="178.70328620479359" y1="141.23008692659167" y2="143.65538615756765" /><path d="M 175.20536237346943 141.71514677278685 a86.0,86.0 0 0,1 -30.301960400862466,31.631185727798858" fill="none" id="id29" stroke="none" /><text fill="#e1ed5e" style="font-size:6.75px; font-family:Arial;" text-anchor="middle"><textPath startOffset="22.145653131862474" xlink:href="#id29">May</textPath></text><path d="M 117.21940702142032 112.02048342749411 l 11.034422373239988 7.702883792949623 a34.45707605086429,34.45707605086429 0 0,0 -0.3427410921824019,0.4821082687974513 l -10.900566182527625 -7.891169288456578" fill="#ff6909" stroke="none" /><path d="M 116.79662413953412 112.60449989151573 l 12.917660421302454 9.693653202354744 a37.15032083791546,37.15032083791546 0 0,0 -0.38715591695385615,0.5067995231644965 l -12.749352526994294 -9.913973638760119" fill="#ff910d" stroke="none" /><path d="M 116.35404254752997 113.17365903436017 l 10.479152085606723 8.441263139910161 a34.4561343568828,34.4561343568828 0 0,0 -0.37500281447651285,0.45744245905662345 l -10.332702451891583 -8.619907880665277" fill="#ff6909" stroke="none" /><path d="M 116.1254893667686 113.45245675266167 l 15.499415232034643 12.930163442368396 a41.18467238231494,41.18467238231494 0 0,0 -0.4575527603320226,0.5389960011710713 l -15.275167908195504 -13.194326225989025" fill="#ffca12" stroke="none" /><path d="M 115.6541949942343 113.99807769240083 l 10.275299874371767 9.188236508306499 a34.784247445575,34.784247445575 0 0,0 -0.40184468594197437,0.4416977026780425 l -10.116057487587913 -9.363271786542212" fill="#ff6d0a" stroke="none" /><path d="M 115.16444852881244 114.52719865689866 l 9.856203435484021 9.442019934851952 a34.64904709537588,34.64904709537588 0 0,0 -0.41515036079732665,0.4259808429286824 l -9.692666273535888 -9.60982346984837" fill="#ff6b09" stroke="none" /><path d="M 114.91283532996324 114.78537596483092 l 15.767886079890847 15.633118632604436 a43.20406786175676,43.20406786175676 0 0,0 -0.5266947836125259,0.5221931458453002 l -15.497199376148355 -15.901491788678397" fill="#ffe615" stroke="none" /><path d="M 114.39649973595853 115.28858382429668 l 9.490060234226851 10.078115100867722 a34.84303605556208,34.84303605556208 0 0,0 -0.43897285796836877,0.4063067238512764 l -9.315657604944514 -10.239539570851377" fill="#ff6e0a" stroke="none" /><path d="M 113.59037401385872 116.0094264158162 l 8.704363143072968 10.253717895730153 a34.45008060985896,34.45008060985896 0 0,0 -0.4541269763333617,0.37884887524289784 l -8.527061832577711 -10.40162895488492" fill="#ff6809" stroke="none" /><path d="M 113.31354834802062 116.24036423190432 l 11.940274620532902 14.565193575553998 a39.833879629728486,39.833879629728486 0 0,0 -0.5325395723718034,0.42897618300434676 l -11.688484277805845 -14.76801805235175" fill="#ffb711" stroke="none" /><path d="M 112.45986205192187 116.90419585922612 l 12.939360741664105 17.554727922251224 a42.808152806397544,42.808152806397544 0 0,0 -0.5952758823943335,0.4309338324864708 l -12.636103848895804 -17.77426252611077" fill="#ffe115" stroke="none" /><path d="M 111.8722381534696 117.32195027204791 l 7.683788688856838 11.210877329849145 a34.59133470708193,34.59133470708193 0 0,0 -0.4926855528841506,0.3315008278380693 l -7.490206847875684 -11.341127831744336" fill="#ff6b09" stroke="none" /><path d="M 111.27062007382361 117.71928675628689 l 6.234947312724261 9.802372772824834 a32.617275066463094,32.617275066463094 0 0,0 -0.4750253684027262,0.2964509626076444 l -6.0657578155318195 -9.907959532274026" fill="#ff4d07" stroke="none" /><line stroke="#e1ed5e" stroke-width="0.3" x1="143.1302829299769" x2="145.66735839644613" y1="173.24464959558577" y2="177.55315839532614" /><path d="M 143.63769802327073 174.10635135553383 a86.0,86.0 0 0,1 -40.68552437913181,11.842963189579606" fill="none" id="id30" stroke="none" /><text fill="#e1ed5e" style="font-size:6.75px; font-family:Arial;" text-anchor="middle"><textPath startOffset="21.407464694133747" xlink:href="#id30">June</textPath></text><path d="M 110.65571695917076 118.09573695890943 l 7.091812470433814 12.043447993092228 a34.97635301779823,34.97635301779823 0 0,0 -0.519994326615728,0.3002188644486699 l -6.8840256759576866 -12.16341375481707" fill="#ff700a" stroke="none" /><path d="M 110.34350942703117 118.27599006163325 l 10.603739892367388 18.735792359080783 a42.52833516618443,42.52833516618443 0 0,0 -0.6384430871040567,0.35413361819013245 l -10.280552617107237 -18.91505889270406" fill="#ffdd14" stroke="none" /><path d="M 109.71004243097381 118.62028667847754 l 5.756108923255293 11.038097831752445 a33.44879085211561,33.44879085211561 0 0,0 -0.5114045813909557,0.26112682316013 l -5.565777120150755 -11.135282606585411" fill="#ff5908" stroke="none" /><path d="M 109.06512990194946 118.94263497670748 l 4.781006478881905 9.990464729165927 a32.075531971685116,32.075531971685116 0 0,0 -0.4987153903490728,0.2334239842996549 l -4.608802374661327 -10.071064945036117" fill="#ff4406" stroke="none" /><path d="M 108.73861861582097 119.09545874513695 l 9.587466611963857 20.950344809382006 a44.039888534181785,44.039888534181785 0 0,0 -0.6901398598253036,0.30869078107523096 l -9.226413349282927 -21.111839341367087" fill="#fff216" stroke="none" /><path d="M 107.74402155503746 119.51999308798841 l 3.970790232700754 10.00898529856889 a31.76786709516234,31.76786709516234 0 0,0 -0.5086303847053661,0.19674915942917495 l -3.7983875855018585 -10.075674346136106" fill="#ff3f06" stroke="none" /><path d="M 107.06938296918513 119.77432235084164 l 4.5311045635806515 12.674305895743748 a34.459901132808746,34.459901132808746 0 0,0 -0.558733211029552,0.1943564144619654 l -4.312865580506077 -12.750220742774305" fill="#ff6909" stroke="none" /><path d="M 106.72888874123015 119.89276391827305 l 4.028841400222083 11.910553721554153 a33.57349804080674,33.57349804080674 0 0,0 -0.547531414124031,0.17998445117833978 l -3.823787248450318 -11.977959094134512" fill="#ff5b08" stroke="none" /><path d="M 105.69591212413111 120.21278271476187 l 7.796894322694352 27.66842734931101 a49.74601595114295,49.74601595114295 0 0,0 -0.8239328370098501,0.22456655859361804 l -7.320780084749807 -27.79819440204877" fill="#c2ff1e" stroke="none" /><path d="M 104.9986988182912 120.39639698878246 l 3.1138262868684072 12.705473846248958 a34.081474679962845,34.081474679962845 0 0,0 -0.5694330294441622,0.13438464446306944 l -2.895261103684366 -12.757054634358253" fill="#ff6309" stroke="none" /><path d="M 104.29559338865022 120.5559693870025 l 3.302700922512887 15.804619505416614 a37.14601595114296,37.14601595114296 0 0,0 -0.625297485107243,0.12507700949887096 l -3.030906951874685 -15.858985911578346" fill="#ff900d" stroke="none" /><path d="M 103.58742460773223 120.69131181640829 l 4.9885812474244995 28.772810971265926 a50.20206489360566,50.20206489360566 0 0,0 -0.8503811369450051,0.13992989247632148 l -4.493922607426422 -28.854206862237916" fill="#bcff1f" stroke="none" /><path d="M 103.2317021107853 120.74984581791261 l 2.071020706953564 13.297438588653922 a34.457748689422495,34.457748689422495 0 0,0 -0.5852482797522229,0.08601134299220801 l -1.8424473215936557 -13.331031004945013" fill="#ff6909" stroke="none" /><path d="M 102.51750503828377 120.84855314841334 l 1.6319741664452596 13.515087210775398 a34.61326272407939,34.61326272407939 0 0,0 -0.5905090172617602,0.06616776706812293 l -1.3997292475827 -13.541110738350492" fill="#ff6b09" stroke="none" /><path d="M 101.80034050326958 120.92268563240118 l 1.1688825231827888 13.584186729869597 a34.63438357480702,34.63438357480702 0 0,0 -0.5927938716015689,0.04588599475242703 l -0.9355196568059841 -13.602250491617077" fill="#ff6b09" stroke="none" /><path d="M 101.08105385017728 120.97215588758144 l 1.0386593552252614 20.14971401129263 a41.17646619190485,41.17646619190485 0 0,0 -0.7062239234197613,0.030328293966160696 l -0.6926096712046707 -20.16457487368462" fill="#ffca12" stroke="none" /><line stroke="#e1ed5e" stroke-width="0.3" x1="101.45913802915013" x2="101.54496967792366" y1="184.9874750549273" y2="189.98673829345242" /><path d="M 101.47630435890484 185.9873277026323 a86.0,86.0 0 0,1 -42.54439059252881,-10.42667462771756" fill="none" id="id31" stroke="none" /><text fill="#e1ed5e" style="font-size:6.75px; font-family:Arial;" text-anchor="middle"><textPath startOffset="22.145653131862474" xlink:href="#id31">July</textPath></text><path d="M 100.0 121.0 l 1.6746893631603418e-15 13.674876416010932 a34.67487641601093,34.67487641601093 0 0,0 -0.595240362760965,-0.005109422617807519 l 0.23474743791211117 -13.67286139158756" fill="#ff6c09" stroke="none" /><path d="M 99.27912038922189 120.98762331915562 l -0.3742207274707965 10.895028169682844 a31.90145311282177,31.90145311282177 0 0,0 -0.5471467433637422,-0.023496835387581343 l 0.5611932314353775 -10.886998765869434" fill="#ff4206" stroke="none" /><path d="M 98.55909050195518 120.95050786540614 l -1.5694576833488731 22.819570267278415 a43.87347775488196,43.87347775488196 0 0,0 -0.7509280101020733,-0.05812657718255507 l 1.9609546882261826 -22.789265923100807" fill="#ffef16" stroke="none" /><path d="M 97.48249496171623 120.84855314841334 l -1.6667447168079943 13.803037247106287 a34.90330447037721,34.90330447037721 0 0,0 -0.5942240684503831,-0.07693420244120514 l 1.9034466071491716 -13.772391448464685" fill="#ff6f0a" stroke="none" /><path d="M 97.12497278360702 120.80226474461374 l -1.1327965149088717 8.196351279927907 a29.27426143218629,29.27426143218629 0 0,0 -0.4972092430827651,-0.07307263639252984 l 1.2733308635993217 -8.175697570236494" fill="#ff1802" stroke="none" /><path d="M 96.41257539226777 120.69131181640829 l -2.3145650977530754 13.349796412100412 a34.548958477915036,34.548958477915036 0 0,0 -0.5834912173382476,-0.10633153691414592 l 2.54339104864238 -13.3080967012549" fill="#ff6a09" stroke="none" /><path d="M 96.05791012581884 120.62667999033965 l -4.7981868244467005 25.106140986266524 a46.56053426719766,46.56053426719766 0 0,0 -0.7837767856671728,-0.15677730808252663 l 5.228460095644832 -25.020074281521136" fill="#ebff1a" stroke="none" /><path d="M 95.70440661134978 120.55596938700252 l -2.7527002281430684 13.172667080364436 a34.457210578575925,34.457210578575925 0 0,0 -0.5779583135353863,-0.12596332442365119 l 2.9784209582975913 -13.123472297807066" fill="#ff6909" stroke="none" /><path d="M 95.00130118170881 120.39639698878247 l -3.310762030021839 13.509038882802137 a34.90882010655449,34.90882010655449 0 0,0 -0.5808074745227433,-0.14763898879372123 l 3.5421747977699614 -13.450214662173154" fill="#ff6f0a" stroke="none" /><path d="M 94.30408787586889 120.21278271476187 l -3.6493950593842053 12.950415625822329 a34.45478907976639,34.45478907976639 0 0,0 -0.5679133459745089,-0.1653112981553942 l 3.871168417740321 -12.885860633364418" fill="#ff6909" stroke="none" /><path d="M 93.27111125876986 119.89276391827306 l -8.256616112329207 24.409218431563467 a46.767841470836316,46.767841470836316 0 0,0 -0.7582942892730107,-0.26377411662807293 l 8.674416173647238 -24.263885882366804" fill="#e8ff1a" stroke="none" /><path d="M 92.59220618246901 119.65005319985036 l -5.6083186530793885 14.876731535632013 a36.89875401714695,36.89875401714695 0 0,0 -0.5907802180949122,-0.22852647976366938 l 5.862871133667829 -14.778265167730304" fill="#ff8d0d" stroke="none" /><path d="M 91.92203290615298 119.3841803445677 l -6.213085752804145 14.909144012279446 a37.15193517045515,37.15193517045515 0 0,0 -0.5865846948602369,-0.250378125753799 l 6.468105522834813 -14.800291236866244" fill="#ff910d" stroke="none" /><path d="M 91.26138138417905 119.09545874513695 l -11.194941015738937 24.462966484571947 a47.90285177395074,47.90285177395074 0 0,0 -0.7448010353302874,-0.34860449174350655 l 11.613230764940715 -24.267185761257913" fill="#d9ff1c" stroke="none" /><path d="M 90.93487009805054 118.94263497670748 l -3.4862340359620263 7.284888302858269 a29.076102112939218,29.076102112939218 0 0,0 -0.448380840984993,-0.21932553797623647 l 3.610775126209089 -7.223969014784811" fill="#ff1502" stroke="none" /><path d="M 90.28995756902619 118.62028667847754 l -7.062876338016388 13.54399665329902 a36.27494901826801,36.27494901826801 0 0,0 -0.5496711659231028,-0.29266893550250733 l 7.294336319726053 -13.42075725007394" fill="#ff840c" stroke="none" /><line stroke="#e1ed5e" stroke-width="0.3" x1="58.13341422392154" x2="55.67067388415222" y1="173.97424548756322" y2="178.32567169271397" /><path d="M 57.64086615596768 174.84453072859336 a86.0,86.0 0 0,1 -31.369924170532247,-30.572349798747897" fill="none" id="id32" stroke="none" /><text fill="#e1ed5e" style="font-size:6.75px; font-family:Arial;" text-anchor="middle"><textPath startOffset="22.145653131862474" xlink:href="#id32">August</textPath></text><path d="M 89.65649057296885 118.27599006163327 l -6.627461672787963 11.710089744704153 a34.4554617183246,34.4554617183246 0 0,0 -0.512250222467076,-0.2957478038338142 l 6.827504363115438 -11.594595043594166" fill="#ff6909" stroke="none" /><path d="M 89.03521579738668 117.91015095944536 l -16.953019035271048 27.691482525272896 a53.46880131538207,53.46880131538207 0 0,0 -0.7786989253742685,-0.48596572175704794 l 17.425882089435028 -27.3963810066743" fill="#94ff23" stroke="none" /><path d="M 88.4268655584334 117.5232005979908 l -5.228539520336379 7.916675237117066 a30.487432335764083,30.487432335764083 0 0,0 -0.4342335322865912,-0.2921716997492374 l 5.363669340719976 -7.825753863310708" fill="#ff2c04" stroke="none" /><path d="M 88.1277618465304 117.32195027204791 l -9.224881534569056 13.459377847860951 a37.31726972806184,37.31726972806184 0 0,0 -0.5252937197908439,-0.3666958127801849 l 9.454570345533664 -13.299037219275638" fill="#ff930d" stroke="none" /><path d="M 87.54013794807813 116.9041958592261 l -11.175363231403868 15.161526514052092 a39.835090379133256,39.835090379133256 0 0,0 -0.5469680593948839,-0.41045502882203505 l 11.433984279709518 -14.967452457966042" fill="#ffb711" stroke="none" /><path d="M 86.96720088162412 116.46651593811092 l -16.700255868608764 21.10022773567049 a47.90944363182115,47.90944363182115 0 0,0 -0.6405018758257996,-0.5159429724164177 l 17.06000851478983 -20.81043646946066" fill="#d9ff1c" stroke="none" /><path d="M 86.40962598614128 116.0094264158162 l -8.706713791251234 10.256486953373534 a34.45371285807327,34.45371285807327 0 0,0 -0.4476038031447857,-0.3866295044466956 l 8.881497074158883 -10.105513316462117" fill="#ff6809" stroke="none" /><path d="M 86.13680546590413 115.77377054828092 l -9.39490048177747 10.689672150168427 a35.231417559069406,35.231417559069406 0 0,0 -0.4508530501291017,-0.40315557752330833 l 9.577018558729943 -10.526821042761737" fill="#ff740a" stroke="none" /><path d="M 85.60350026404147 115.28858382429668 l -9.254148298685381 9.827584800598338 a34.49891416918461,34.49891416918461 0 0,0 -0.42766745552427193,-0.40969574816302406 l 9.421488240074966 -9.66727692212973" fill="#ff6909" stroke="none" /><path d="M 85.34317274990678 115.03919595460226 l -18.77903546292411 19.268944727689597 a47.90621496674176,47.90621496674176 0 0,0 -0.5840180051179433,-0.5790264282305732 l 19.10704538817202 -18.943738289230364" fill="#d9ff1c" stroke="none" /><path d="M 84.83555147118756 114.52719865689866 l -9.71796653694674 9.309592113098393 a34.45761416171085,34.45761416171085 0 0,0 -0.4055237296873291,-0.4306521479370805 l 9.876346100370322 -9.141398505216824" fill="#ff6909" stroke="none" /><path d="M 84.3458050057657 113.99807769240083 l -7.5559515501472685 6.756578468451063 a31.136259489008232,31.136259489008232 0 0,0 -0.35286120324277365,-0.401491275452611 l 7.6708238173486345 -6.625874915187151" fill="#ff3605" stroke="none" /><path d="M 84.1078160697243 113.72728997021213 l -5.106925758817997 4.4112408373330485 a27.74831359904336,27.74831359904336 0 0,0 -0.30827773410315934,-0.3631503956201845 l 5.181898056428269 -4.322923659263309" fill="#ff0000" stroke="none" /><path d="M 83.8745106332314 113.45245675266167 l -14.51226897229681 12.106650923421759 a39.89912556987433,39.89912556987433 0 0,0 -0.4342415265996234,-0.5297040557669614 l 14.717957318135065 -11.855744585956302" fill="#ffb811" stroke="none" /><path d="M 83.64595745247003 113.17365903436017 l -10.478104432311486 8.440419224575008 a34.45478907976639,34.45478907976639 0 0,0 -0.36708061630039424,-0.463794367117915 l 10.621451479253441 -8.259304913542412" fill="#ff6909" stroke="none" /><path d="M 83.4222238831116 112.89097897827486 l -22.551269525765814 17.536003583369805 a49.56695956694889,49.56695956694889 0 0,0 -0.5165538614183985,-0.6761855861983916 l 22.848975364538507 -17.14629708393054" fill="#c4ff1e" stroke="none" /><path d="M 83.20337586046588 112.60449989151573 l -6.454956591093314 4.843919764845742 a29.070317421338657,29.070317421338657 0 0,0 -0.2960991517372062,-0.4017153668201643 l 6.537157762414351 -4.732398088756698" fill="#ff1502" stroke="none" /><path d="M 82.78059297857968 112.02048342749411 l -12.243077263111132 8.54661877494887 a35.93109618731382,35.93109618731382 0 0,0 -0.34872029383096675,-0.5087933303316216 l 12.387987293757424 -8.335190709547197" fill="#ff7f0b" stroke="none" /><path d="M 82.37810715431573 111.42229804090323 l -16.93365671720483 10.976191697455853 a41.17982938469587,41.17982938469587 0 0,0 -0.37940802132395074,-0.5964924275185659 l 17.11958243015467 -10.683885595258616" fill="#ffca12" stroke="none" /><path d="M 81.99639281039703 110.81064883170644 l -34.60415515927076 20.77880091500757 a61.36342554531769,61.36342554531769 0 0,0 -0.534523036606336,-0.907736974055149 l 34.95575190600687 -20.181712772658862" fill="#3aff2e" stroke="none" /><line stroke="#e1ed5e" stroke-width="0.3" x1="26.387840678322732" x2="22.057713659400548" y1="142.50000000000003" y2="145.00000000000006" /><path d="M 25.521815274538298 143.00000000000003 a86.0,86.0 0 0,1 -11.493303480769221,-40.785679425670985" fill="none" id="id33" stroke="none" /><text fill="#e1ed5e" style="font-size:6.75px; font-family:Arial;" text-anchor="middle"><textPath startOffset="21.40746469413373" xlink:href="#id33">September</textPath></text><path d="M 81.4637452351635 109.86951160357371 l -16.071746876435178 8.557299966958874 a39.207922187463296,39.207922187463296 0 0,0 -0.3112211552813423,-0.5968076012994743 l 16.21627610069147 -8.280146122554896" fill="#ffae10" stroke="none" /><path d="M 81.29705330413844 109.54985784667822 l -7.311204535131143 3.733153130032767 a29.209150019752084,29.209150019752084 0 0,0 -0.22418730167595405,-0.4485247804716161 l 7.3742117500188336 -3.607096493397398" fill="#ff1702" stroke="none" /><path d="M 81.1358732173502 109.22738970284198 l -18.13075794779876 8.868662256135359 a41.18359616062182,41.18359616062182 0 0,0 -0.3051915140188232,-0.63773288530637 l 18.280328719777494 -8.556116868763885" fill="#ffca12" stroke="none" /><path d="M 80.83023694016515 108.57439118712176 l -57.50928917950453 25.7231735613653 a84.0,84.0 0 0,0 -0.577464471932128,-1.3213517208966026 l 57.942387533453626 -24.73215977069285" fill="#4dd2ff" stroke="none" /><path d="M 80.68587082218212 108.24405325689762 l -30.93382735434473 13.203811458493444 a54.63394582590406,54.63394582590406 0 0,0 -0.3607769665260308,-0.8657333834193846 l 31.155930165407245 -12.670845565632778" fill="#86ff25" stroke="none" /><path d="M 80.41425534168474 107.57618678355246 l -15.502685371094325 5.996771737151805 a37.62210952264016,37.62210952264016 0 0,0 -0.22782752102154982,-0.6043395670474496 l 15.60334357593031 -5.729763889910211" fill="#ff970e" stroke="none" /><path d="M 80.16572619554312 106.89939002012753 l -12.733442416293556 4.429352261392259 a34.48182914980622,34.48182914980622 0 0,0 -0.189673997983501,-0.5607374721774698 l 12.807601835849425 -4.2101131147406265" fill="#ff6909" stroke="none" /><path d="M 80.05021161711548 106.5578916946017 l -10.564584554966197 3.472788782530073 a32.120733282796465,32.120733282796465 0 0,0 -0.16769360585249432,-0.525297831897708 l 10.622642876595947 -3.2909219169409734" fill="#ff4506" stroke="none" /><path d="M 79.83685265289637 105.86919833188381 l -8.040631142250467 2.3405105400952393 a29.374350049647134,29.374350049647134 0 0,0 -0.13677467819922753,-0.4853650813203429 l 8.079624312524269 -2.202137534871901" fill="#ff1a02" stroke="none" /><path d="M 79.73907114497094 105.5222062557868 l -27.464362797661803 7.48553420909926 a49.46619831092984,49.46619831092984 0 0,0 -0.21626273093059656,-0.8211848145595849 l 27.588815009397134 -7.0129688901668725" fill="#c5ff1e" stroke="none" /><path d="M 79.56144815229197 104.8234425847677 l -16.395838108471438 3.869373150046674 a37.84623269023393,37.84623269023393 0 0,0 -0.14379610950675462,-0.6335921906495566 l 16.45984507953586 -3.5873466254580912" fill="#ff9b0e" stroke="none" /><path d="M 79.48165901384964 104.47187691870673 l -18.165307167034182 3.9590441496371183 a39.59172974877484,39.59172974877484 0 0,0 -0.13902784686179398,-0.6652985758807954 l 18.230592724720342 -3.6466291224709138" fill="#ffb410" stroke="none" /><path d="M 79.34024301695615 103.76489593502545 l -15.909298859190487 2.899204218773276 a37.17130716093144,37.17130716093144 0 0,0 -0.10900960645515144,-0.628738441857691 l 15.956723283137874 -2.6256727439949925" fill="#ff910d" stroke="none" /><path d="M 79.2786578344484 103.40968896794605 l -34.50843178740964 5.678349318619878 a55.97249655673119,55.97249655673119 0 0,0 -0.1478700281077812,-0.9494316552528034 l 34.60082330765569 -5.085129481435624" fill="#76ff27" stroke="none" /><path d="M 79.17382384314188 102.69636545807758 l -16.665432536278278 2.157673895404242 a37.80452909962524,37.80452909962524 0 0,0 -0.07780156560103463,-0.644308571699487 l 16.700016188138974 -1.8712716467813555" fill="#ff9a0e" stroke="none" /><path d="M 79.0935383218832 101.97986365728391 l -21.425211391871123 2.028989794518491 a42.52107066975582,42.52107066975582 0 0,0 -0.06257963111502385,-0.7272701727442074 l 21.45688464568389 -1.6608985743986218" fill="#ffdd14" stroke="none" /><path d="M 79.03789590574601 101.26102812881392 l -40.29300417103475 2.4239270745735517 a61.36584704412722,61.36584704412722 0 0,0 -0.05423107537095616,-1.0520683742483319 l 40.328676835862275 -1.731886906948489" fill="#3aff2e" stroke="none" /><line stroke="#e1ed5e" stroke-width="0.3" x1="15.003131293944662" x2="10.003315487706104" y1="100.72959589197737" y2="100.7725132973878" /><path d="M 14.003168132696942 100.73817937305945 a86.0,86.0 0 0,1 10.791469493833604,-42.45332614584628" fill="none" id="id34" stroke="none" /><text fill="#e1ed5e" style="font-size:6.75px; font-family:Arial;" text-anchor="middle"><textPath startOffset="22.145653131862435" xlink:href="#id34">October</textPath></text><line stroke="#e1ed5e" stroke-width="0.3" x1="26.387840678322718" x2="22.05771365940052" y1="57.49999999999999" y2="54.99999999999999" /><path d="M 25.521815274538284 56.99999999999999 a86.0,86.0 0 0,1 29.574782752854787,-30.34633250058573" fill="none" id="id35" stroke="none" /><text fill="#e1ed5e" style="font-size:6.75px; font-family:Arial;" text-anchor="middle"><textPath startOffset="21.40746469413373" xlink:href="#id35">November</textPath></text><line stroke="#e1ed5e" stroke-width="0.3" x1="56.869717070023135" x2="54.33264160355391" y1="26.7553504044142" y2="22.446841604673864" /><path d="M 56.362301976729285 25.89364864446614 a86.0,86.0 0 0,1 42.16139366436587,-11.88097634709845" fill="none" id="id36" stroke="none" /><text fill="#e1ed5e" style="font-size:6.75px; font-family:Arial;" text-anchor="middle"><textPath startOffset="22.145653131862474" xlink:href="#id36">December</textPath></text></svg>