<?xml version="1.0" encoding="utf-8" ?>
<svg baseProfile="full" height="200mm" version="1.1" viewBox="0,0,200,200" width="200mm" xmlns="http://www.w3.org/2000/svg" xmlns:ev="http://www.w3.org/2001/xml-events" xmlns:xlink="http://www.w3.org/1999/xlink"><defs /><rect fill="#1a1a1a" height="200" width="200" x="0" y="0" /><text alignment-baseline="middle" fill="#e1ed5e" style="dominant-baseline: central; font-size:9.0px; font-family:Arial;" text-anchor="middle" x="100.0" y="100.0">2025</text><line stroke="#e1ed5e" stroke-width="0.3" x1="100.0" x2="100.0" y1="15.0" y2="10.0" /><path d="M 100.0 14.0 a86.0,86.0 0 0,1 42.46469731375804,11.215312516191453" fill="none" id="id37" stroke="none" /><text fill="#e1ed5e" style="font-size:6.75px; font-family:Arial;" text-anchor="middle"><textPath startOffset="22.20632615414155" xlink:href="#id37">January</textPath></text><path d="M 100.0 79.0 l 0.0 -20.11955808357034 a41.11955808357034,41.11955808357034 0 0,0 0.7078055982630274,0.00609230624645231 l -0.346325118990499 20.116577153932447" fill="#ff9c0e" stroke="none" /><path d="M 100.36148047927253 79.00311137660856 l 0.39860687546696255 -23.153405643207403 a44.15683657842923,44.15683657842923 0 0,0 0.7598621244522529,0.01962499686296842 l -0.7970956351140832 23.143113854202074" fill="#ffca12" stroke="none" /><path d="M 101.08401301168833 79.027996857942 l 2.6420720922596455 -51.115202145141915 a72.18343907241304,72.18343907241304 0 0,0 1.2403106791714393,0.07481892730916417 l -3.5215448202706963 51.06214994845244" fill="#3cffa1" stroke="none" /><path d="M 102.16513564639614 79.11191278185805 l 2.5406933346501304 -24.511269793677457 a45.64259461824547,45.64259461824547 0 0,0 0.7807780821467425,0.08772951489968403 l -2.962238120306598 24.463904325307173" fill="#ffe015" stroke="none" /><path d="M 102.52436894288641 79.15227682838746 l 2.3665810913449237 -19.544618307305726 a40.68737694158827,40.68737694158827 0 0,0 0.6945631128194701,0.09017422613877892 l -2.70265893267224 19.50098575800281" fill="#ff950d" stroke="none" /><path d="M 102.88285421437855 79.19881850522331 l 3.553270759966924 -25.638559733443845 a46.88361408882083,46.88361408882083 0 0,0 0.7984302241797347,0.11766786023568407 l -3.9940699645753144 25.573597389047194" fill="#fff216" stroke="none" /><path d="M 103.59715602781102 79.31037775812273 l 9.44257673112848 -54.310500864170926 a76.12524611682346,76.12524611682346 0 0,0 1.2890718536373749,0.2355696417123016 l -10.376043705868755 54.13991574110789" fill="#41ffd2" stroke="none" /><path d="M 103.95276090670814 79.375362276772 l 2.0060536467719245 -10.467147063667925 a31.657646029315245,31.657646029315245 0 0,0 0.5343111023804288,0.10717778059963753 l -2.1859311586194785 10.43106532699108" fill="#ff0000" stroke="none" /><path d="M 104.66035177308747 79.52364482259891 l 5.762482656200045 -25.318827272516067 a46.96630934150076,46.96630934150076 0 0,0 0.7867445303395585,0.18619701163506885 l -6.1974508735021265 25.21588434874013" fill="#fff417" stroke="none" /><path d="M 105.01212808612495 79.60689891045804 l 4.827131890553069 -19.640397636507334 a41.22489608400788,41.22489608400788 0 0,0 0.6876530791957848,0.1752980811215084 l -5.164493858433879 19.554396559216958" fill="#ff9d0e" stroke="none" /><path d="M 105.36241919743992 79.69619591428918 l 7.329438421753218 -27.75155695485443 a49.70312841828921,49.70312841828921 0 0,0 0.8253136091258291,0.22558938577629017 l -7.806049920102758 27.621281028251847" fill="#e3ff1b" stroke="none" /><path d="M 106.0581310904928 79.89281104454417 l 17.03923919600099 -56.55394329595664 a80.06508422664625,80.06508422664625 0 0,0 1.3161732481041255,0.4089414349890336 l -18.010197816815836 56.25226172608509" fill="#47fdff" stroke="none" /><path d="M 106.40334571778207 80.00007090966166 l 5.498187962944796 -17.172799069536385 a39.03150295340188,39.03150295340188 0 0,0 0.6381040684570801,0.21037287885048483 l -5.792974853644293 17.075612466426666" fill="#ff7b0b" stroke="none" /><path d="M 107.08798089147638 80.2323363322302 l 9.97545200827534 -27.820529323195164 a50.55488952089259,50.55488952089259 0 0,0 0.8166243830524538,0.30076965205488565 l -10.452858717100371 27.644696403333953" fill="#d7ff1c" stroke="none" /><path d="M 107.4271985657038 80.35727306442388 l 7.154455548711524 -18.921402931785074 a41.22883395318311,41.22883395318311 0 0,0 0.6616576728407637,0.2567128975935163 l -7.479096386551955 18.795447330301013" fill="#ff9d0e" stroke="none" /><path d="M 108.09893153111575 80.62456947434976 l 24.296794593347244 -58.12629157695072 a84.0,84.0 0 0,0 1.329264968838739,0.5691218881488367 l -25.2937433199763 57.69945016083909" fill="#4dd2ff" stroke="none" /><line stroke="#e1ed5e" stroke-width="0.3" x1="143.23703022742887" x2="145.7803849466894" y1="26.81831364943548" y2="22.513508569990506" /><path d="M 143.74570117128098 25.957352633546492 a86.0,86.0 0 0,1 28.547481713284135,27.462654790039103" fill="none" id="id38" stroke="none" /><text fill="#e1ed5e" style="font-size:6.75px; font-family:Arial;" text-anchor="middle"><textPath startOffset="19.985693538727396" xlink:href="#id38">February</textPath></text><line stroke="#e1ed5e" stroke-width="0.3" x1="172.23445277983987" x2="176.4835382374775" y1="55.19839476539836" y2="52.563006222186495" /><path d="M 173.08426987136738 54.67131705675599 a86.0,86.0 0 0,1 12.851231095245387,41.99856678651699" fill="none" id="id39" stroke="none" /><text fill="#e1ed5e" style="font-size:6.75px; font-family:Arial;" text-anchor="middle"><textPath startOffset="22.20632615414155" xlink:href="#id39">March</textPath></text><line stroke="#e1ed5e" stroke-width="0.3" x1="184.98032266829074" x2="189.97916517819016" y1="98.17113171792111" y2="98.06355123074" /><path d="M 185.9800911702706 98.14961562048488 a86.0,86.0 0 0,1 -9.607161424134198,41.387399972396054" fill="none" id="id40" stroke="none" /><text fill="#e1ed5e" style="font-size:6.75px; font-family:Arial;" text-anchor="middle"><textPath startOffset="21.466115282336823" xlink:href="#id40">April</textPath></text><line stroke="#e1ed5e" stroke-width="0.3" x1="174.80103733775053" x2="179.2010983576182" y1="140.37084112569926" y2="142.7455964860345" /><path d="M 175.68104954172406 140.8457921977663 a86.0,86.0 0 0,1 -30.038265399797805,32.042727171017184" fill="none" id="id41" stroke="none" /><text fill="#e1ed5e" style="font-size:6.75px; font-family:Arial;" text-anchor="middle"><textPath startOffset="22.206326154141568" xlink:href="#id41">May</textPath></text><line stroke="#e1ed5e" stroke-width="0.3" x1="143.8653032363475" x2="146.44561519142675" y1="172.8068346515853" y2="177.08958963109032" /><path d="M 144.38136562736335 173.6633856474863 a86.0,86.0 0 0,1 -40.68145358897372,12.25698825130547" fill="none" id="id42" stroke="none" /><text fill="#e1ed5e" style="font-size:6.75px; font-family:Arial;" text-anchor="middle"><textPath startOffset="21.466115282336833" xlink:href="#id42">June</textPath></text><line stroke="#e1ed5e" stroke-width="0.3" x1="102.19456741930631" x2="102.32365962044197" y1="184.97166512339345" y2="189.96999836594603" /><path d="M 102.22038585953345 185.97133177190398 a86.0,86.0 0 0,1 -42.740103519485714,-10.115201625700543" fill="none" id="id43" stroke="none" /><text fill="#e1ed5e" style="font-size:6.75px; font-family:Arial;" text-anchor="middle"><textPath startOffset="22.20632615414155" xlink:href="#id43">July</textPath></text><line stroke="#e1ed5e" stroke-width="0.3" x1="58.666819895761336" x2="56.23545636021788" y1="174.27360380694188" y2="178.64263932499728" /><path d="M 58.180547188652646 175.14741091055294 a86.0,86.0 0 0,1 -31.652253787137756,-30.449443065178592" fill="none" id="id44" stroke="none" /><text fill="#e1ed5e" style="font-size:6.75px; font-family:Arial;" text-anchor="middle"><textPath startOffset="22.20632615414155" xlink:href="#id44">August</textPath></text><line stroke="#e1ed5e" stroke-width="0.3" x1="26.63291911575756" x2="22.317208475507996" y1="142.92168965132927" y2="145.44649492493687" /><path d="M 25.769776987707644 143.4266507060508 a86.0,86.0 0 0,1 -11.730757126820373,-40.83630448921669" fill="none" id="id45" stroke="none" /><text fill="#e1ed5e" style="font-size:6.75px; font-family:Arial;" text-anchor="middle"><textPath startOffset="21.46611528233685" xlink:href="#id45">September</textPath></text><line stroke="#e1ed5e" stroke-width="0.3" x1="15.007084014347285" x2="10.007500721073583" y1="101.09737516637583" y2="101.16192664675087" /><path d="M 14.007167355692545 101.11028546245083 a86.0,86.0 0 0,1 10.666146001902534,-42.60595125391555" fill="none" id="id46" stroke="none" /><text fill="#e1ed5e" style="font-size:6.75px; font-family:Arial;" text-anchor="middle"><textPath startOffset="22.20632615414155" xlink:href="#id46">October</textPath></text><line stroke="#e1ed5e" stroke-width="0.3" x1="26.266209847984243" x2="21.928928074336255" y1="57.711370442889674" y2="55.22380399835377" /><path d="M 25.398753493254645 57.213857153982495 a86.0,86.0 0 0,1 29.58750427330803,-30.492523968695096" fill="none" id="id47" stroke="none" /><text fill="#e1ed5e" style="font-size:6.75px; font-family:Arial;" text-anchor="middle"><textPath startOffset="21.46611528233685" xlink:href="#id47">November</textPath></text><line stroke="#e1ed5e" stroke-width="0.3" x1="56.762969772571076" x2="54.21961505331055" y1="26.818313649435495" y2="22.513508569990535" /><path d="M 56.25429882871897 25.957352633546506 a86.0,86.0 0 0,1 42.265352541879196,-11.944610805530505" fill="none" id="id48" stroke="none" /><text fill="#e1ed5e" style="font-size:6.75px; font-family:Arial;" text-anchor="middle"><textPath startOffset="22.20632615414155" xlink:href="#id48">December</textPath></text></svg>