<?xml version="1.0" encoding="utf-8" ?>
<svg baseProfile="full" height="200mm" version="1.1" viewBox="0,0,200,200" width="200mm" xmlns="http://www.w3.org/2000/svg" xmlns:ev="http://www.w3.org/2001/xml-events" xmlns:xlink="http://www.w3.org/1999/xlink"><defs /><rect fill="#1a1a1a" height="200" width="200" x="0" y="0" /><text alignment-baseline="middle" fill="#e1ed5e" style="dominant-baseline: central; font-size:9.0px; font-family:Arial;" text-anchor="middle" x="100.0" y="100.0">2025</text><line stroke="#e1ed5e" stroke-width="0.3" x1="100.0" x2="100.0" y1="15.0" y2="10.0" /><path d="M 100.0 14.0 a86.0,86.0 0 0,1 42.46469731375804,11.215312516191453" fill="none" id="id37" stroke="none" /><text fill="#e1ed5e" style="font-size:6.75px; font-family:Arial;" text-anchor="middle"><textPath startOffset="22.20632615414155" xlink:href="#id37">January</textPath></text><path d="M 100.0 79.0 l 0.0 -15.112646662503693 a36.11264666250369,36.11264666250369 0 0,0 0.6216198487314908,0.005350478290422167 l -0.26013936945896243 15.110407560821828" fill="#ff800b" stroke="none" /><path d="M 100.36148047927253 79.00311137660856 l 0.29941039664762975 -17.39149722205624 a38.39407434186742,38.39407434186742 0 0,0 0.6606950396904296,0.017063803634968813 l -0.5987320715329272 17.383766626278913" fill="#ffa20f" stroke="none" /><path d="M 101.08401301168833 79.027996857942 l 1.9845715209713146 -38.394779144418386 a59.44603477174877,59.44603477174877 0 0,0 1.0214469234117627,0.061616467870749154 l -2.645180493222689 38.35492940716733" fill="#4fff2b" stroke="none" /><path d="M 102.16513564639614 79.11191278185805 l 1.9084216703397878 -18.411446121355972 a39.51008972294344,39.51008972294344 0 0,0 0.675873322657119,0.07594224285512502 l -2.225061696506632 18.375867925030246" fill="#ffb210" stroke="none" /><path d="M 102.52436894288641 79.15227682838746 l 1.7776386381400808 -14.6807852043735 a35.78801722154665,35.78801722154665 0 0,0 0.6109274795158111,0.07931592057721594 l -2.030080846163738 14.648010960632147" fill="#ff7c0b" stroke="none" /><path d="M 102.88285421437855 79.19881850522331 l 2.669011181484998 -19.258201028949912 a40.44227166661189,40.44227166661189 0 0,0 0.688733849995795,0.10150146618528616 l -3.000114011909449 19.209405078603655" fill="#ffbf11" stroke="none" /><path d="M 103.59715602781102 79.31037775812273 l 7.09271670522698 -40.79490246329333 a62.40689190521576,62.40689190521576 0 0,0 1.0567712018237432,0.19311818242175896 l -7.793883028153624 40.66676879952084" fill="#2fff30" stroke="none" /><path d="M 103.95276090670814 79.375362276772 l 1.5068313043340564 -7.8623145936217975 a29.005406382489234,29.005406382489234 0 0,0 0.4895471585243247,0.0981985545794227 l -1.6419448723255063 7.835212082965167" fill="#ff1302" stroke="none" /><path d="M 104.66035177308747 79.52364482259891 l 4.3284431954334 -19.01803652392135 a40.50438755053078,40.50438755053078 0 0,0 0.6784992435412752,0.16057884951486645 l -4.655166125937199 18.940711762265614" fill="#ffc011" stroke="none" /><path d="M 105.01212808612495 79.60689891045804 l 3.62586187789103 -14.752729088716437 a36.191770467019424,36.191770467019424 0 0,0 0.6036978808261297,0.15389603171661376 l -3.879268647402185 14.688130060830956" fill="#ff820b" stroke="none" /><path d="M 105.36241919743992 79.69619591428918 l 5.505449604928841 -20.84536215214113 a42.560127518322545,42.560127518322545 0 0,0 0.7067050619308143,0.19316918936406538 l -5.863452556083367 20.74750642195077" fill="#ffdd14" stroke="none" /><path d="M 106.0581310904928 79.89281104454417 l 12.798889533131847 -42.480046472839554 a65.36627008906564,65.36627008906564 0 0,0 1.0745425031470153,0.3338655863326624 l -13.528217408989581 42.253440751624375" fill="#33ff57" stroke="none" /><path d="M 106.40334571778207 80.00007090966166 l 4.129920330400738 -12.899211974044565 a34.54422059355178,34.54422059355178 0 0,0 0.564744015333979,0.18618722273102487 l -4.351347167977135 12.826211027054304" fill="#ff6909" stroke="none" /><path d="M 107.08798089147638 80.2323363322302 l 7.4929817480899485 -20.897170200204602 a43.19992112268709,43.19992112268709 0 0,0 0.6978179414307648,0.257012236956812 l -7.85158201529329 20.765094695441466" fill="#ffe515" stroke="none" /><path d="M 107.4271985657038 80.35727306442388 l 5.374012606099907 -14.212661912313006 a36.194728366253656,36.194728366253656 0 0,0 0.5808682284615038,0.2253678483136883 l -5.617863999561077 14.11805136010877" fill="#ff820b" stroke="none" /><path d="M 108.09893153111575 80.62456947434976 l 18.25034477375197 -43.66110342758761 a68.3219508988727,68.3219508988727 0 0,0 1.0811663801499032,0.4628990202092683 l -18.999194911692186 43.340484879415555" fill="#38ff7c" stroke="none" /><path d="M 108.76106565485865 80.91482961587045 l 9.276473270535421 -20.207938155766332 a43.23541591349788,43.23541591349788 0 0,0 0.6736938157343144,0.3163082797350924 l -9.622945297569332 20.045264893391234" fill="#ffe615" stroke="none" /><path d="M 109.08828744355905 81.06846463323043 l 6.410005757791847 -13.352488184210715 a35.811384625497084,35.811384625497084 0 0,0 0.5534201561483176,0.2715608671446297 l -6.638897180950596 13.240172156931253" fill="#ff7c0b" stroke="none" /><path d="M 109.41281617654863 81.2277094730956 l 10.03875658622493 -20.020624182059407 a43.396473526801856,43.396473526801856 0 0,0 0.6648742968038431,0.3405744386807208 l -10.381891370617527 19.84485721806619" fill="#ffe815" stroke="none" /><path d="M 109.73455568895987 81.39251694778311 l 6.963309053479196 -13.310279312173423 a36.02169126105104,36.02169126105104 0 0,0 0.5469378424292367,0.29215525376870705 l -7.191391942436744 13.188445331902962" fill="#ff7f0b" stroke="none" /><path d="M 110.36928655335952 81.73862282372117 l 7.858426439912517 -13.839494982881968 a36.91497682978933,36.91497682978933 0 0,0 0.5498631130154666,0.31851620626668936 l -8.095486285393312 13.702174619225229" fill="#ff8c0c" stroke="none" /><line stroke="#e1ed5e" stroke-width="0.3" x1="143.23703022742887" x2="145.7803849466894" y1="26.81831364943548" y2="22.513508569990506" /><path d="M 143.74570117128098 25.957352633546492 a86.0,86.0 0 0,1 28.547481713284135,27.462654790039103" fill="none" id="id38" stroke="none" /><text fill="#e1ed5e" style="font-size:6.75px; font-family:Arial;" text-anchor="middle"><textPath startOffset="19.985693538727396" xlink:href="#id38">February</textPath></text><path d="M 110.99172775467656 82.1063720568725 l 23.22749435292828 -37.812448714039654 a65.37677063134714,65.37677063134714 0 0,0 0.9538185905331554,0.5972811138883763 l -23.874932095833696 37.40702325882834" fill="#33ff57" stroke="none" /><path d="M 111.2981086023043 82.29822771554956 l 4.87275988998339 -7.634595223460448 a30.057087455220692,30.057087455220692 0 0,0 0.43372802894369183,0.2821087749550073 l -5.003454944711362 7.549587524345913" fill="#ff2403" stroke="none" /><path d="M 111.60114157652 82.49532879139004 l 11.732464566632128 -17.70282117073927 a42.23771650179117,42.23771650179117 0 0,0 0.6025819801392369,0.4068660428580115 l -12.035451241177906 17.49824321558259" fill="#ffd814" stroke="none" /><path d="M 111.90073688211348 82.69761687909136 l 8.471750776171746 -12.317008525286127 a35.949222729812334,35.949222729812334 0 0,0 0.5068307336413833,0.35506731833420596 l -8.682512649396779 12.169356364187985" fill="#ff7e0b" stroke="none" /><path d="M 112.19680574252982 82.90503203632743 l 13.177525381321335 -18.469538581619307 a43.68856607618234,43.68856607618234 0 0,0 0.6084250367031669,0.4420466642680707 l -13.493495734378289 18.23997268253456" fill="#ffec16" stroke="none" /><path d="M 112.48926042617603 83.11751280151076 l 9.314654835217134 -12.591181194709664 a36.66207644526243,36.66207644526243 0 0,0 0.5041102659416056,0.3796854010053816 l -9.530011254917122 12.428979204198434" fill="#ff890c" stroke="none" /><path d="M 113.06298171725822 83.55741782278167 l 23.001234962478573 -28.95201908982241 a57.97669832714365,57.97669832714365 0 0,0 0.7760501362958016,0.6275119062150804 l -23.496188497338867 28.551801086343204" fill="#60ff29" stroke="none" /><path d="M 113.6212207817346 84.01681056812373 l 15.89640189686727 -18.652895131365113 a45.50767410523548,45.50767410523548 0 0,0 0.5918299051096132,0.5132290617223286 l -16.215125600623647 18.376501076223114" fill="#f9ff18" stroke="none" /><path d="M 113.89432698308785 84.25364557470407 l 10.213836281413892 -11.575277185059251 a36.43727610346074,36.43727610346074 0 0,0 0.4667250911315303,0.4190303950825029 l -10.411572360141413 11.397747781207451" fill="#ff850c" stroke="none" /><path d="M 114.16331599549186 84.49514656593476 l 16.49213809183542 -18.054259610508147 a45.452952969402176,45.452952969402176 0 0,0 0.5731230287876812,0.5326553940540442 l -16.800469004417952 17.76769963037946" fill="#faff18" stroke="none" /><path d="M 114.68862486808459 84.99185889309783 l 33.100767072170676 -33.82079584898675 a68.32342984848982,68.32342984848982 0 0,0 0.8334293684267842,0.8298503578557784 l -33.67803224076478 33.24600964048085" fill="#38ff7c" stroke="none" /><path d="M 114.94478906791727 85.2469230424477 l 10.92499452025559 -10.78484843015786 a36.35149702566799,36.35149702566799 0 0,0 0.4357605175833701,0.44908951780056194 l -11.10901930154207 10.595194716807184" fill="#ff840c" stroke="none" /><path d="M 115.4437574822437 85.77008943001954 l 19.580867975775735 -18.04185286503235 a47.62552995694613,47.62552995694613 0 0,0 0.5503160815754514,0.6076727622273481 l -19.888527697967223 17.702127315535453" fill="#ddff1b" stroke="none" /><path d="M 115.68641384162765 86.03803664274999 l 11.807397880124077 -10.509378256315223 a36.80701350773984,36.80701350773984 0 0,0 0.4171604139162918,0.4768864665754277 l -11.986550157618217 10.304576233536848" fill="#ff8b0c" stroke="none" /><path d="M 115.9244219780498 86.31012108654704 l 17.200049008452773 -14.786507702178566 a43.682206592828734,43.682206592828734 0 0,0 0.4852664370271438,0.5744024005267663 l -17.452026058967032 14.488246352022694" fill="#ffec16" stroke="none" /><path d="M 116.38621287248628 86.86637796730983 l 40.39006174712664 -32.3728129856335 a72.76249712426463,72.76249712426463 0 0,0 0.7749064556016766,0.9840525056314917 l -40.94132228332228 31.672768086048972" fill="#3effb2" stroke="none" /><path d="M 116.60985879189232 87.15038557335679 l 12.400718796711368 -9.59336603323491 a36.67834489105071,36.67834489105071 0 0,0 0.382020785734798,0.5026945740538338 l -12.56401552267028 9.378486683300043" fill="#ff890c" stroke="none" /><path d="M 117.04232023915458 87.72973835380427 l 20.30925371010586 -14.6224136951397 a46.025602261149636,46.025602261149636 0 0,0 0.45737915989656197,0.6469303854171653 l -20.557945489806308 14.270656809390742" fill="#f2ff19" stroke="none" /><path d="M 117.2510076193507 88.02491185347247 l 12.449310180959106 -8.641906030649535 a36.15479672659151,36.15479672659151 0 0,0 0.3504872410597237,0.5142967784011455 l -12.596221887687562 8.426331228977984" fill="#ff810b" stroke="none" /><path d="M 117.45458315368197 88.32363383020206 l 16.701948549625346 -11.17288595765823 a41.09448844776021,41.09448844776021 0 0,0 0.3882516560133577,0.5913339085233948 l -16.89179684099663 10.88373398515716" fill="#ffc812" stroke="none" /><line stroke="#e1ed5e" stroke-width="0.3" x1="172.23445277983987" x2="176.4835382374775" y1="55.19839476539836" y2="52.563006222186495" /><path d="M 173.08426987136738 54.67131705675599 a86.0,86.0 0 0,1 12.851231095245387,41.99856678651699" fill="none" id="id39" stroke="none" /><text fill="#e1ed5e" style="font-size:6.75px; font-family:Arial;" text-anchor="middle"><textPath startOffset="22.20632615414155" xlink:href="#id39">March</textPath></text><path d="M 117.84615892207809 88.93136811851018 l 7.439216203168723 -4.613987020916919 a29.753902783711837,29.753902783711837 0 0,0 0.2662042034469999,0.43756971678446405 l -7.517536204901947 4.4852495309253735" fill="#ff1f03" stroke="none" /><path d="M 118.03404312379186 89.2402003453031 l 26.97879778079525 -16.096582283479766 a52.41584776678607,52.41584776678607 0 0,0 0.45561932925061416,0.7788011248648264 l -27.25187678451619 15.629801746261046" fill="#a1ff22" stroke="none" /><path d="M 118.3937258080291 89.86733742301442 l 22.20574169097241 -12.232610737739058 a46.35215433660893,46.35215433660893 0 0,0 0.37896616587483173,0.7021667503801973 l -22.413015956065706 11.848563004026403" fill="#eeff19" stroke="none" /><path d="M 118.73160827565052 90.50648371742162 l 16.14167578096942 -8.180891870023512 a39.096427515035984,39.096427515035984 0 0,0 0.2990690290277809,0.6029049130804872 l -16.28010482295061 7.901827368444074" fill="#ffac0f" stroke="none" /><path d="M 119.04729006885535 91.15688171328212 l 7.996250705466956 -3.7124331378938784 a29.816018667630722,29.816018667630722 0 0,0 0.21211638601531543,0.467370339492297 l -8.058969408445618 3.5742407895595187" fill="#ff2003" stroke="none" /><path d="M 119.196687751892 91.48605970444005 l 28.723243123293727 -12.739071458953804 a52.42146777533112,52.42146777533112 0 0,0 0.3587358058570296,0.8280117001477699 l -28.938269638993436 12.242760614219431" fill="#a1ff22" stroke="none" /><path d="M 119.47837535516314 92.15188598940014 l 12.413304343572046 -5.001496580709662 a34.38301508528609,34.38301508528609 0 0,0 0.21645982708521985,0.5508666495298934 l -12.497557720538966 4.787080926283984" fill="#ff6709" stroke="none" /><path d="M 119.7369772167798 92.82701384747503 l 11.211738040265873 -4.074668619477981 a32.92920761166069,32.92920761166069 0 0,0 0.18902450137904123,0.534397719711655 l -11.280215622454723 3.8810732733397115" fill="#ff5007" stroke="none" /><path d="M 119.97218684219823 93.5106431181261 l 6.477230308254616 -2.104579704188664 a27.810562986820916,27.810562986820916 0 0,0 0.1440117246731272,0.45655652196638563 l -6.512497516695949 1.9927730157958594" fill="#ff0000" stroke="none" /><path d="M 120.08093135843002 93.85539295169968 l 59.89659225290413 -18.327886110315315 a83.63795313372991,83.63795313372991 0 0,0 0.4094042076092978,1.380307462324846 l -60.20320235762513 17.29414926124394" fill="#4dd6ff" stroke="none" /><path d="M 120.78858239683441 97.02765380044208 l 10.67739165544559 -1.5266507307919088 a31.785979557629737,31.785979557629737 0 0,0 0.07278081290460323,0.5423015930955366 l -10.70208846740803 1.3426307956317078" fill="#ff3f05" stroke="none" /><path d="M 120.96714384426684 98.82574320788733 l 31.70189149622034 -1.7754521878970424 a52.751569329871494,52.751569329871494 0 0,0 0.04297090529784065,0.9070478949154002 l -31.72775600975168 1.2294931863586425" fill="#9dff22" stroke="none" /><line stroke="#e1ed5e" stroke-width="0.3" x1="184.98032266829074" x2="189.97916517819016" y1="98.17113171792111" y2="98.06355123074" /><path d="M 185.9800911702706 98.14961562048488 a86.0,86.0 0 0,1 -9.607161424134198,41.387399972396054" fill="none" id="id40" stroke="none" /><text fill="#e1ed5e" style="font-size:6.75px; font-family:Arial;" text-anchor="middle"><textPath startOffset="21.466115282336823" xlink:href="#id40">April</textPath></text><path d="M 120.99513854157772 99.54816195383933 l 16.36359849986053 -0.35216230460649295 a37.36738751766523,37.36738751766523 0 0,0 0.008304444360690876,0.6431883675542872 l -16.367235951338937 0.07043767899174305" fill="#ff930d" stroke="none" /><path d="M 120.99824983174949 100.27111621757518 l 17.753310445385868 0.22921959763110528 a38.754790153482105,38.754790153482105 0 0,0 -0.01435392040330829,0.6669702784945434 l -17.746734462297553 -0.5347796919157635" fill="#ffa70f" stroke="none" /><path d="M 120.9764740272857 100.99374915477107 l 10.446084926522495 0.4948776449700458 a31.457800637591614,31.457800637591614 0 0,0 -0.030279854473253997,0.5406671424756365 l -10.43601872116171 -0.6746165037811057" fill="#ff3a05" stroke="none" /><path d="M 120.8583938346157 102.4346265915055 l 17.58805966847023 2.0529077215322467 a38.707463765734374,38.707463765734374 0 0,0 -0.08294178334954093,0.6611276204444235 l -17.550116375873838 -2.355353096264065" fill="#ffa60f" stroke="none" /><path d="M 120.81339534386255 102.79330883721812 l 15.109839607933084 2.0278502285900983 a36.24530844315904,36.24530844315904 0 0,0 -0.08831074298524877,0.6176451307548173 l -15.072694813931234 -2.287640831325325" fill="#ff820c" stroke="none" /><path d="M 120.70491114924044 103.5080841355445 l 14.589987944397718 2.472017623094451 a35.79792618398133,35.79792618398133 0 0,0 -0.10816694158346313,0.6066576519769196 l -14.545274560475066 -2.7227940258045886" fill="#ff7c0b" stroke="none" /><path d="M 120.64145759157962 103.86396538481128 l 23.26426950923601 4.354941102767796 a44.66837019752194,44.66837019752194 0 0,0 -0.14798007183378326,0.7545471981818198 l -23.185859504426563 -4.754752028017561" fill="#fff917" stroke="none" /><path d="M 120.49622156327973 104.57218783832717 l 16.552275422636523 3.6923933589596847 a37.95911525947349,37.95911525947349 0 0,0 -0.14775031424220378,0.6365044867704276 l -16.486264542463765 -3.9767665030786774" fill="#ff9c0e" stroke="none" /><path d="M 120.32669344350535 105.2749913415812 l 11.15220076639761 2.8941137251774194 a32.52160909718342,32.52160909718342 0 0,0 -0.14528165285083497,0.5406470763593955 l -11.100731037205 -3.0856517347123633" fill="#ff4a06" stroke="none" /><path d="M 120.13307415673323 105.97154293290107 l 7.39290634632824 2.192762878750514 a28.71124330364479,28.71124330364479 0 0,0 -0.144613374742295,0.4726048759316843 l -7.354066199079812 -2.319694727234255" fill="#ff0e01" stroke="none" /><path d="M 120.02730092923936 106.31721596034902 l 30.436017359022486 9.600439685268121 a52.91425378775429,52.91425378775429 0 0,0 -0.28147296094214563,0.866284698051621 l -30.266252147064094 -10.122923283297537" fill="#9bff22" stroke="none" /><path d="M 119.79798401119884 107.00284435728193 l 16.573441591879114 5.862275263318808 a38.579682518815524,38.579682518815524 0 0,0 -0.22684070519973726,0.6241681965034108 l -16.47007662567415 -6.146691256828349" fill="#ffa50f" stroke="none" /><path d="M 119.54520255179757 107.68017299344265 l 16.579730189081115 6.5149079780212125 a38.813800243205044,38.813800243205044 0 0,0 -0.2496972830282279,0.6197281789509242 l -16.465130291795493 -6.79933552481495" fill="#ffa80f" stroke="none" /><path d="M 119.26925614724726 108.34839909993367 l 16.99921149414943 7.364902975645628 a39.52606237880829,39.52606237880829 0 0,0 -0.2758522298610565,0.6219739554748093 l -16.8699181795571 -7.656425267613125" fill="#ffb210" stroke="none" /><path d="M 118.97047184881838 109.00673069616215 l 15.308091012476767 7.267919022810517 a37.94580471291945,37.94580471291945 0 0,0 -0.2852200809080172,0.5876378460679192 l -15.180717674954035 -7.530345824843712" fill="#ff9b0e" stroke="none" /><path d="M 118.81262510543309 109.33194174019688 l 8.823841832361133 4.377038156175521 a30.84980444999507,30.84980444999507 0 0,0 -0.2400721942881748,0.47368521498554234 l -8.74719096828669 -4.528277582863757" fill="#ff3004" stroke="none" /><line stroke="#e1ed5e" stroke-width="0.3" x1="174.80103733775053" x2="179.2010983576182" y1="140.37084112569926" y2="142.7455964860345" /><path d="M 175.68104954172406 140.8457921977663 a86.0,86.0 0 0,1 -30.038265399797805,32.042727171017184" fill="none" id="id41" stroke="none" /><text fill="#e1ed5e" style="font-size:6.75px; font-family:Arial;" text-anchor="middle"><textPath startOffset="22.206326154141568" xlink:href="#id41">May</textPath></text><path d="M 118.30583269289576 110.29060199501025 l 7.926963844058248 4.456133261815362 a30.093617510763465,30.093617510763465 0 0,0 -0.25772747799355267,0.44936958179552927 l -7.849084369912315 -4.5919226894692065" fill="#ff2403" stroke="none" /><path d="M 118.12598468904814 110.60418214915192 l 16.55485723018002 9.685030884313987 a40.17975810957373,40.17975810957373 0 0,0 -0.35438379103391904,0.5939676178904236 l -16.385692563447872 -9.968560596090514" fill="#ffbb11" stroke="none" /><path d="M 117.94076556474637 110.91462005526583 l 8.619593219558265 5.243900249568529 a31.08939428796792,31.08939428796792 0 0,0 -0.28207756872203543,0.4547988562331074 l -8.528051011168266 -5.391495437166911" fill="#ff3404" stroke="none" /><path d="M 117.75023020441432 111.22182372390056 l 24.832979498967862 15.699588978139023 a50.37948203897854,50.37948203897854 0 0,0 -0.4697170270864401,0.7290112570852711 l -24.55905760850437 -16.124721835145746" fill="#baff1f" stroke="none" /><path d="M 117.55443506779139 111.5257021239791 l 5.921837088398042 3.8880960876284605 a28.084168665987445,28.084168665987445 0 0,0 -0.2688014613802385,0.4018217133022465 l -5.854032521607082 -3.989454715136514" fill="#ff0400" stroke="none" /><path d="M 116.498646956653 112.99209946851258 l 26.322510657077387 20.728043797544743 a54.5041246261544,54.5041246261544 0 0,0 -0.5867812522430209,0.7320998339152577 l -25.961811492779514 -21.17807146503825" fill="#88ff25" stroke="none" /><path d="M 115.56566222782051 114.09645910891815 l 11.308708774316731 10.241308623985255 a36.25684425017254,36.25684425017254 0 0,0 -0.42291639208663895,0.4589922166081814 l -11.130745974234369 -10.43445209539477" fill="#ff830c" stroke="none" /><path d="M 115.07121518719521 114.62390073753431 l 19.041765601495893 18.47660500928024 a47.53250402602951,47.53250402602951 0 0,0 -0.5748250005712234,0.5822946907427818 l -18.720899975869134 -18.80164019400369" fill="#dfff1b" stroke="none" /><path d="M 114.81725581225074 114.88116024355365 l 15.880640135939556 15.949130772091925 a43.50709895816215,43.50709895816215 0 0,0 -0.5352410041824869,0.5238459758908941 l -15.603749179381275 -16.22012685090539" fill="#ffea16" stroke="none" /><path d="M 114.29624159901734 115.38237550388516 l 13.342908237055717 14.356614176860374 a40.59963190587307,40.59963190587307 0 0,0 -0.5160028593884289,0.4713563777416195 l -13.093805828200423 -14.584163321188576" fill="#ffc112" stroke="none" /><path d="M 113.75828350139079 115.86535959552629 l 9.697862242677086 11.183086303781693 a35.80236303283268,35.80236303283268 0 0,0 -0.469069813831141,0.3997514715991843 l -9.503926952268898 -11.348362165603824" fill="#ff7c0b" stroke="none" /><path d="M 113.20401910651253 116.32954008644616 l 5.021506029079036 6.210145815052133 a28.986327932428434,28.986327932428434 0 0,0 -0.3906839492815059,0.31038295759662243 l -4.9138645870801785 -6.295662686653881" fill="#ff1302" stroke="none" /><path d="M 112.92097659922987 116.55440617244103 l 38.762929797689644 49.6632185173231 a84.0,84.0 0 0,0 -1.147485086026025,0.8798426326905142 l -37.90231598317012 -50.32310049184099" fill="#4dd2ff" stroke="none" /><path d="M 112.34349029814194 116.9893568818739 l 5.377780122311162 7.4018793326183365 a30.14922601636704,30.14922601636704 0 0,0 -0.4224806334821075,0.30142871443294333 l -5.249572160980169 -7.493352308895499" fill="#ff2503" stroke="none" /><path d="M 111.7513745106137 117.40417183066458 l 10.765228783297019 15.943657601219007 a40.2377329345647,40.2377329345647 0 0,0 -0.5773641427870749,0.38264547113483816 l -10.489189941769979 -16.126601093445164" fill="#ffbc11" stroke="none" /><line stroke="#e1ed5e" stroke-width="0.3" x1="143.8653032363475" x2="146.44561519142675" y1="172.8068346515853" y2="177.08958963109032" /><path d="M 144.38136562736335 173.6633856474863 a86.0,86.0 0 0,1 -40.68145358897372,12.25698825130547" fill="none" id="id42" stroke="none" /><text fill="#e1ed5e" style="font-size:6.75px; font-family:Arial;" text-anchor="middle"><textPath startOffset="21.466115282336833" xlink:href="#id42">June</textPath></text><path d="M 110.8373102113329 117.98757091392108 l 8.557337850039055 14.20331414440767 a37.58198310710881,37.58198310710881 0 0,0 -0.5569866958762312,0.32907755760796936 l -8.311583283134441 -14.348510274309389" fill="#ff960d" stroke="none" /><path d="M 110.5260780823613 118.17145234162733 l 6.772991497177831 11.69239779889652 a34.51242317678378,34.51242317678378 0 0,0 -0.5166201324837795,0.29335039418152364 l -6.5707225977728525 -11.807251358872671" fill="#ff6909" stroke="none" /><path d="M 110.21172684928248 118.3499491758327 l 7.19100916709142 12.921874496510464 a35.78801722154665,35.78801722154665 0 0,0 -0.540871441646231,0.2949262350081416 l -6.96751491357654 -13.043741383278375" fill="#ff7c0b" stroke="none" /><path d="M 109.57404056367764 118.69057910512821 l 6.74330456108109 13.16437573985421 a35.790975120780885,35.790975120780885 0 0,0 -0.5507482738335182,0.27615661784674184 l -6.515702379564812 -13.278500198610255" fill="#ff7c0b" stroke="none" /><path d="M 108.92500713936063 119.00905698771935 l 10.054979778886606 21.415745740334927 a44.65875702501068,44.65875702501068 0 0,0 -0.6986586167601235,0.3207199039133618 l -9.684853166359064 -21.585652714582363" fill="#fff917" stroke="none" /><path d="M 108.59647513512805 119.15986991738527 l 5.4487515469920345 12.144206690707087 a34.31054655404739,34.31054655404739 0 0,0 -0.5409291716779877,0.23712745242062294 l -5.238901700656292 -12.236198696422164" fill="#ff6609" stroke="none" /><path d="M 107.93186726928326 119.44442032107085 l 5.584434672050536 13.68985275880998 a35.78505932231242,35.78505932231242 0 0,0 -0.5723546294741085,0.22775171912109887 l -5.347958966534562 -13.783951322337147" fill="#ff7c0b" stroke="none" /><path d="M 107.59598834532513 119.57807347666477 l 5.34849392291813 13.785330131112014 a35.78653827192954,35.78653827192954 0 0,0 -0.5762140136019768,0.21787483527105794 l -5.110409688555879 -13.875353216489703" fill="#ff7c0b" stroke="none" /><path d="M 107.2578585660854 119.70592522655815 l 6.793093094709704 18.444033231361086 a40.65524041147665,40.65524041147665 0 0,0 -0.6587706223771921,0.23621170724837376 l -6.474602911702776 -18.55823247964942" fill="#ffc212" stroke="none" /><path d="M 106.57524785965236 119.94407469862006 l 8.545948329483053 25.921613221553688 a48.294015183882735,48.294015183882735 0 0,0 -0.7917427898888023,0.2534910389091572 l -8.09848419450331 -26.064877107122552" fill="#d5ff1c" stroke="none" /><path d="M 106.2309692047433 120.05430185196036 l 3.949848617432907 12.712541795784887 a34.31202550366451,34.31202550366451 0 0,0 -0.5655357478315626,0.17039128166117065 l -3.7304378951610984 -12.778648446551783" fill="#ff6609" stroke="none" /><path d="M 105.53697534728816 120.25689768951611 l 5.695580188823659 20.83714987532729 a42.6015381076018,42.6015381076018 0 0,0 -0.7090307009303344,0.1872614523954605 l -5.336059045081827 -20.932102677026336" fill="#ffdd14" stroke="none" /><path d="M 105.18746579009965 120.34920634021253 l 3.2938090335857355 12.920836952334778 a34.33406185295954,34.33406185295954 0 0,0 -0.5739456969002317,0.14106188826864832 l -3.0709100519422927 -12.975620098917457" fill="#ff6609" stroke="none" /><path d="M 104.83641907484287 120.43548508189849 l 4.866301967867826 20.561750280419446 a42.12975317974168,42.12975317974168 0 0,0 -0.7071375765195685,0.16094221017356256 l -4.511644241955395 -20.642469224170693" fill="#ffd714" stroke="none" /><path d="M 104.13013068566511 120.58985236759428 l 2.617241916926317 13.047680274822639 a34.30758865481316,34.30758865481316 0 0,0 -0.5800145256386213,0.11116116428484747 l -2.392259776715991 -13.090798637455954" fill="#ff6509" stroke="none" /><path d="M 103.7750983002368 120.6578951692458 l 4.937392344231237 27.018139752855582 a48.465573339468236,48.465573339468236 0 0,0 -0.8219554187165908,0.14290748542734755 l -4.4715879540425965 -27.099125816803934" fill="#d3ff1c" stroke="none" /><path d="M 103.06178313531738 120.77559828337769 l 3.1242582373465404 21.199520411466747 a42.42850100239919,42.42850100239919 0 0,0 -0.7234491965600025,0.10026346655912413 l -2.7588804495997072 -21.250158443518476" fill="#ffdb14" stroke="none" /><path d="M 102.70371172650421 120.8252237178851 l 1.8205297797379256 14.022552617743127 a35.14023728924968,35.14023728924968 0 0,0 -0.6005175005037625,0.07271430627952631 l -1.5788848561827828 -14.051812452748004" fill="#ff720a" stroke="none" /><path d="M 102.34483914955558 120.86867818915974 l 1.981821688008532 17.63788319688618 a38.74887435501364,38.74887435501364 0 0,0 -0.6634681969660956,0.06877119137332503 l -1.6779208944368338 -17.669383756715263" fill="#ffa70f" stroke="none" /><path d="M 101.62511606390274 120.93702456842531 l 2.861153145104048 36.86138794863099 a57.9722614782923,57.9722614782923 0 0,0 -0.9955693490920621,0.06866029119523424 l -2.226221035233056 -36.90517658434251" fill="#60ff29" stroke="none" /><path d="M 101.26447882468166 120.96189622390904 l 0.8012490005403986 13.282704360879311 a34.306849180004605,34.306849180004605 0 0,0 -0.5897705661486141,0.030484401670422927 l -0.5724903659783049 -13.294528569311936" fill="#ff6509" stroke="none" /><line stroke="#e1ed5e" stroke-width="0.3" x1="102.19456741930631" x2="102.32365962044197" y1="184.97166512339345" y2="189.96999836594603" /><path d="M 102.22038585953345 185.97133177190398 a86.0,86.0 0 0,1 -42.740103519485714,-10.115201625700543" fill="none" id="id43" stroke="none" /><text fill="#e1ed5e" style="font-size:6.75px; font-family:Arial;" text-anchor="middle"><textPath startOffset="22.20632615414155" xlink:href="#id43">July</textPath></text><path d="M 100.54218724476979 120.99299961872073 l 0.4454412802482652 17.247083395303182 a38.25283465343281,38.25283465343281 0 0,0 -0.6583864961724405,0.011334720607977826 l -0.1484950941831567 -17.25219559319032" fill="#ffa00e" stroke="none" /><path d="M 99.81925306533755 120.99922214144158 l -0.16130205775618542 18.740111687202525 a39.740805863213595,39.740805863213595 0 0,0 -0.6839966283388191,-0.011775622258492933 l 0.48385837598767245 -18.73455858766487" fill="#ffb510" stroke="none" /><path d="M 99.09653310690486 120.98055641714683 l -1.1556192859095422 26.836108561440085 a47.86097873599106,47.86097873599106 0 0,0 -0.8227802086238603,-0.04252833865541616 l 1.6173875629468915 -26.81224041602247" fill="#daff1b" stroke="none" /><path d="M 98.73552117531835 120.96189622390904 l -0.8849137336337702 14.669656374999464 a35.69632234528544,35.69632234528544 0 0,0 -0.6130201495690062,-0.042277458638455764 l 1.1372966439817065 -14.652250571844723" fill="#ff7a0b" stroke="none" /><path d="M 98.01472825383883 120.90594882070398 l -1.5063398160556136 15.862545347729256 a36.933907384888414,36.933907384888414 0 0,0 -0.632391865504468,-0.06555000255386827 l 1.779164278165675 -15.834265976719628" fill="#ff8d0d" stroke="none" /><line stroke="#e1ed5e" stroke-width="0.3" x1="58.666819895761336" x2="56.23545636021788" y1="174.27360380694188" y2="178.64263932499728" /><path d="M 58.180547188652646 175.14741091055294 a86.0,86.0 0 0,1 -31.652253787137756,-30.449443065178592" fill="none" id="id44" stroke="none" /><text fill="#e1ed5e" style="font-size:6.75px; font-family:Arial;" text-anchor="middle"><textPath startOffset="22.20632615414155" xlink:href="#id44">August</textPath></text><line stroke="#e1ed5e" stroke-width="0.3" x1="26.63291911575756" x2="22.317208475507996" y1="142.92168965132927" y2="145.44649492493687" /><path d="M 25.769776987707644 143.4266507060508 a86.0,86.0 0 0,1 -11.730757126820373,-40.83630448921669" fill="none" id="id45" stroke="none" /><text fill="#e1ed5e" style="font-size:6.75px; font-family:Arial;" text-anchor="middle"><textPath startOffset="21.46611528233685" xlink:href="#id45">September</textPath></text><line stroke="#e1ed5e" stroke-width="0.3" x1="15.007084014347285" x2="10.007500721073583" y1="101.09737516637583" y2="101.16192664675087" /><path d="M 14.007167355692545 101.11028546245083 a86.0,86.0 0 0,1 10.666146001902534,-42.60595125391555" fill="none" id="id46" stroke="none" /><text fill="#e1ed5e" style="font-size:6.75px; font-family:Arial;" text-anchor="middle"><textPath startOffset="22.20632615414155" xlink:href="#id46">October</textPath></text><line stroke="#e1ed5e" stroke-width="0.3" x1="26.266209847984243" x2="21.928928074336255" y1="57.711370442889674" y2="55.22380399835377" /><path d="M 25.398753493254645 57.213857153982495 a86.0,86.0 0 0,1 29.58750427330803,-30.492523968695096" fill="none" id="id47" stroke="none" /><text fill="#e1ed5e" style="font-size:6.75px; font-family:Arial;" text-anchor="middle"><textPath startOffset="21.46611528233685" xlink:href="#id47">November</textPath></text><line stroke="#e1ed5e" stroke-width="0.3" x1="56.762969772571076" x2="54.21961505331055" y1="26.818313649435495" y2="22.513508569990535" /><path d="M 56.25429882871897 25.957352633546506 a86.0,86.0 0 0,1 42.265352541879196,-11.944610805530505" fill="none" id="id48" stroke="none" /><text fill="#e1ed5e" style="font-size:6.75px; font-family:Arial;" text-anchor="middle"><textPath startOffset="22.20632615414155" xlink:href="#id48">December</textPath></text></svg>