<?xml version="1.0" encoding="utf-8" ?>
<svg baseProfile="full" height="200mm" version="1.1" viewBox="0,0,200,200" width="200mm" xmlns="http://www.w3.org/2000/svg" xmlns:ev="http://www.w3.org/2001/xml-events" xmlns:xlink="http://www.w3.org/1999/xlink"><defs /><rect fill="#1a1a1a" height="200" width="200" x="0" y="0" /><text alignment-baseline="middle" fill="#e1ed5e" style="dominant-baseline: central; font-size:9.0px; font-family:Arial;" text-anchor="middle" x="100.0" y="100.0">2025</text><line stroke="#e1ed5e" stroke-width="0.3" x1="100.0" x2="100.0" y1="15.0" y2="10.0" /><path d="M 100.0 14.0 a86.0,86.0 0 0,1 42.46469731375804,11.215312516191453" fill="none" id="id37" stroke="none" /><text fill="#e1ed5e" style="font-size:6.75px; font-family:Arial;" text-anchor="middle"><textPath startOffset="22.20632615414155" xlink:href="#id37">January</textPath></text><path d="M 100.0 79.0 l 0.0 -21.459922996149807 a42.45992299614981,42.45992299614981 0 0,0 0.7308777768820419,0.00629089577197292 l -0.36939729760951356 21.456743476986393" fill="#ffa80f" stroke="none" /><path d="M 100.36148047927253 79.00311137660856 l 0.42516206458044237 -24.695885473130563 a45.69954497724886,45.69954497724886 0 0,0 0.7864094446900904,0.020310635822488002 l -0.8501981444654007 24.684908045165717" fill="#ffd914" stroke="none" /><path d="M 101.08401301168833 79.027996857942 l 2.8180869288808394 -54.5204967927765 a75.5932796639832,75.5932796639832 0 0,0 1.29890115025933,0.0783532645288219 l -3.7561501279797813 54.46391025886737" fill="#40ffca" stroke="none" /><path d="M 102.16513564639614 79.11191278185805 l 2.709954318675941 -26.144210530136423 a47.284284214210714,47.284284214210714 0 0,0 0.8088613947835226,0.09088500229198744 l -3.159582416969189 26.093689574373833" fill="#fff116" stroke="none" /><path d="M 102.52436894288641 79.15227682838746 l 2.5242427181280247 -20.846680733332054 a41.99894994749738,41.99894994749738 0 0,0 0.7169526178244753,0.0930810264715248 l -2.8827100644603463 20.800141383696392" fill="#ffa00e" stroke="none" /><path d="M 102.88285421437855 79.19881850522331 l 3.7899896497045407 -27.346600523059575 a48.60798039901995,48.60798039901995 0 0,0 0.8277962661621628,0.1219956514678027 l -4.26015489629536 27.277310387430806" fill="#faff18" stroke="none" /><path d="M 103.59715602781102 79.31037775812273 l 10.071641170922474 -57.92866630501114 a79.79768988449422,79.79768988449422 0 0,0 1.3512594213163733,0.2469340222127094 l -11.067295713341748 57.74671680144769" fill="#47fffd" stroke="none" /><path d="M 103.95276090670814 79.375362276772 l 2.139696936038845 -11.16446837662492 a32.367658382919146,32.367658382919146 0 0,0 0.5462945417999777,0.10958154581285408 l -2.331557887305948 11.12598287473486" fill="#ff0000" stroke="none" /><path d="M 104.66035177308747 79.52364482259891 l 6.146379237309628 -27.005567486330875 a48.696184809240464,48.696184809240464 0 0,0 0.8157221119612467,0.19305506897680969 l -6.610325036233398 26.8957665052132" fill="#f8ff18" stroke="none" /><path d="M 105.01212808612495 79.60689891045804 l 5.148715405837841 -20.948840881221557 a42.57227861393069,42.57227861393069 0 0,0 0.7101281327087868,0.181027472689914 l -5.5085524272316535 20.857110412362776" fill="#ffa90f" stroke="none" /><path d="M 105.36241919743992 79.69619591428918 l 7.817725592307541 -29.60036561442997 a51.61533076653833,51.61533076653833 0 0,0 0.8570654660337264,0.23426836770256196 l -8.326088947564978 29.461410705901113" fill="#cfff1d" stroke="none" /><path d="M 106.0581310904928 79.89281104454417 l 18.174393271478365 -60.321566866367476 a84.0,84.0 0 0,0 1.380858509157127,0.4290394604699177 l -19.21003715334621 59.99978727101504" fill="#4dd2ff" stroke="none" /><path d="M 106.40334571778207 80.00007090966166 l 5.86447723220643 -18.31685090347703 a40.232761638081904,40.232761638081904 0 0,0 0.6577427704276101,0.21684745012287437 l -6.178902824876458 18.213189729094918" fill="#ff840c" stroke="none" /><path d="M 107.08798089147638 80.2323363322302 l 10.640016597789424 -29.673932921788612 a52.52383619180959,52.52383619180959 0 0,0 0.8484292168803726,0.31248364076574214 l -11.149228140442373 29.486386013216546" fill="#c2ff1e" stroke="none" /><line stroke="#e1ed5e" stroke-width="0.3" x1="143.23703022742887" x2="145.7803849466894" y1="26.81831364943548" y2="22.513508569990506" /><path d="M 143.74570117128098 25.957352633546492 a86.0,86.0 0 0,1 28.547481713284135,27.462654790039103" fill="none" id="id38" stroke="none" /><text fill="#e1ed5e" style="font-size:6.75px; font-family:Arial;" text-anchor="middle"><textPath startOffset="19.985693538727396" xlink:href="#id38">February</textPath></text><line stroke="#e1ed5e" stroke-width="0.3" x1="172.23445277983987" x2="176.4835382374775" y1="55.19839476539836" y2="52.563006222186495" /><path d="M 173.08426987136738 54.67131705675599 a86.0,86.0 0 0,1 12.851231095245387,41.99856678651699" fill="none" id="id39" stroke="none" /><text fill="#e1ed5e" style="font-size:6.75px; font-family:Arial;" text-anchor="middle"><textPath startOffset="22.20632615414155" xlink:href="#id39">March</textPath></text><line stroke="#e1ed5e" stroke-width="0.3" x1="184.98032266829074" x2="189.97916517819016" y1="98.17113171792111" y2="98.06355123074" /><path d="M 185.9800911702706 98.14961562048488 a86.0,86.0 0 0,1 -9.607161424134198,41.387399972396054" fill="none" id="id40" stroke="none" /><text fill="#e1ed5e" style="font-size:6.75px; font-family:Arial;" text-anchor="middle"><textPath startOffset="21.466115282336823" xlink:href="#id40">April</textPath></text><line stroke="#e1ed5e" stroke-width="0.3" x1="174.80103733775053" x2="179.2010983576182" y1="140.37084112569926" y2="142.7455964860345" /><path d="M 175.68104954172406 140.8457921977663 a86.0,86.0 0 0,1 -30.038265399797805,32.042727171017184" fill="none" id="id41" stroke="none" /><text fill="#e1ed5e" style="font-size:6.75px; font-family:Arial;" text-anchor="middle"><textPath startOffset="22.206326154141568" xlink:href="#id41">May</textPath></text><line stroke="#e1ed5e" stroke-width="0.3" x1="143.8653032363475" x2="146.44561519142675" y1="172.8068346515853" y2="177.08958963109032" /><path d="M 144.38136562736335 173.6633856474863 a86.0,86.0 0 0,1 -40.68145358897372,12.25698825130547" fill="none" id="id42" stroke="none" /><text fill="#e1ed5e" style="font-size:6.75px; font-family:Arial;" text-anchor="middle"><textPath startOffset="21.466115282336833" xlink:href="#id42">June</textPath></text><line stroke="#e1ed5e" stroke-width="0.3" x1="102.19456741930631" x2="102.32365962044197" y1="184.97166512339345" y2="189.96999836594603" /><path d="M 102.22038585953345 185.97133177190398 a86.0,86.0 0 0,1 -42.740103519485714,-10.115201625700543" fill="none" id="id43" stroke="none" /><text fill="#e1ed5e" style="font-size:6.75px; font-family:Arial;" text-anchor="middle"><textPath startOffset="22.20632615414155" xlink:href="#id43">July</textPath></text><line stroke="#e1ed5e" stroke-width="0.3" x1="58.666819895761336" x2="56.23545636021788" y1="174.27360380694188" y2="178.64263932499728" /><path d="M 58.180547188652646 175.14741091055294 a86.0,86.0 0 0,1 -31.652253787137756,-30.449443065178592" fill="none" id="id44" stroke="none" /><text fill="#e1ed5e" style="font-size:6.75px; font-family:Arial;" text-anchor="middle"><textPath startOffset="22.20632615414155" xlink:href="#id44">August</textPath></text><line stroke="#e1ed5e" stroke-width="0.3" x1="26.63291911575756" x2="22.317208475507996" y1="142.92168965132927" y2="145.44649492493687" /><path d="M 25.769776987707644 143.4266507060508 a86.0,86.0 0 0,1 -11.730757126820373,-40.83630448921669" fill="none" id="id45" stroke="none" /><text fill="#e1ed5e" style="font-size:6.75px; font-family:Arial;" text-anchor="middle"><textPath startOffset="21.46611528233685" xlink:href="#id45">September</textPath></text><line stroke="#e1ed5e" stroke-width="0.3" x1="15.007084014347285" x2="10.007500721073583" y1="101.09737516637583" y2="101.16192664675087" /><path d="M 14.007167355692545 101.11028546245083 a86.0,86.0 0 0,1 10.666146001902534,-42.60595125391555" fill="none" id="id46" stroke="none" /><text fill="#e1ed5e" style="font-size:6.75px; font-family:Arial;" text-anchor="middle"><textPath startOffset="22.20632615414155" xlink:href="#id46">October</textPath></text><line stroke="#e1ed5e" stroke-width="0.3" x1="26.266209847984243" x2="21.928928074336255" y1="57.711370442889674" y2="55.22380399835377" /><path d="M 25.398753493254645 57.213857153982495 a86.0,86.0 0 0,1 29.58750427330803,-30.492523968695096" fill="none" id="id47" stroke="none" /><text fill="#e1ed5e" style="font-size:6.75px; font-family:Arial;" text-anchor="middle"><textPath startOffset="21.46611528233685" xlink:href="#id47">November</textPath></text><line stroke="#e1ed5e" stroke-width="0.3" x1="56.762969772571076" x2="54.21961505331055" y1="26.818313649435495" y2="22.513508569990535" /><path d="M 56.25429882871897 25.957352633546506 a86.0,86.0 0 0,1 42.265352541879196,-11.944610805530505" fill="none" id="id48" stroke="none" /><text fill="#e1ed5e" style="font-size:6.75px; font-family:Arial;" text-anchor="middle"><textPath startOffset="22.20632615414155" xlink:href="#id48">December</textPath></text></svg>