<?xml version="1.0" encoding="utf-8" ?>
<svg baseProfile="full" height="200mm" version="1.1" viewBox="0,0,200,200" width="200mm" xmlns="http://www.w3.org/2000/svg" xmlns:ev="http://www.w3.org/2001/xml-events" xmlns:xlink="http://www.w3.org/1999/xlink"><defs /><rect fill="#1a1a1a" height="200" width="200" x="0" y="0" /><text alignment-baseline="middle" fill="#e1ed5e" style="dominant-baseline: central; font-size:9.0px; font-family:Arial;" text-anchor="middle" x="100.0" y="100.0">2026</text><line stroke="#e1ed5e" stroke-width="0.3" x1="100.0" x2="100.0" y1="15.0" y2="10.0" /><path d="M 100.0 14.0 a86.0,86.0 0 0,1 42.46469731375804,11.215312516191453" fill="none" id="id49" stroke="none" /><text fill="#e1ed5e" style="font-size:6.75px; font-family:Arial;" text-anchor="middle"><textPath startOffset="22.20632615414155" xlink:href="#id49">January</textPath></text><path d="M 100.0 79.0 l 0.0 -19.766721366203207 a40.76672136620321,40.76672136620321 0 0,0 0.7017320941821313,0.006040029679354368 l -0.340251614909603 19.76379271313241" fill="#ffed16" stroke="none" /><path d="M 100.72285384407766 79.0124445844662 l 1.1200857841505807 -32.5209067609058 a53.54019005346135,53.54019005346135 0 0,0 0.9207871654011949,0.03965103226942944 l -1.679713781941107 32.49680800211218" fill="#7bff26" stroke="none" /><path d="M 101.08401301168833 79.027996857942 l 0.8747967725521231 -16.924373106971668 a37.94696652670481,37.94696652670481 0 0,0 0.6520336025832377,0.039332447534352465 l -1.1659924239749728 16.90680739005701" fill="#ffc812" stroke="none" /><path d="M 101.80526077348638 79.07773832637324 l 1.7043988507540073 -19.75331169625793 a40.82670669606962,40.82670669606962 0 0,0 0.6996431373129491,0.06643954621793842 l -2.0441671151572005 19.721046605524815" fill="#ffed16" stroke="none" /><path d="M 102.52436894288641 79.15227682838746 l 2.203809446370407 -18.20035434613663 a39.33329415028423,39.33329415028423 0 0,0 0.6714479348640663,0.08717321263011814 l -2.5167721097423192 18.159722810342377" fill="#ffda14" stroke="none" /><path d="M 103.2404852339499 79.25152402106235 l 1.9089847725722557 -12.223022738354967 a33.37119669733916,33.37119669733916 0 0,0 0.566787200863605,0.09352474456263164 l -2.1191011795747356 12.18835173085271" fill="#ff8b0c" stroke="none" /><path d="M 103.59715602781102 79.31037775812273 l 10.791468083433088 -62.06886672563182 a84.0,84.0 0 0,0 1.4224195155883965,0.2599380745970459 l -11.858282720124386 61.87391316968404" fill="#4dd2ff" stroke="none" /><path d="M 104.66035177308747 79.52364482259891 l 2.6319372630310296 -11.564037400283327 a32.85976621825586,32.85976621825586 0 0,0 0.5504422575014984,0.13027189827453284 l -2.8306032074950513 11.517019589867925" fill="#ff840c" stroke="none" /><path d="M 105.01212808612495 79.60689891045804 l 4.59553678486327 -18.69809482201029 a40.25455032749193,40.25455032749193 0 0,0 0.6714671985572255,0.17117193975307374 l -4.916712872105521 18.61621988608835" fill="#ffe615" stroke="none" /><path d="M 105.71112130821622 79.79150937346287 l 7.68708222181982 -27.200320329666656 a49.26567988075814,49.26567988075814 0 0,0 0.8140796594823437,0.2376521761370004 l -8.154152099025591 27.063969824610954" fill="#abff21" stroke="none" /><path d="M 106.0581310904928 79.89281104454417 l 4.337287673297463 -14.395638109915417 a36.03484156725927,36.03484156725927 0 0,0 0.5923692571937965,0.18405201171590335 l -4.584442303201977 14.318845963316992" fill="#ffaf10" stroke="none" /><path d="M 106.74666289553966 80.11325718540242 l 7.18373658651115 -21.175079317837355 a43.36045740724197,43.36045740724197 0 0,0 0.7047478297685529,0.24587267971986715 l -7.547166420342977 21.04828578494528" fill="#f1ff19" stroke="none" /><path d="M 107.08798089147638 80.2323363322302 l 5.386548200251414 -15.022539533204307 a36.959059982978886,36.959059982978886 0 0,0 0.5970079223360922,0.21988305615349593 l -5.644338448360083 14.927593209244487" fill="#ffbb11" stroke="none" /><path d="M 107.4271985657038 80.35727306442388 l 6.807988882623383 -18.005101845440834 a40.24921829817046,40.24921829817046 0 0,0 0.6459363886708046,0.25061328358037605 l -7.116908436293855 17.885245857969913" fill="#ffe615" stroke="none" /><path d="M 108.09893153111575 80.62456947434976 l 12.571894983576946 -30.07629795291136 a53.59810181636942,53.59810181636942 0 0,0 0.8481676088184745,0.36314110603483046 l -13.087746350185736 29.85543731891374" fill="#7aff26" stroke="none" /><path d="M 108.43124777332544 80.76684994638697 l 6.388342051244503 -14.572924977263513 a36.911664166788135,36.911664166788135 0 0,0 0.5797203275883678,0.2601036125469574 l -6.638244497299651 14.460801034200024" fill="#ffbb11" stroke="none" /><path d="M 109.08828744355905 81.06846463323043 l 9.813399258593272 -20.441993751414028 a43.67549147298486,43.67549147298486 0 0,0 0.6749500909725936,0.33119507836418977 l -10.163820616576297 20.270043512915006" fill="#edff1a" stroke="none" /><path d="M 109.41281617654863 81.2277094730956 l 6.890422031747545 -13.741796483310896 a36.37253675761836,36.37253675761836 0 0,0 0.5572610591217237,0.28545075861911107 l -7.125943578458024 13.621153199379284" fill="#ffb410" stroke="none" /><path d="M 109.73455568895987 81.39251694778311 l 10.088026474742968 -19.283138096583446 a42.76252956361054,42.76252956361054 0 0,0 0.6492878273493694,0.34682707110859695 l -10.418459348620647 19.106632298973093" fill="#f8ff18" stroke="none" /><path d="M 110.36928655335952 81.73862282372117 l 19.234985845195443 -33.87478296524609 a59.95491755102808,59.95491755102808 0 0,0 0.8930521007015915,0.5173134192508877 l -19.815234678362362 33.53866538860515" fill="#38ff2e" stroke="none" /><line stroke="#e1ed5e" stroke-width="0.3" x1="143.23703022742887" x2="145.7803849466894" y1="26.81831364943548" y2="22.513508569990506" /><path d="M 143.74570117128098 25.957352633546492 a86.0,86.0 0 0,1 28.547481713284135,27.462654790039103" fill="none" id="id50" stroke="none" /><text fill="#e1ed5e" style="font-size:6.75px; font-family:Arial;" text-anchor="middle"><textPath startOffset="19.985693538727396" xlink:href="#id50">February</textPath></text><path d="M 110.68208982089419 81.91981866633111 l 8.913352284429088 -15.086469810254737 a38.52282569342242,38.52282569342242 0 0,0 0.5680061024366392,0.3422173212544166 l -9.171720453083365 14.930805879541706" fill="#ffd013" stroke="none" /><path d="M 111.2981086023043 82.29822771554956 l 12.430777497220202 -19.476427455263032 a44.10531228106471,44.10531228106471 0 0,0 0.6364459028211502,0.41396211908942077 l -12.764190425825632 19.259566412014085" fill="#e8ff1a" stroke="none" /><path d="M 111.60114157652 82.49532879139004 l 9.061978718075375 -13.673392132407157 a37.40369198361835,37.40369198361835 0 0,0 0.5336176442931295,0.36030101544455806 l -9.296001056775047 13.515379204663928" fill="#ffc112" stroke="none" /><path d="M 111.90073688211348 82.69761687909136 l 11.754549588214639 -17.08984262097976 a41.74203839625347,41.74203839625347 0 0,0 0.5885008447349643,0.41228245034822625 l -12.046981572533253 16.884975327867597" fill="#fff917" stroke="none" /><path d="M 112.48926042617603 83.11751280151076 l 24.672920758040874 -33.3518763027749 a62.48615035946529,62.48615035946529 0 0,0 0.8591960120536954,0.6471286232774731 l -25.243362923852953 32.92223108999158" fill="#32ff45" stroke="none" /><path d="M 112.77801427241765 83.33499621200491 l 9.015872998579969 -11.758443406793136 a35.817117036633014,35.817117036633014 0 0,0 0.4860339201659499,0.3793571840318199 l -9.216939473905349 11.601507833538092" fill="#ffac0f" stroke="none" /><path d="M 113.06298171725822 83.55741782278167 l 1.67469321088742 -2.1079628937447206 a23.69223047156016,23.69223047156016 0 0,0 0.3171335936182078,0.2564333108761247 l -1.7107302030701188 2.0788234856044663" fill="#ff0000" stroke="none" /><path d="M 113.34407831869373 83.78471172551755 l 15.22518822748855 -18.501151615404403 a44.96036242753095,44.96036242753095 0 0,0 0.5933535991607946,0.49691657536115924 l -15.541399363608463 18.236333882649426" fill="#ddff1b" stroke="none" /><path d="M 113.6212207817346 84.01681056812373 l 10.929858106456832 -12.82513479359237 a37.850693775067356,37.850693775067356 0 0,0 0.4922504378806293,0.42687472901371837 l -11.149002342984225 12.63509507115898" fill="#ffc712" stroke="none" /><path d="M 113.89432698308785 84.25364557470407 l 14.945366505480566 -16.93749098446388 a43.588549772659945,43.588549772659945 0 0,0 0.5583257597843253,0.5012703798288662 l -15.23470325286088 16.67772159586572" fill="#eeff19" stroke="none" /><path d="M 114.42810811169701 84.74124197986012 l 33.5871393945752 -35.52080623758587 a69.88582216224603,69.88582216224603 0 0,0 0.8669727479613196,0.8340270966371814 l -34.19359538614894 34.937396054186394" fill="#3bff9b" stroke="none" /><path d="M 114.68862486808459 84.99185889309783 l 10.367063837762602 -10.592574753506733 a35.8215603944009,35.8215603944009 0 0,0 0.43696196929474457,0.43508551573253634 l -10.54786160722467 10.412553387124078" fill="#ffac0f" stroke="none" /><path d="M 114.94478906791727 85.2469230424477 l 17.911443218903653 -17.68167479838108 a46.16865951654387,46.16865951654387 0 0,0 0.5534429284398872,0.5703715867641632 l -18.213150411046648 17.370739016066803" fill="#cfff1d" stroke="none" /><line stroke="#e1ed5e" stroke-width="0.3" x1="172.23445277983987" x2="176.4835382374775" y1="55.19839476539836" y2="52.563006222186495" /><path d="M 173.08426987136738 54.67131705675599 a86.0,86.0 0 0,1 12.851231095245387,41.99856678651699" fill="none" id="id51" stroke="none" /><text fill="#e1ed5e" style="font-size:6.75px; font-family:Arial;" text-anchor="middle"><textPath startOffset="22.20632615414155" xlink:href="#id51">March</textPath></text><line stroke="#e1ed5e" stroke-width="0.3" x1="184.98032266829074" x2="189.97916517819016" y1="98.17113171792111" y2="98.06355123074" /><path d="M 185.9800911702706 98.14961562048488 a86.0,86.0 0 0,1 -9.607161424134198,41.387399972396054" fill="none" id="id52" stroke="none" /><text fill="#e1ed5e" style="font-size:6.75px; font-family:Arial;" text-anchor="middle"><textPath startOffset="21.466115282336823" xlink:href="#id52">April</textPath></text><line stroke="#e1ed5e" stroke-width="0.3" x1="174.80103733775053" x2="179.2010983576182" y1="140.37084112569926" y2="142.7455964860345" /><path d="M 175.68104954172406 140.8457921977663 a86.0,86.0 0 0,1 -30.038265399797805,32.042727171017184" fill="none" id="id53" stroke="none" /><text fill="#e1ed5e" style="font-size:6.75px; font-family:Arial;" text-anchor="middle"><textPath startOffset="22.206326154141568" xlink:href="#id53">May</textPath></text><line stroke="#e1ed5e" stroke-width="0.3" x1="143.8653032363475" x2="146.44561519142675" y1="172.8068346515853" y2="177.08958963109032" /><path d="M 144.38136562736335 173.6633856474863 a86.0,86.0 0 0,1 -40.68145358897372,12.25698825130547" fill="none" id="id54" stroke="none" /><text fill="#e1ed5e" style="font-size:6.75px; font-family:Arial;" text-anchor="middle"><textPath startOffset="21.466115282336833" xlink:href="#id54">June</textPath></text><line stroke="#e1ed5e" stroke-width="0.3" x1="102.19456741930631" x2="102.32365962044197" y1="184.97166512339345" y2="189.96999836594603" /><path d="M 102.22038585953345 185.97133177190398 a86.0,86.0 0 0,1 -42.740103519485714,-10.115201625700543" fill="none" id="id55" stroke="none" /><text fill="#e1ed5e" style="font-size:6.75px; font-family:Arial;" text-anchor="middle"><textPath startOffset="22.20632615414155" xlink:href="#id55">July</textPath></text><line stroke="#e1ed5e" stroke-width="0.3" x1="58.666819895761336" x2="56.23545636021788" y1="174.27360380694188" y2="178.64263932499728" /><path d="M 58.180547188652646 175.14741091055294 a86.0,86.0 0 0,1 -31.652253787137756,-30.449443065178592" fill="none" id="id56" stroke="none" /><text fill="#e1ed5e" style="font-size:6.75px; font-family:Arial;" text-anchor="middle"><textPath startOffset="22.20632615414155" xlink:href="#id56">August</textPath></text><line stroke="#e1ed5e" stroke-width="0.3" x1="26.63291911575756" x2="22.317208475507996" y1="142.92168965132927" y2="145.44649492493687" /><path d="M 25.769776987707644 143.4266507060508 a86.0,86.0 0 0,1 -11.730757126820373,-40.83630448921669" fill="none" id="id57" stroke="none" /><text fill="#e1ed5e" style="font-size:6.75px; font-family:Arial;" text-anchor="middle"><textPath startOffset="21.46611528233685" xlink:href="#id57">September</textPath></text><line stroke="#e1ed5e" stroke-width="0.3" x1="15.007084014347285" x2="10.007500721073583" y1="101.09737516637583" y2="101.16192664675087" /><path d="M 14.007167355692545 101.11028546245083 a86.0,86.0 0 0,1 10.666146001902534,-42.60595125391555" fill="none" id="id58" stroke="none" /><text fill="#e1ed5e" style="font-size:6.75px; font-family:Arial;" text-anchor="middle"><textPath startOffset="22.20632615414155" xlink:href="#id58">October</textPath></text><line stroke="#e1ed5e" stroke-width="0.3" x1="26.266209847984243" x2="21.928928074336255" y1="57.711370442889674" y2="55.22380399835377" /><path d="M 25.398753493254645 57.213857153982495 a86.0,86.0 0 0,1 29.58750427330803,-30.492523968695096" fill="none" id="id59" stroke="none" /><text fill="#e1ed5e" style="font-size:6.75px; font-family:Arial;" text-anchor="middle"><textPath startOffset="21.46611528233685" xlink:href="#id59">November</textPath></text><line stroke="#e1ed5e" stroke-width="0.3" x1="56.762969772571076" x2="54.21961505331055" y1="26.818313649435495" y2="22.513508569990535" /><path d="M 56.25429882871897 25.957352633546506 a86.0,86.0 0 0,1 42.265352541879196,-11.944610805530505" fill="none" id="id60" stroke="none" /><text fill="#e1ed5e" style="font-size:6.75px; font-family:Arial;" text-anchor="middle"><textPath startOffset="22.20632615414155" xlink:href="#id60">December</textPath></text></svg>