<?xml version="1.0" encoding="utf-8" ?>
<svg baseProfile="full" height="200mm" version="1.1" viewBox="0,0,200,200" width="200mm" xmlns="http://www.w3.org/2000/svg" xmlns:ev="http://www.w3.org/2001/xml-events" xmlns:xlink="http://www.w3.org/1999/xlink"><defs /><rect fill="#1a1a1a" height="200" width="200" x="0" y="0" /><text alignment-baseline="middle" fill="#e1ed5e" style="dominant-baseline: central; font-size:9.0px; font-family:Arial;" text-anchor="middle" x="100.0" y="100.0">2025</text><line stroke="#e1ed5e" stroke-width="0.3" x1="100.0" x2="100.0" y1="15.0" y2="10.0" /><path d="M 100.0 14.0 a86.0,86.0 0 0,1 42.46469731375804,11.215312516191453" fill="none" id="id37" stroke="none" /><text fill="#e1ed5e" style="font-size:6.75px; font-family:Arial;" text-anchor="middle"><textPath startOffset="22.20632615414155" xlink:href="#id37">January</textPath></text><path d="M 100.0 79.0 l 0.0 -20.118929308081754 a41.11892930808175,41.11892930808175 0 0,0 0.7077947749266003,0.006092213086578633 l -0.3463142956540719 20.115948471603733" fill="#ff9c0e" stroke="none" /><path d="M 100.36148047927253 79.00311137660856 l 0.3985944182235264 -23.152682054056726 a44.156112882055126,44.156112882055126 0 0,0 0.7598496709001669,0.019624675224459598 l -0.7970707243185611 23.14239058668991" fill="#ffca12" stroke="none" /><path d="M 101.08401301168833 79.027996857942 l 2.641989522346143 -51.113604695234265 a72.18183948996813,72.18183948996813 0 0,0 1.2402831939308614,0.07481726932439357 l -3.521434765116616 51.06055415652957" fill="#3cffa1" stroke="none" /><path d="M 102.16513564639614 79.11191278185805 l 2.5406139330208206 -24.510503768619834 a45.64182448903057,45.64182448903057 0 0,0 0.7807649080488095,0.08772803463628098 l -2.9621455445793554 24.463139780512954" fill="#ffe015" stroke="none" /><path d="M 102.52436894288641 79.15227682838746 l 2.3665071310633015 -19.544007499808153 a40.68676167260453,40.68676167260453 0 0,0 0.6945526097304856,0.09017286253638805 l -2.702574469301633 19.50037631410763" fill="#ff950d" stroke="none" /><path d="M 102.88285421437855 79.19881850522331 l 3.553159713315259 -25.63775847837373 a46.882805175323455,46.882805175323455 0 0,0 0.7984164483436009,0.11766583003553414 l -3.9939451420875156 25.572798164177225" fill="#fff216" stroke="none" /><path d="M 103.59715602781102 79.31037775812273 l 9.442281632161942 -54.30880355493708 a76.12352334520907,76.12352334520907 0 0,0 1.2890426809711224,0.23556431059401092 l -10.375719434235966 54.138223762992325" fill="#41ffd2" stroke="none" /><path d="M 103.95276090670814 79.375362276772 l 2.005990953677145 -10.466819944877264 a31.657312957059816,31.657312957059816 0 0,0 0.5343054808568384,0.10717665297488983 l -2.1858628440011088 10.430739335825166" fill="#ff0000" stroke="none" /><path d="M 104.66035177308747 79.52364482259891 l 5.762302567361487 -25.31803600970988 a46.965497843615225,46.965497843615225 0 0,0 0.7867309367331674,0.1861937944676279 l -6.197257191057178 25.215096303101383" fill="#fff417" stroke="none" /><path d="M 105.01212808612495 79.60689891045804 l 4.826981033252907 -19.63978383571864 a41.22426401650103,41.22426401650103 0 0,0 0.6876425359753371,0.1752953934198617 l -5.164332457913269 19.55378544612991" fill="#ff9d0e" stroke="none" /><path d="M 105.36241919743992 79.69619591428918 l 7.329209362486336 -27.75068966449395 a49.70223138946184,49.70223138946184 0 0,0 0.8252987140855657,0.2255853143991228 l -7.805805965795613 27.620417809268535" fill="#e3ff1b" stroke="none" /><path d="M 106.0581310904928 79.89281104454417 l 17.038706686494272 -56.55217587476481 a80.06323832739545,80.06323832739545 0 0,0 1.3161429037507029,0.40893200685071646 l -18.00963496295569 56.25050373303157" fill="#47feff" stroke="none" /><path d="M 106.40334571778207 80.00007090966166 l 5.498016133831634 -17.17226238602274 a39.03093943371461,39.03093943371461 0 0,0 0.638094855790954,0.21036984157930821 l -5.792793811865005 17.0750788201842" fill="#ff7b0b" stroke="none" /><path d="M 107.08798089147638 80.2323363322302 l 9.975140255915557 -27.81965987731344 a50.55396587286705,50.55396587286705 0 0,0 0.8166094631603097,0.3007641569326948 l -10.452532044848443 27.643832452574422" fill="#d7ff1c" stroke="none" /><path d="M 107.4271985657038 80.35727306442388 l 7.154231958001207 -18.920811600985278 a41.22820176261016,41.22820176261016 0 0,0 0.6616475271804775,0.25670896123494746 l -7.478862650181351 18.794859935859783" fill="#ff9d0e" stroke="none" /><path d="M 108.09893153111575 80.62456947434976 l 24.29603527105856 -58.12447501680393 a83.99803112694543,83.99803112694543 0 0,0 1.3292338122437446,0.5691085485208565 l -25.29295284109262 57.69764694032028" fill="#4dd2ff" stroke="none" /><path d="M 108.76106565485865 80.91482961587045 l 12.349439123808166 -26.902109755975463 a50.601218826176634,50.601218826176634 0 0,0 0.7884676826058084,0.37019614918079324 l -12.810685017713572 26.685548624154666" fill="#d7ff1c" stroke="none" /><path d="M 109.08828744355905 81.06846463323043 l 8.533412815465518 -17.77569289247364 a40.71786986686668,40.71786986686668 0 0,0 0.6292437484727791,0.30876717459999686 l -8.838127830948729 17.62617055773881" fill="#ff950d" stroke="none" /><path d="M 109.41281617654863 81.2277094730956 l 13.3642398058845 -26.652745321036633 a50.815629101818864,50.815629101818864 0 0,0 0.778542653813802,0.3987997860441606 l -13.821042947287058 26.41875300967997" fill="#d4ff1c" stroke="none" /><path d="M 109.73455568895987 81.39251694778311 l 9.270005825310836 -17.719501721485752 a40.99784361522595,40.99784361522595 0 0,0 0.6224935961129737,0.3325145207251054 l -9.573644467952121 17.557308474258893" fill="#ff9a0e" stroke="none" /><path d="M 110.36928655335952 81.73862282372117 l 10.461643784052296 -18.42402773241482 a42.18704294018376,42.18704294018376 0 0,0 0.6283926133007135,0.3640055615604171 l -10.777233129818338 18.241218013464355" fill="#ffac0f" stroke="none" /><line stroke="#e1ed5e" stroke-width="0.3" x1="143.23703022742887" x2="145.7803849466894" y1="26.81831364943548" y2="22.513508569990506" /><path d="M 143.74570117128098 25.957352633546492 a86.0,86.0 0 0,1 28.547481713284135,27.462654790039103" fill="none" id="id38" stroke="none" /><text fill="#e1ed5e" style="font-size:6.75px; font-family:Arial;" text-anchor="middle"><textPath startOffset="19.985693538727396" xlink:href="#id38">February</textPath></text><path d="M 110.99172775467656 82.1063720568725 l 30.921937588198276 -50.33836889277202 a80.07721732608287,80.07721732608287 0 0,0 1.1682917009540839,0.7315841559581606 l -31.783848441524622 49.798640395490914" fill="#47fdff" stroke="none" /><path d="M 111.2981086023043 82.29822771554956 l 6.48693203455011 -10.163665241887724 a33.05737858616163,33.05737858616163 0 0,0 0.47702265489236223,0.3102688039903923 l -6.660921715226753 10.050497513737804" fill="#ff1802" stroke="none" /><path d="M 111.60114157652 82.49532879139004 l 15.619013035704796 -23.567136560626206 a49.27301706356647,49.27301706356647 0 0,0 0.7029506954605178,0.47463544747923136 l -16.022368425571855 23.294789200848303" fill="#e9ff1a" stroke="none" /><path d="M 111.90073688211348 82.69761687909136 l 11.278140671704756 -16.3971956296779 a40.90136883555222,40.90136883555222 0 0,0 0.5766486505052724,0.4039792308664918 l -11.55872046179368 16.200631556047473" fill="#ff980e" stroke="none" /><path d="M 112.19680574252982 82.90503203632743 l 17.542771132209825 -24.587840196015467 a51.204481530095634,51.204481530095634 0 0,0 0.7130947831977328,0.5180936864919123 l -17.963411231761345 24.28222727470688" fill="#ceff1d" stroke="none" /><path d="M 112.48926042617603 83.11751280151076 l 12.400268883668119 -16.762191958747525 a41.85036564785299,41.85036564785299 0 0,0 0.5754501927350283,0.43341715483439985 l -12.68696523016153 16.54625821440728" fill="#ffa70f" stroke="none" /><path d="M 113.06298171725822 83.55741782278167 l 30.62072650430245 -38.54279388663158 a70.22576411025689,70.22576411025689 0 0,0 0.9400106487907116,0.7600899046299479 l -31.279640551657653 38.0099978847375" fill="#39ff87" stroke="none" /><path d="M 113.6212207817346 84.01681056812373 l 21.16231479224866 -24.83193625310535 a53.6261953872117,53.6261953872117 0 0,0 0.6974117388203717,0.6047885874956324 l -21.586620329715796 24.463982672190046" fill="#aeff20" stroke="none" /><path d="M 113.89432698308785 84.25364557470407 l 13.597317180711695 -15.409755061995034 a41.551096943558974,41.551096943558974 0 0,0 0.5322280252929146,0.4778395761234528 l -13.8605561936006 15.173416477102284" fill="#ffa20f" stroke="none" /><path d="M 114.16331599549186 84.49514656593476 l 21.955397212587883 -24.034994063269703 a53.553347084192765,53.553347084192765 0 0,0 0.6752621002044035,0.6275825294177554 l -22.365867196587132 23.65350694777731" fill="#afff20" stroke="none" /><path d="M 114.68862486808459 84.99185889309783 l 44.06587460425377 -45.02442332070654 a84.0,84.0 0 0,0 1.0246567993307099,1.0202565973995252 l -44.8343672037518 44.25923087265689" fill="#4dd2ff" stroke="none" /><path d="M 114.94478906791727 85.2469230424477 l 14.544056865271067 -14.3574853571529 a41.436902306394146,41.436902306394146 0 0,0 0.4967213862839271,0.511915051608128 l -14.789042515258103 14.105006109994656" fill="#ffa10e" stroke="none" /><line stroke="#e1ed5e" stroke-width="0.3" x1="172.23445277983987" x2="176.4835382374775" y1="55.19839476539836" y2="52.563006222186495" /><path d="M 173.08426987136738 54.67131705675599 a86.0,86.0 0 0,1 12.851231095245387,41.99856678651699" fill="none" id="id39" stroke="none" /><text fill="#e1ed5e" style="font-size:6.75px; font-family:Arial;" text-anchor="middle"><textPath startOffset="22.20632615414155" xlink:href="#id39">March</textPath></text><line stroke="#e1ed5e" stroke-width="0.3" x1="184.98032266829074" x2="189.97916517819016" y1="98.17113171792111" y2="98.06355123074" /><path d="M 185.9800911702706 98.14961562048488 a86.0,86.0 0 0,1 -9.607161424134198,41.387399972396054" fill="none" id="id40" stroke="none" /><text fill="#e1ed5e" style="font-size:6.75px; font-family:Arial;" text-anchor="middle"><textPath startOffset="21.466115282336823" xlink:href="#id40">April</textPath></text><line stroke="#e1ed5e" stroke-width="0.3" x1="174.80103733775053" x2="179.2010983576182" y1="140.37084112569926" y2="142.7455964860345" /><path d="M 175.68104954172406 140.8457921977663 a86.0,86.0 0 0,1 -30.038265399797805,32.042727171017184" fill="none" id="id41" stroke="none" /><text fill="#e1ed5e" style="font-size:6.75px; font-family:Arial;" text-anchor="middle"><textPath startOffset="22.206326154141568" xlink:href="#id41">May</textPath></text><line stroke="#e1ed5e" stroke-width="0.3" x1="143.8653032363475" x2="146.44561519142675" y1="172.8068346515853" y2="177.08958963109032" /><path d="M 144.38136562736335 173.6633856474863 a86.0,86.0 0 0,1 -40.68145358897372,12.25698825130547" fill="none" id="id42" stroke="none" /><text fill="#e1ed5e" style="font-size:6.75px; font-family:Arial;" text-anchor="middle"><textPath startOffset="21.466115282336833" xlink:href="#id42">June</textPath></text><line stroke="#e1ed5e" stroke-width="0.3" x1="102.19456741930631" x2="102.32365962044197" y1="184.97166512339345" y2="189.96999836594603" /><path d="M 102.22038585953345 185.97133177190398 a86.0,86.0 0 0,1 -42.740103519485714,-10.115201625700543" fill="none" id="id43" stroke="none" /><text fill="#e1ed5e" style="font-size:6.75px; font-family:Arial;" text-anchor="middle"><textPath startOffset="22.20632615414155" xlink:href="#id43">July</textPath></text><line stroke="#e1ed5e" stroke-width="0.3" x1="58.666819895761336" x2="56.23545636021788" y1="174.27360380694188" y2="178.64263932499728" /><path d="M 58.180547188652646 175.14741091055294 a86.0,86.0 0 0,1 -31.652253787137756,-30.449443065178592" fill="none" id="id44" stroke="none" /><text fill="#e1ed5e" style="font-size:6.75px; font-family:Arial;" text-anchor="middle"><textPath startOffset="22.20632615414155" xlink:href="#id44">August</textPath></text><line stroke="#e1ed5e" stroke-width="0.3" x1="26.63291911575756" x2="22.317208475507996" y1="142.92168965132927" y2="145.44649492493687" /><path d="M 25.769776987707644 143.4266507060508 a86.0,86.0 0 0,1 -11.730757126820373,-40.83630448921669" fill="none" id="id45" stroke="none" /><text fill="#e1ed5e" style="font-size:6.75px; font-family:Arial;" text-anchor="middle"><textPath startOffset="21.46611528233685" xlink:href="#id45">September</textPath></text><line stroke="#e1ed5e" stroke-width="0.3" x1="15.007084014347285" x2="10.007500721073583" y1="101.09737516637583" y2="101.16192664675087" /><path d="M 14.007167355692545 101.11028546245083 a86.0,86.0 0 0,1 10.666146001902534,-42.60595125391555" fill="none" id="id46" stroke="none" /><text fill="#e1ed5e" style="font-size:6.75px; font-family:Arial;" text-anchor="middle"><textPath startOffset="22.20632615414155" xlink:href="#id46">October</textPath></text><line stroke="#e1ed5e" stroke-width="0.3" x1="26.266209847984243" x2="21.928928074336255" y1="57.711370442889674" y2="55.22380399835377" /><path d="M 25.398753493254645 57.213857153982495 a86.0,86.0 0 0,1 29.58750427330803,-30.492523968695096" fill="none" id="id47" stroke="none" /><text fill="#e1ed5e" style="font-size:6.75px; font-family:Arial;" text-anchor="middle"><textPath startOffset="21.46611528233685" xlink:href="#id47">November</textPath></text><line stroke="#e1ed5e" stroke-width="0.3" x1="56.762969772571076" x2="54.21961505331055" y1="26.818313649435495" y2="22.513508569990535" /><path d="M 56.25429882871897 25.957352633546506 a86.0,86.0 0 0,1 42.265352541879196,-11.944610805530505" fill="none" id="id48" stroke="none" /><text fill="#e1ed5e" style="font-size:6.75px; font-family:Arial;" text-anchor="middle"><textPath startOffset="22.20632615414155" xlink:href="#id48">December</textPath></text></svg>