<?xml version="1.0" encoding="utf-8" ?>
<svg baseProfile="full" height="200mm" version="1.1" viewBox="0,0,200,200" width="200mm" xmlns="http://www.w3.org/2000/svg" xmlns:ev="http://www.w3.org/2001/xml-events" xmlns:xlink="http://www.w3.org/1999/xlink"><defs /><rect fill="#1a1a1a" height="200" width="200" x="0" y="0" /><text alignment-baseline="middle" fill="#e1ed5e" style="dominant-baseline: central; font-size:9.0px; font-family:Arial;" text-anchor="middle" x="100.0" y="100.0">2025</text><line stroke="#e1ed5e" stroke-width="0.3" x1="100.0" x2="100.0" y1="15.0" y2="10.0" /><path d="M 100.0 14.0 a86.0,86.0 0 0,1 42.46469731375804,11.215312516191453" fill="none" id="id37" stroke="none" /><text fill="#e1ed5e" style="font-size:6.75px; font-family:Arial;" text-anchor="middle"><textPath startOffset="22.20632615414155" xlink:href="#id37">January</textPath></text><path d="M 100.0 79.0 l 0.0 -15.199997638892171 a36.19999763889217,36.19999763889217 0 0,0 0.6231234521986256,0.005363420280168352 l -0.26164297292609723 15.197745595220562" fill="#ff810b" stroke="none" /><path d="M 100.36148047927253 79.00311137660856 l 0.3011409863366562 -17.492019936384843 a38.494611951927844,38.494611951927844 0 0,0 0.662425116568382,0.017108486416502353 l -0.602192738099906 17.48424465782598" fill="#ffa30f" stroke="none" /><path d="M 101.08401301168833 79.027996857942 l 1.996042328430852 -38.61670065964881 a59.66825254409369,59.66825254409369 0 0,0 1.025265237968161,0.061846799032155855 l -2.660469615238625 38.57662059123635" fill="#4dff2c" stroke="none" /><path d="M 102.16513564639614 79.11191278185805 l 1.9194523322739885 -18.517864132134623 a39.61707789294738,39.61707789294738 0 0,0 0.6777034994664511,0.07614788454427426 l -2.237922535250165 18.482080294119747" fill="#ffb310" stroke="none" /><path d="M 102.52436894288641 79.15227682838746 l 1.787913375198063 -14.765640025000865 a35.873491842372445,35.873491842372445 0 0,0 0.6123865934516407,0.07950535544293698 l -2.0418146971575495 14.732676346393792" fill="#ff7c0b" stroke="none" /><path d="M 102.88285421437855 79.19881850522331 l 2.684438044687783 -19.369513276296903 a40.55464784076689,40.55464784076689 0 0,0 0.6906476216976322,0.10178350638656503 l -3.017454646814071 19.32043528574937" fill="#ffc011" stroke="none" /><path d="M 103.59715602781102 79.31037775812273 l 7.1337125508445185 -41.03069667203922 a62.64622340802305,62.64622340802305 0 0,0 1.0608239375414596,0.19385879396973688 l -7.8389316094888795 40.90182239671874" fill="#30ff33" stroke="none" /><path d="M 103.95276090670814 79.375362276772 l 1.5155407771766174 -7.907758708856106 a29.05167756711449,29.05167756711449 0 0,0 0.49032811386265507,0.09835520687344539 l -1.6514353005063978 7.880499545905452" fill="#ff1302" stroke="none" /><path d="M 104.66035177308747 79.52364482259891 l 4.353461562355272 -19.12796062235725 a40.61712275399617,40.61712275399617 0 0,0 0.6803876994567317,0.16102578601649145 l -4.682072948774527 19.05018892419989" fill="#ffc112" stroke="none" /><path d="M 105.01212808612495 79.60689891045804 l 3.6468193304376664 -14.837999744417749 a36.279578778362804,36.279578778362804 0 0,0 0.6051625699196137,0.1542694135792059 l -3.901690789042305 14.773027334669674" fill="#ff820c" stroke="none" /><path d="M 105.36241919743992 79.69619591428918 l 5.537271059448864 -20.9658481780388 a42.68474488229877,42.68474488229877 0 0,0 0.7087743161145232,0.19373479469900268 l -5.897343264787098 20.867426842513503" fill="#ffde14" stroke="none" /><path d="M 106.0581310904928 79.89281104454417 l 12.87286701188685 -42.72558080043267 a65.62270677401837,65.62270677401837 0 0,0 1.0787580124145988,0.3351753655821483 l -13.606410397012167 42.497665299968" fill="#34ff5a" stroke="none" /><path d="M 106.40334571778207 80.00007090966166 l 4.15379123675642 -12.973769315702684 a34.62250607985267,34.62250607985267 0 0,0 0.5660238606776077,0.18660916761859406 l -4.376497919676445 12.900346423824855" fill="#ff6a09" stroke="none" /><path d="M 107.08798089147638 80.2323363322302 l 7.536291122442001 -21.01795567620418 a43.328236488560435,43.328236488560435 0 0,0 0.699890648096441,0.2577756323140717 l -7.896964096311018 20.885116776083784" fill="#ffe715" stroke="none" /><path d="M 107.4271985657038 80.35727306442388 l 5.405074355821846 -14.294810984070242 a36.28255377423087,36.28255377423087 0 0,0 0.5822776875581273,0.22591469654591734 l -5.65033520837964 14.19965358363378" fill="#ff820c" stroke="none" /><path d="M 108.09893153111575 80.62456947434976 l 18.355831620034753 -43.91346425489794 a68.59547139517862,68.59547139517862 0 0,0 1.0854947279356038,0.46475219284385205 l -19.10901010576067 43.59099253409129" fill="#38ff80" stroke="none" /><path d="M 108.76106565485865 80.91482961587045 l 9.330091211569753 -20.32473987608205 a43.36393643897717,43.36393643897717 0 0,0 0.6756964212691738,0.3172485298857175 l -9.678565844138525 20.161126363556328" fill="#ffe715" stroke="none" /><path d="M 109.08828744355905 81.06846463323043 l 6.4470555396138565 -13.429665458724802 a35.896994309730125,35.896994309730125 0 0,0 0.5547431467366885,0.27221005288065814 l -6.677269953360977 13.316700245709312" fill="#ff7d0b" stroke="none" /><path d="M 109.41281617654863 81.2277094730956 l 10.096780518704513 -20.13634322911081 a43.525924963993106,43.525924963993106 0 0,0 0.6668576131030264,0.34159037032158546 l -10.441898619396294 19.959560333476727" fill="#ffea15" stroke="none" /><path d="M 109.73455568895987 81.39251694778311 l 7.003556923908486 -13.38721261974597 a36.10851651594928,36.10851651594928 0 0,0 0.5482561596964151,0.29285945319661555 l -7.232958130133213 13.2646744400476" fill="#ff800b" stroke="none" /><path d="M 110.36928655335952 81.73862282372117 l 7.9038480816496 -13.919487152782793 a37.0069652681038,37.0069652681038 0 0,0 0.5512333170192846,0.3193099168662495 l -8.142278131134212 13.781373078526494" fill="#ff8d0d" stroke="none" /><line stroke="#e1ed5e" stroke-width="0.3" x1="143.23703022742887" x2="145.7803849466894" y1="26.81831364943548" y2="22.513508569990506" /><path d="M 143.74570117128098 25.957352633546492 a86.0,86.0 0 0,1 28.547481713284135,27.462654790039103" fill="none" id="id38" stroke="none" /><text fill="#e1ed5e" style="font-size:6.75px; font-family:Arial;" text-anchor="middle"><textPath startOffset="19.985693538727396" xlink:href="#id38">February</textPath></text><path d="M 110.99172775467656 82.1063720568725 l 23.36174908382331 -38.03100436405731 a65.63326800934999,65.63326800934999 0 0,0 0.95756077548967,0.599624469764837 l -24.012929011685245 37.623235552969525" fill="#34ff5a" stroke="none" /><path d="M 111.2981086023043 82.29822771554956 l 4.900924403030113 -7.678723122563299 a30.10943734800368,30.10943734800368 0 0,0 0.43448344531083005,0.2826001187734673 l -5.032374874125224 7.593224079630303" fill="#ff2403" stroke="none" /><path d="M 111.60114157652 82.49532879139004 l 11.800278117641776 -17.805143334992028 a42.360470332680094,42.360470332680094 0 0,0 0.6043332406858053,0.40804850179651303 l -12.105016052734124 17.599382920896847" fill="#ffda14" stroke="none" /><path d="M 111.90073688211348 82.69761687909136 l 8.520717427648783 -12.388200735684217 a36.035629117181784,36.035629117181784 0 0,0 0.5080489355766771,0.3559207466400362 l -8.732697502809112 12.239695146280244" fill="#ff7f0b" stroke="none" /><path d="M 112.19680574252982 82.90503203632743 l 13.253691372239274 -18.57629236635192 a43.81970580596416,43.81970580596416 0 0,0 0.6102513428072999,0.4433735533218791 l -13.571488031400362 18.345399578213367" fill="#ffee16" stroke="none" /><path d="M 112.48926042617603 83.11751280151076 l 9.368493465388815 -12.663958120936023 a36.75260312138455,36.75260312138455 0 0,0 0.5053550243186404,0.3806229272084168 l -9.585094643465839 12.50081860422176" fill="#ff890c" stroke="none" /><path d="M 113.06298171725822 83.55741782278167 l 23.134181915913153 -29.119361527741535 a58.19042334663424,58.19042334663424 0 0,0 0.7789109637539225,0.6298251630623335 l -23.63199627823157 28.716830267415073" fill="#5dff2a" stroke="none" /><path d="M 113.6212207817346 84.01681056812373 l 15.988282972218558 -18.760708715483318 a45.649328264821854,45.649328264821854 0 0,0 0.5936721255586855,0.5148266171422224 l -16.308848896424006 18.482717104921424" fill="#f8ff18" stroke="none" /><path d="M 113.89432698308785 84.25364557470407 l 10.272872173126173 -11.642182194265272 a36.5265034354119,36.5265034354119 0 0,0 0.4678680040791963,0.4200565136116017 l -10.47175116480136 11.463626671884374" fill="#ff860c" stroke="none" /><path d="M 114.16331599549186 84.49514656593476 l 16.587462517611193 -18.1586130861215 a45.59429084126272,45.59429084126272 0 0,0 0.5749051789871995,0.5343117084387512 l -16.89757558039324 17.87039679160811" fill="#f9ff18" stroke="none" /><path d="M 114.68862486808459 84.99185889309783 l 33.2920892401226 -34.01627977748844 a68.59695889311266,68.59695889311266 0 0,0 0.8367659564671082,0.8331726175266931 l -33.87269099675703 33.438171309311635" fill="#38ff80" stroke="none" /><path d="M 114.94478906791727 85.2469230424477 l 10.988140900879367 -10.847184767505931 a36.44022855523812,36.44022855523812 0 0,0 0.43682417934189804,0.4501857147412332 l -11.173229343924374 10.656434857214583" fill="#ff850c" stroke="none" /><path d="M 115.4437574822437 85.77008943001954 l 19.694045235485085 -18.146134629756457 a47.779425306353744,47.779425306353744 0 0,0 0.5520943522998979,0.6096363731762028 l -20.00348322840102 17.804445469310703" fill="#dcff1b" stroke="none" /><path d="M 115.68641384162765 86.03803664274999 l 11.875644545084157 -10.570122378269888 a36.89837791891956,36.89837791891956 0 0,0 0.4181959126420152,0.4780702206229838 l -12.05583232130402 10.364136601443956" fill="#ff8c0c" stroke="none" /><path d="M 115.9244219780498 86.31012108654704 l 17.299465153643652 -14.87197359799453 a43.81330956484783,43.81330956484783 0 0,0 0.4867228623563033,0.5761263487362948 l -17.552898629487075 14.571988299629126" fill="#ffed16" stroke="none" /><path d="M 116.38621287248628 86.86637796730983 l 40.62351597978305 -32.55992758480909 a73.06168394210565,73.06168394210565 0 0,0 0.7780927370754966,0.9880987595312934 l -41.17796279745251 31.855836431324754" fill="#3effb5" stroke="none" /><path d="M 116.60985879189232 87.15038557335679 l 12.472394851806285 -9.648815611893706 a36.768965598658895,36.768965598658895 0 0,0 0.3829646394999325,0.503936574971456 l -12.636635431530332 9.432694261041217" fill="#ff8a0c" stroke="none" /><path d="M 117.04232023915458 87.72973835380427 l 20.42664103351233 -14.706931128912286 a46.17025004131939,46.17025004131939 0 0,0 0.458816596386791,0.6489635373929722 l -20.676770249703 14.35314109118752" fill="#f1ff19" stroke="none" /><path d="M 117.2510076193507 88.02491185347247 l 12.521267093864893 -8.691856178131484 a36.24239133001204,36.24239133001204 0 0,0 0.35133638954524127,0.5155427990242228 l -12.669027949078867 8.475035355836855" fill="#ff820c" stroke="none" /><path d="M 117.45458315368197 88.32363383020206 l 16.798485678162834 -11.23746514880017 a41.2106344296744,41.2106344296744 0 0,0 0.3893489776134259,0.5930052046032065 l -16.989431291134185 10.94664188021929" fill="#ffca12" stroke="none" /><line stroke="#e1ed5e" stroke-width="0.3" x1="172.23445277983987" x2="176.4835382374775" y1="55.19839476539836" y2="52.563006222186495" /><path d="M 173.08426987136738 54.67131705675599 a86.0,86.0 0 0,1 12.851231095245387,41.99856678651699" fill="none" id="id39" stroke="none" /><text fill="#e1ed5e" style="font-size:6.75px; font-family:Arial;" text-anchor="middle"><textPath startOffset="22.20632615414155" xlink:href="#id39">March</textPath></text><path d="M 117.84615892207809 88.93136811851018 l 7.482214813102746 -4.640655828857808 a29.804500271527402,29.804500271527402 0 0,0 0.2666568924282832,0.43831381844314066 l -7.560987503817254 4.511174237207586" fill="#ff1f03" stroke="none" /><path d="M 118.03404312379186 89.2402003453031 l 27.134735015388763 -16.18962039985868 a52.59743111467901,52.59743111467901 0 0,0 0.4571977236999068,0.7814991126227455 l -27.409392413558997 15.720141874882039" fill="#9fff22" stroke="none" /><path d="M 118.3937258080291 89.86733742301442 l 22.33409069968372 -12.303315129602646 a46.49868958515336,46.49868958515336 0 0,0 0.38016420946312157,0.7043865431980109 l -22.542563008365306 11.917047603072177" fill="#edff1a" stroke="none" /><path d="M 118.73160827565052 90.50648371742162 l 16.23497453740182 -8.228177359357957 a39.201024720799,39.201024720799 0 0,0 0.29986914777915613,0.6045179036593518 l -16.374203698134384 7.947499867199656" fill="#ffad10" stroke="none" /><path d="M 119.04729006885535 91.15688171328212 l 8.042468970352523 -3.7338909716283597 a29.86697518475669,29.86697518475669 0 0,0 0.21247889961504102,0.4681690901562937 l -8.10555018693091 3.594899872630003" fill="#ff2003" stroke="none" /><path d="M 119.196687751892 91.48605970444005 l 28.889263237962872 -12.812703189720263 a52.60308360682832,52.60308360682832 0 0,0 0.3599786573915912,0.830880372846067 l -29.105532605197144 12.313523672287594" fill="#9fff22" stroke="none" /><path d="M 119.47837535516314 92.15188598940014 l 12.48505314302679 -5.03040519079532 a34.46036880504333,34.46036880504333 0 0,0 0.21694681092772228,0.5521059702911951 l -12.569793503836213 4.814750215608341" fill="#ff6709" stroke="none" /><path d="M 119.7369772167798 92.82701384747503 l 11.276541796133394 -4.098220171388075 a32.9981583358912,32.9981583358912 0 0,0 0.18942030125437073,0.5355166992581959 l -11.345415178197573 3.9035058457032643" fill="#ff5107" stroke="none" /><path d="M 119.97218684219823 93.5106431181261 l 6.5146686474386355 -2.1167441579838004 a27.84992798621113,27.84992798621113 0 0,0 0.14421556885480122,0.45720276372773805 l -6.550139700061643 2.004291227829643" fill="#ff0000" stroke="none" /><path d="M 120.08093135843002 93.85539295169968 l 60.24279407529006 -18.433821144900946 a84.0,84.0 0 0,0 0.41117641155319085,1.3862824530138804 l -60.551176383954946 17.394109305140535" fill="#4dd2ff" stroke="none" /><path d="M 120.78858239683441 97.02765380044208 l 10.739106893498457 -1.53547475976029 a31.84832243288551,31.84832243288551 0 0,0 0.07292356027948589,0.5433652268434935 l -10.763946452835778 1.3503911908521322" fill="#ff3f05" stroke="none" /><path d="M 120.96714384426684 98.82574320788733 l 31.885128174573108 -1.7857142872901715 a52.93509314570396,52.93509314570396 0 0,0 0.043120401978417496,0.9102035335614606 l -31.91114218478502 1.236599647105711" fill="#9bff22" stroke="none" /><line stroke="#e1ed5e" stroke-width="0.3" x1="184.98032266829074" x2="189.97916517819016" y1="98.17113171792111" y2="98.06355123074" /><path d="M 185.9800911702706 98.14961562048488 a86.0,86.0 0 0,1 -9.607161424134198,41.387399972396054" fill="none" id="id40" stroke="none" /><text fill="#e1ed5e" style="font-size:6.75px; font-family:Arial;" text-anchor="middle"><textPath startOffset="21.466115282336823" xlink:href="#id40">April</textPath></text><path d="M 120.99513854157772 99.54816195383933 l 16.45817996782658 -0.3541977999000418 a37.46199088612377,37.46199088612377 0 0,0 0.008325468801035454,0.6448167336287209 l -16.461838443745332 0.0708448082108581" fill="#ff940d" stroke="none" /><path d="M 120.99824983174949 100.27111621757518 l 17.855924437240763 0.23054448506529163 a38.85741269803792,38.85741269803792 0 0,0 -0.014391929532768298,0.6687364133865435 l -17.849310445022986 -0.53787071424195" fill="#ffa80f" stroke="none" /><path d="M 120.9764740272857 100.99374915477107 l 10.506463213539064 0.49773803378521053 a31.51824664132411,31.51824664132411 0 0,0 -0.030338037059430178,0.5417060316366629 l -10.496338825592105 -0.6785157817572967" fill="#ff3a05" stroke="none" /><path d="M 120.8583938346157 102.4346265915055 l 17.689718512161154 2.0647735116824393 a38.80981276414894,38.80981276414894 0 0,0 -0.08316109527614818,0.6628757522824127 l -17.651555907638155 -2.368967018252247" fill="#ffa70f" stroke="none" /><path d="M 120.81339534386255 102.79330883721812 l 15.197174359568667 2.0395711866322404 a36.33342620357472,36.33342620357472 0 0,0 -0.08852543959638971,0.6191467183530885 l -15.159814868955676 -2.3008633769657383" fill="#ff830c" stroke="none" /><path d="M 120.70491114924044 103.5080841355445 l 14.674317957591326 2.486305865111157 a35.88345807853045,35.88345807853045 0 0,0 -0.10842538458358746,0.6081071375714098 l -14.62934613066855 -2.7385317534157854" fill="#ff7d0b" stroke="none" /><path d="M 120.64145759157962 103.86396538481128 l 23.398736800239266 4.380112627381343 a44.80517318725946,44.80517318725946 0 0,0 -0.14843328103212466,0.7568581021201747 l -23.31987358623148 -4.782234456569463" fill="#fffb17" stroke="none" /><path d="M 120.49622156327973 104.57218783832717 l 16.64794744170156 3.7137353629328005 a38.057138809529434,38.057138809529434 0 0,0 -0.1481318565996824,0.6381481612605542 l -16.581555019171326 -3.9997521815419197" fill="#ff9d0e" stroke="none" /><line stroke="#e1ed5e" stroke-width="0.3" x1="174.80103733775053" x2="179.2010983576182" y1="140.37084112569926" y2="142.7455964860345" /><path d="M 175.68104954172406 140.8457921977663 a86.0,86.0 0 0,1 -30.038265399797805,32.042727171017184" fill="none" id="id41" stroke="none" /><text fill="#e1ed5e" style="font-size:6.75px; font-family:Arial;" text-anchor="middle"><textPath startOffset="22.206326154141568" xlink:href="#id41">May</textPath></text><line stroke="#e1ed5e" stroke-width="0.3" x1="143.8653032363475" x2="146.44561519142675" y1="172.8068346515853" y2="177.08958963109032" /><path d="M 144.38136562736335 173.6633856474863 a86.0,86.0 0 0,1 -40.68145358897372,12.25698825130547" fill="none" id="id42" stroke="none" /><text fill="#e1ed5e" style="font-size:6.75px; font-family:Arial;" text-anchor="middle"><textPath startOffset="21.466115282336833" xlink:href="#id42">June</textPath></text><line stroke="#e1ed5e" stroke-width="0.3" x1="102.19456741930631" x2="102.32365962044197" y1="184.97166512339345" y2="189.96999836594603" /><path d="M 102.22038585953345 185.97133177190398 a86.0,86.0 0 0,1 -42.740103519485714,-10.115201625700543" fill="none" id="id43" stroke="none" /><text fill="#e1ed5e" style="font-size:6.75px; font-family:Arial;" text-anchor="middle"><textPath startOffset="22.20632615414155" xlink:href="#id43">July</textPath></text><line stroke="#e1ed5e" stroke-width="0.3" x1="58.666819895761336" x2="56.23545636021788" y1="174.27360380694188" y2="178.64263932499728" /><path d="M 58.180547188652646 175.14741091055294 a86.0,86.0 0 0,1 -31.652253787137756,-30.449443065178592" fill="none" id="id44" stroke="none" /><text fill="#e1ed5e" style="font-size:6.75px; font-family:Arial;" text-anchor="middle"><textPath startOffset="22.20632615414155" xlink:href="#id44">August</textPath></text><line stroke="#e1ed5e" stroke-width="0.3" x1="26.63291911575756" x2="22.317208475507996" y1="142.92168965132927" y2="145.44649492493687" /><path d="M 25.769776987707644 143.4266507060508 a86.0,86.0 0 0,1 -11.730757126820373,-40.83630448921669" fill="none" id="id45" stroke="none" /><text fill="#e1ed5e" style="font-size:6.75px; font-family:Arial;" text-anchor="middle"><textPath startOffset="21.46611528233685" xlink:href="#id45">September</textPath></text><line stroke="#e1ed5e" stroke-width="0.3" x1="15.007084014347285" x2="10.007500721073583" y1="101.09737516637583" y2="101.16192664675087" /><path d="M 14.007167355692545 101.11028546245083 a86.0,86.0 0 0,1 10.666146001902534,-42.60595125391555" fill="none" id="id46" stroke="none" /><text fill="#e1ed5e" style="font-size:6.75px; font-family:Arial;" text-anchor="middle"><textPath startOffset="22.20632615414155" xlink:href="#id46">October</textPath></text><line stroke="#e1ed5e" stroke-width="0.3" x1="26.266209847984243" x2="21.928928074336255" y1="57.711370442889674" y2="55.22380399835377" /><path d="M 25.398753493254645 57.213857153982495 a86.0,86.0 0 0,1 29.58750427330803,-30.492523968695096" fill="none" id="id47" stroke="none" /><text fill="#e1ed5e" style="font-size:6.75px; font-family:Arial;" text-anchor="middle"><textPath startOffset="21.46611528233685" xlink:href="#id47">November</textPath></text><line stroke="#e1ed5e" stroke-width="0.3" x1="56.762969772571076" x2="54.21961505331055" y1="26.818313649435495" y2="22.513508569990535" /><path d="M 56.25429882871897 25.957352633546506 a86.0,86.0 0 0,1 42.265352541879196,-11.944610805530505" fill="none" id="id48" stroke="none" /><text fill="#e1ed5e" style="font-size:6.75px; font-family:Arial;" text-anchor="middle"><textPath startOffset="22.20632615414155" xlink:href="#id48">December</textPath></text></svg>