<?xml version="1.0" encoding="utf-8" ?>
<svg baseProfile="full" height="200mm" version="1.1" viewBox="0,0,200,200" width="200mm" xmlns="http://www.w3.org/2000/svg" xmlns:ev="http://www.w3.org/2001/xml-events" xmlns:xlink="http://www.w3.org/1999/xlink"><defs /><rect fill="#1a1a1a" height="200" width="200" x="0" y="0" /><text alignment-baseline="middle" fill="#e1ed5e" style="dominant-baseline: central; font-size:9.0px; font-family:Arial;" text-anchor="middle" x="100.0" y="100.0">2025</text><line stroke="#e1ed5e" stroke-width="0.3" x1="100.0" x2="100.0" y1="15.0" y2="10.0" /><path d="M 100.0 14.0 a86.0,86.0 0 0,1 42.46469731375804,11.215312516191453" fill="none" id="id37" stroke="none" /><text fill="#e1ed5e" style="font-size:6.75px; font-family:Arial;" text-anchor="middle"><textPath startOffset="22.20632615414155" xlink:href="#id37">January</textPath></text><path d="M 100.0 79.0 l 0.0 -18.39356276518236 a39.39356276518236,39.39356276518236 0 0,0 0.6780954261243118,0.0058365814150182875 l -0.31661494685178343 18.3908375603759" fill="#ff8d0d" stroke="none" /><path d="M 100.36148047927253 79.00311137660856 l 0.3644116114320606 -21.167145826817737 a42.170282432606186,42.170282432606186 0 0,0 0.7256769932120787,0.018742095778995865 l -0.7287152398390071 21.157736938896385" fill="#ffb711" stroke="none" /><path d="M 101.08401301168833 79.027996857942 l 2.4154168126982354 -46.73018537516553 a67.7925684652638,67.7925684652638 0 0,0 1.1648634051860058,0.07026774170479473 l -3.219442266723853 46.68168436408044" fill="#36ff6b" stroke="none" /><path d="M 102.16513564639614 79.11191278185805 l 2.3227350284661274 -22.4085229671366 a43.52858183688339,43.52858183688339 0 0,0 0.7446150449909675,0.08366617631536767 l -2.70811677696682 22.365220837350634" fill="#ffcb12" stroke="none" /><path d="M 102.52436894288641 79.15227682838746 l 2.1635593416981256 -17.867945312900513 a38.99845712081601,38.99845712081601 0 0,0 0.6657320232728977,0.08643112325782337 l -2.470806093478869 17.828055866478554" fill="#ff860c" stroke="none" /><path d="M 102.88285421437855 79.19881850522331 l 3.248446535140835 -23.439106152687973 a44.66313804482921,44.66313804482921 0 0,0 0.7606154093441888,0.11209493950678934 l -3.65143092491368 23.379716729020213" fill="#ffdc14" stroke="none" /><path d="M 103.59715602781102 79.31037775812273 l 8.632526969411504 -49.65136919529928 a71.39621994599923,71.39621994599923 0 0,0 1.20899257845751,0.22093566602702672 l -9.485914668971915 49.49541804792151" fill="#3bff9a" stroke="none" /><path d="M 103.95276090670814 79.375362276772 l 1.833960443313798 -9.569202548498769 a30.74335919084558,30.74335919084558 0 0,0 0.5188799610977739,0.10408243882697707 l -1.9984068138786972 9.536216153594582" fill="#ff0000" stroke="none" /><path d="M 104.66035177308747 79.52364482259891 l 5.2681369033967025 -23.14680256114221 a44.73873912484464,44.73873912484464 0 0,0 0.7494299380611117,0.17736585322888443 l -5.665790528420337 23.052690795772456" fill="#ffdd14" stroke="none" /><path d="M 105.01212808612495 79.60689891045804 l 4.413027017586723 -17.955508026552522 a39.489864140916296,39.489864140916296 0 0,0 0.6587118283618547,0.16792031188010909 l -4.721447734633602 17.876884718503543" fill="#ff8e0d" stroke="none" /><path d="M 105.36241919743992 79.69619591428918 l 6.700668329000063 -25.37083580863947 a47.2407748682124,47.2407748682124 0 0,0 0.7844265672025303,0.21441341270169603 l -7.136392785426304 25.25173585511148" fill="#fdff18" stroke="none" /><path d="M 106.0581310904928 79.89281104454417 l 15.577495008627087 -51.702353566214505 a74.99807140102001,74.99807140102001 0 0,0 1.2328776793389555,0.38306109631164276 l -16.46515806067676 51.42655233502034" fill="#40ffc6" stroke="none" /><path d="M 106.40334571778207 80.00007090966166 l 5.026515243084747 -15.69959718933001 a37.484635494792784,37.484635494792784 0 0,0 0.6128152032068553,0.20203553757883988 l -5.29601326853402 15.610747927491936" fill="#ff6f0a" stroke="none" /><path d="M 107.08798089147638 80.2323363322302 l 9.119688507229705 -25.43389124856857 a48.01946599237132,48.01946599237132 0 0,0 0.7756691224559552,0.28568548394153304 l -9.556139955458237 25.273142496820714" fill="#f2ff19" stroke="none" /><path d="M 107.4271985657038 80.35727306442388 l 6.540696701156377 -17.298193677290445 a39.493464192345606,39.493464192345606 0 0,0 0.6338077288239665,0.2459075519898391 l -6.8374875949800105 17.183043421410062" fill="#ff8e0d" stroke="none" /><path d="M 108.09893153111575 80.62456947434976 l 22.212446937908595 -53.13981489986121 a78.59542279175417,78.59542279175417 0 0,0 1.243739788430341,0.5325044692749911 l -23.123870484129252 52.749590902623424" fill="#45fff1" stroke="none" /><path d="M 108.76106565485865 80.91482961587045 l 11.29037137912295 -24.595028728173343 a48.06266660952299,48.06266660952299 0 0,0 0.7489119875085334,0.35162421994865795 l -11.712061577931081 24.39703952558468" fill="#f2ff19" stroke="none" /><path d="M 109.08828744355905 81.06846463323043 l 7.801601259139864 -16.251278480360334 a39.02689752710753,39.02689752710753 0 0,0 0.6031118860469485,0.2959443831970743 l -8.080184412197244 16.114578937028426" fill="#ff870c" stroke="none" /><path d="M 109.41281617654863 81.2277094730956 l 12.218144410882791 -24.367049380206296 a48.258689409848714,48.258689409848714 0 0,0 0.7393679619204957,0.37873298730312094 l -12.635772860392043 24.153123867590676" fill="#efff19" stroke="none" /><path d="M 109.73455568895987 81.39251694778311 l 8.475025254597814 -16.19990617249107 a39.2828611837312,39.2828611837312 0 0,0 0.5964540416654012,0.3186050925460909 l -8.752624342791526 16.051622353443225" fill="#ff8b0c" stroke="none" /><path d="M 110.36928655335952 81.73862282372117 l 9.564470286778539 -16.84401318252574 a40.37007671538165,40.37007671538165 0 0,0 0.6013281860569879,0.34832809841294854 l -9.852995205300855 16.67688092672274" fill="#ff9c0e" stroke="none" /><line stroke="#e1ed5e" stroke-width="0.3" x1="143.23703022742887" x2="145.7803849466894" y1="26.81831364943548" y2="22.513508569990506" /><path d="M 143.74570117128098 25.957352633546492 a86.0,86.0 0 0,1 28.547481713284135,27.462654790039103" fill="none" id="id38" stroke="none" /><text fill="#e1ed5e" style="font-size:6.75px; font-family:Arial;" text-anchor="middle"><textPath startOffset="19.985693538727396" xlink:href="#id38">February</textPath></text><path d="M 110.99172775467656 82.1063720568725 l 28.27012268595747 -46.021432529919544 a75.01085158359405,75.01085158359405 0 0,0 1.094375632831424,0.6852979208808242 l -29.058117471161157 45.52799026771577" fill="#40ffc6" stroke="none" /><path d="M 111.2981086023043 82.29822771554956 l 5.930623330091415 -9.292045898082073 a32.02335747653538,32.02335747653538 0 0,0 0.4621015838327488,0.300563724316626 l -6.089691939708445 9.18858324960592" fill="#ff1602" stroke="none" /><path d="M 111.60114157652 82.49532879139004 l 14.279551968356179 -21.54605739130323 a46.84836926241803,46.84836926241803 0 0,0 0.6683595955109192,0.45127938238191934 l -14.64831625827364 21.29706609662264" fill="#fffb17" stroke="none" /><path d="M 111.90073688211348 82.69761687909136 l 10.31094573388788 -14.990998893082288 a39.194659923713196,39.194659923713196 0 0,0 0.5525865856200054,0.38712221670909736 l -10.567463459091536 14.811291833609255" fill="#ff8a0c" stroke="none" /><path d="M 112.19680574252982 82.90503203632743 l 16.038331710123 -22.479227148733635 a48.61419448849269,48.61419448849269 0 0,0 0.6770213747546437,0.4918848211279007 l -16.422898401231432 22.19982309278906" fill="#eaff1a" stroke="none" /><path d="M 112.48926042617603 83.11751280151076 l 11.336842061732666 -15.324693732653419 a40.06227231817597,40.06227231817597 0 0,0 0.550863581954875,0.4148990293286854 l -11.598951797445924 15.127278113818885" fill="#ff970d" stroke="none" /><path d="M 113.06298171725822 83.55741782278167 l 27.994742973033034 -35.23742678565228 a66.00424291775596,66.00424291775596 0 0,0 0.8835032554526169,0.7143981890430087 l -28.597149627050143 34.750322499345145" fill="#33ff52" stroke="none" /><path d="M 113.6212207817346 84.01681056812373 l 19.34746921305655 -22.702389926337947 a50.82822611751597,50.82822611751597 0 0,0 0.6610239884037198,0.5732334889051587 l -19.735387000107032 22.36599144401312" fill="#ccff1d" stroke="none" /><path d="M 113.89432698308785 84.25364557470407 l 12.431233450432511 -14.088239616957871 a39.788668409548706,39.788668409548706 0 0,0 0.5096530771597684,0.45757156479313116 l -12.67189751518827 13.872169043395441" fill="#ff930d" stroke="none" /><path d="M 114.16331599549186 84.49514656593476 l 20.072538179356474 -21.973792198074367 a50.7616251660738,50.7616251660738 0 0,0 0.6400608642732115,0.5948668169889941 l -20.447806927424534 21.625020795010734" fill="#cdff1d" stroke="none" /><path d="M 114.68862486808459 84.99185889309783 l 40.286857114727695 -41.16320225763133 a78.59722281746882,78.59722281746882 0 0,0 0.9587521281955981,0.9546349418667032 l -40.98944504309062 40.46363146511451" fill="#45fff1" stroke="none" /><path d="M 114.94478906791727 85.2469230424477 l 13.296782284745316 -13.12621084467431 a39.68426691809883,39.68426691809883 0 0,0 0.4757118167633314,0.490262843423855 l -13.520758365211755 12.895383805700341" fill="#ff910d" stroke="none" /><path d="M 115.4437574822437 85.77008943001954 l 23.831823250575 -21.958691980573295 a53.405862940899155,53.405862940899155 0 0,0 0.6171082033808366,0.681426291356115 l -24.206275094571872 21.545212901947632" fill="#aaff21" stroke="none" /><path d="M 115.68641384162765 86.03803664274999 l 14.370753108414387 -12.79093681586493 a40.23867483821198,40.23867483821198 0 0,0 0.4560539052542744,0.5213484505945403 l -14.58879887724651 12.54167280906744" fill="#ff9a0e" stroke="none" /><path d="M 115.9244219780498 86.31012108654704 l 20.93413470627494 -17.996619888737335 a48.60645437791969,48.60645437791969 0 0,0 0.539969996304348,0.639154160320174 l -21.240815316066406 17.633606778788053" fill="#eaff1a" stroke="none" /><path d="M 116.38621287248628 86.86637796730983 l 49.158638617458855 -39.400866098070516 a84.0,84.0 0 0,0 0.8945836776241438,1.1360304241878465 l -49.829576375676965 38.54884327992963" fill="#4dd2ff" stroke="none" /><path d="M 116.60985879189232 87.15038557335679 l 15.092882445707836 -11.676060732597149 a40.082072601037154,40.082072601037154 0 0,0 0.41747207826336535,0.5493443194676282 l -15.291630464195315 11.414531637248487" fill="#ff970e" stroke="none" /><path d="M 117.04232023915458 87.72973835380427 l 24.71833962463314 -17.79690150153065 a51.45859512278747,51.45859512278747 0 0,0 0.5113694954641527,0.7232958862096427 l -25.021021739901176 17.368779114989213" fill="#c3ff1e" stroke="none" /><path d="M 117.2510076193507 88.02491185347247 l 15.1520228925116 -10.518041249515072 a39.44486349804997,39.44486349804997 0 0,0 0.3823813887256856,0.5610975045698322 l -15.330828746906018 10.255665721674832" fill="#ff8d0d" stroke="none" /><path d="M 117.45458315368197 88.32363383020206 l 20.32789793932001 -13.598490305493902 a45.45694938499122,45.45694938499122 0 0,0 0.42946722401651255,0.654108046229787 l -20.558961798694448 13.24656419528644" fill="#ffe715" stroke="none" /><line stroke="#e1ed5e" stroke-width="0.3" x1="172.23445277983987" x2="176.4835382374775" y1="55.19839476539836" y2="52.563006222186495" /><path d="M 173.08426987136738 54.67131705675599 a86.0,86.0 0 0,1 12.851231095245387,41.99856678651699" fill="none" id="id39" stroke="none" /><text fill="#e1ed5e" style="font-size:6.75px; font-family:Arial;" text-anchor="middle"><textPath startOffset="22.20632615414155" xlink:href="#id39">March</textPath></text><path d="M 117.84615892207809 88.93136811851018 l 9.054250602989773 -5.6156715472968095 a31.6543522050315,31.6543522050315 0 0,0 0.2832072711813834,0.46551828948415286 l -9.14957367245738 5.458985484605575" fill="#ff0f01" stroke="none" /><path d="M 118.03404312379186 89.2402003453031 l 32.83582428625438 -19.591108238552394 a59.23614623066044,59.23614623066044 0 0,0 0.5149040674318119,0.8801379598467266 l -33.168188028156514 19.022990866351773" fill="#61ff29" stroke="none" /><path d="M 118.3937258080291 89.86733742301442 l 27.02655019082285 -14.888278566381256 a51.85604080058286,51.85604080058286 0 0,0 0.42396486724080534,0.7855425098930152 l -27.27882315728212 14.420855073155781" fill="#beff1f" stroke="none" /><path d="M 118.73160827565052 90.50648371742162 l 19.6459914165225 -9.95694211919849 a43.02511464449492,43.02511464449492 0 0,0 0.3291216123414188,0.6634890872072902 l -19.814473041817326 9.617293443492251" fill="#ffc412" stroke="none" /><path d="M 119.04729006885535 91.15688171328212 l 9.732215840264583 -4.518392671934624 a31.72995328504693,31.72995328504693 0 0,0 0.22573245255463087,0.49737153723366373 l -9.80855060978256 4.3501991258588975" fill="#ff1101" stroke="none" /><path d="M 119.196687751892 91.48605970444005 l 34.95898415455768 -15.504690586843308 a59.24298632837612,59.24298632837612 0 0,0 0.40541750057384296,0.9357594877317408 l -35.220692364974205 14.900631954524966" fill="#61ff29" stroke="none" /><path d="M 119.47837535516314 92.15188598940014 l 15.108200281907266 -6.0873084199989735 a37.28843269189559,37.28843269189559 0 0,0 0.2347510150795555,0.5974157278602303 l -15.21074484686852 5.826343687242959" fill="#ff6c09" stroke="none" /><path d="M 119.7369772167798 92.82701384747503 l 13.645777073719277 -4.9592685300875505 a35.51900741439164,35.51900741439164 0 0,0 0.20389080554754496,0.5764267635140641 l -13.729120960076632 4.723644140146871" fill="#ff4f07" stroke="none" /><line stroke="#e1ed5e" stroke-width="0.3" x1="184.98032266829074" x2="189.97916517819016" y1="98.17113171792111" y2="98.06355123074" /><path d="M 185.9800911702706 98.14961562048488 a86.0,86.0 0 0,1 -9.607161424134198,41.387399972396054" fill="none" id="id40" stroke="none" /><text fill="#e1ed5e" style="font-size:6.75px; font-family:Arial;" text-anchor="middle"><textPath startOffset="21.466115282336823" xlink:href="#id40">April</textPath></text><line stroke="#e1ed5e" stroke-width="0.3" x1="174.80103733775053" x2="179.2010983576182" y1="140.37084112569926" y2="142.7455964860345" /><path d="M 175.68104954172406 140.8457921977663 a86.0,86.0 0 0,1 -30.038265399797805,32.042727171017184" fill="none" id="id41" stroke="none" /><text fill="#e1ed5e" style="font-size:6.75px; font-family:Arial;" text-anchor="middle"><textPath startOffset="22.206326154141568" xlink:href="#id41">May</textPath></text><line stroke="#e1ed5e" stroke-width="0.3" x1="143.8653032363475" x2="146.44561519142675" y1="172.8068346515853" y2="177.08958963109032" /><path d="M 144.38136562736335 173.6633856474863 a86.0,86.0 0 0,1 -40.68145358897372,12.25698825130547" fill="none" id="id42" stroke="none" /><text fill="#e1ed5e" style="font-size:6.75px; font-family:Arial;" text-anchor="middle"><textPath startOffset="21.466115282336833" xlink:href="#id42">June</textPath></text><line stroke="#e1ed5e" stroke-width="0.3" x1="102.19456741930631" x2="102.32365962044197" y1="184.97166512339345" y2="189.96999836594603" /><path d="M 102.22038585953345 185.97133177190398 a86.0,86.0 0 0,1 -42.740103519485714,-10.115201625700543" fill="none" id="id43" stroke="none" /><text fill="#e1ed5e" style="font-size:6.75px; font-family:Arial;" text-anchor="middle"><textPath startOffset="22.20632615414155" xlink:href="#id43">July</textPath></text><line stroke="#e1ed5e" stroke-width="0.3" x1="58.666819895761336" x2="56.23545636021788" y1="174.27360380694188" y2="178.64263932499728" /><path d="M 58.180547188652646 175.14741091055294 a86.0,86.0 0 0,1 -31.652253787137756,-30.449443065178592" fill="none" id="id44" stroke="none" /><text fill="#e1ed5e" style="font-size:6.75px; font-family:Arial;" text-anchor="middle"><textPath startOffset="22.20632615414155" xlink:href="#id44">August</textPath></text><line stroke="#e1ed5e" stroke-width="0.3" x1="26.63291911575756" x2="22.317208475507996" y1="142.92168965132927" y2="145.44649492493687" /><path d="M 25.769776987707644 143.4266507060508 a86.0,86.0 0 0,1 -11.730757126820373,-40.83630448921669" fill="none" id="id45" stroke="none" /><text fill="#e1ed5e" style="font-size:6.75px; font-family:Arial;" text-anchor="middle"><textPath startOffset="21.46611528233685" xlink:href="#id45">September</textPath></text><line stroke="#e1ed5e" stroke-width="0.3" x1="15.007084014347285" x2="10.007500721073583" y1="101.09737516637583" y2="101.16192664675087" /><path d="M 14.007167355692545 101.11028546245083 a86.0,86.0 0 0,1 10.666146001902534,-42.60595125391555" fill="none" id="id46" stroke="none" /><text fill="#e1ed5e" style="font-size:6.75px; font-family:Arial;" text-anchor="middle"><textPath startOffset="22.20632615414155" xlink:href="#id46">October</textPath></text><line stroke="#e1ed5e" stroke-width="0.3" x1="26.266209847984243" x2="21.928928074336255" y1="57.711370442889674" y2="55.22380399835377" /><path d="M 25.398753493254645 57.213857153982495 a86.0,86.0 0 0,1 29.58750427330803,-30.492523968695096" fill="none" id="id47" stroke="none" /><text fill="#e1ed5e" style="font-size:6.75px; font-family:Arial;" text-anchor="middle"><textPath startOffset="21.46611528233685" xlink:href="#id47">November</textPath></text><line stroke="#e1ed5e" stroke-width="0.3" x1="56.762969772571076" x2="54.21961505331055" y1="26.818313649435495" y2="22.513508569990535" /><path d="M 56.25429882871897 25.957352633546506 a86.0,86.0 0 0,1 42.265352541879196,-11.944610805530505" fill="none" id="id48" stroke="none" /><text fill="#e1ed5e" style="font-size:6.75px; font-family:Arial;" text-anchor="middle"><textPath startOffset="22.20632615414155" xlink:href="#id48">December</textPath></text></svg>