<?xml version="1.0" encoding="utf-8" ?>
<svg baseProfile="full" height="200mm" version="1.1" viewBox="0,0,200,200" width="200mm" xmlns="http://www.w3.org/2000/svg" xmlns:ev="http://www.w3.org/2001/xml-events" xmlns:xlink="http://www.w3.org/1999/xlink"><defs /><rect fill="#1a1a1a" height="200" width="200" x="0" y="0" /><text alignment-baseline="middle" fill="#e1ed5e" style="dominant-baseline: central; font-size:9.0px; font-family:Arial;" text-anchor="middle" x="100.0" y="100.0">2026</text><line stroke="#e1ed5e" stroke-width="0.3" x1="100.0" x2="100.0" y1="15.0" y2="10.0" /><path d="M 100.0 14.0 a86.0,86.0 0 0,1 42.46469731375804,11.215312516191453" fill="none" id="id49" stroke="none" /><text fill="#e1ed5e" style="font-size:6.75px; font-family:Arial;" text-anchor="middle"><textPath startOffset="22.20632615414155" xlink:href="#id49">January</textPath></text><path d="M 100.0 79.0 l 0.0 -17.59996232102486 a38.59996232102486,38.59996232102486 0 0,0 0.6644348990336002,0.005719000945566212 l -0.3029544197610718 17.597354696687855" fill="#ffde14" stroke="none" /><path d="M 100.72285384407766 79.0124445844662 l 0.9973058876153104 -28.95607840236609 a49.97324792765637,49.97324792765637 0 0,0 0.8594426963978065,0.03700941039262519 l -1.4955894164024484 28.93462126544927" fill="#9aff23" stroke="none" /><path d="M 101.08401301168833 79.027996857942 l 0.7789046018423676 -15.069182363189375 a36.08929917106255,36.08929917106255 0 0,0 0.6201137510333573,0.03740695491953017 l -1.0381804017153369 15.053542138889542" fill="#ffbe11" stroke="none" /><path d="M 101.80526077348638 79.07773832637324 l 1.5175685940794188 -17.5880225723229 a38.653372268274296,38.653372268274296 0 0,0 0.6623989253608901,0.06290275952001832 l -1.8200926465305531 17.5592942682877" fill="#ffde14" stroke="none" /><path d="M 102.52436894288641 79.15227682838746 l 1.9622355422662605 -16.205294989840493 a37.323662396382815,37.323662396382815 0 0,0 0.6371420593927994,0.08271932540872914 l -2.240892330166906 16.169117341267626" fill="#ffce13" stroke="none" /><path d="M 103.2404852339499 79.25152402106235 l 1.6997285207918846 -10.883177622561831 a32.01510926902788,32.01510926902788 0 0,0 0.5437549732635634,0.08972422966088343 l -1.8868127001943231 10.852307129961323" fill="#ff880c" stroke="none" /><path d="M 103.59715602781102 79.31037775812273 l 9.608544995312315 -55.26509406601022 a77.09415975885457,77.09415975885457 0 0,0 1.30547901641529,0.23856794583802038 l -10.558419132830506 55.09151063882147" fill="#44ffea" stroke="none" /><path d="M 104.66035177308747 79.52364482259891 l 2.3434334810753166 -10.296427958553362 a31.55974001507159,31.55974001507159 0 0,0 0.5286651896630093,0.1251179699060054 l -2.5203223577008496 10.254564076506488" fill="#ff820c" stroke="none" /><path d="M 105.01212808612495 79.60689891045804 l 4.0917900728224295 -16.64847489098502 a38.143933685003766,38.143933685003766 0 0,0 0.6362609962116513,0.162197094876392 l -4.377759957719106 16.57557479993976" fill="#ffd814" stroke="none" /><path d="M 105.71112130821622 79.79150937346287 l 6.844451083019232 -24.21871609625938 a46.16729464958553,46.16729464958553 0 0,0 0.7628810887929077,0.22270590939550539 l -7.260322389535567 24.097311857945172" fill="#c5ff1e" stroke="none" /><path d="M 106.0581310904928 79.89281104454417 l 3.8618493280326733 -12.817638475686515 a34.38677467972871,34.38677467972871 0 0,0 0.5652770287972885,0.17563432447489802 l -4.08191172954068 12.749264016329095" fill="#ffa80f" stroke="none" /><path d="M 106.74666289553966 80.11325718540242 l 6.3962804404648415 -18.853940986685487 a40.909382064807836,40.909382064807836 0 0,0 0.6649099191128603,0.23197401492997688 l -6.719872363640976 18.741046118583302" fill="#fffa17" stroke="none" /><path d="M 107.08798089147638 80.2323363322302 l 4.796093576090051 -13.375821151734453 a35.20968349660889,35.20968349660889 0 0,0 0.5687498545715889,0.2094753713161854 l -5.025625756434216 13.291282512611943" fill="#ffb210" stroke="none" /><path d="M 107.4271985657038 80.35727306442388 l 6.0617208891806635 -16.03144538718421 a38.13918613413715,38.13918613413715 0 0,0 0.6120737047816899,0.23747508831975822 l -6.33677775896202 15.924727594973904" fill="#ffd814" stroke="none" /><path d="M 108.09893153111575 80.62456947434976 l 11.19380770921123 -26.779439084532072 a50.02481160512434,50.02481160512434 0 0,0 0.7916217814220167,0.33893113374997863 l -11.653113248423562 26.582788422819302" fill="#99ff23" stroke="none" /><path d="M 108.43124777332544 80.76684994638697 l 5.688074279630441 -12.975491775054309 a35.16748304446119,35.16748304446119 0 0,0 0.5523268931704579,0.2478129770230885 l -5.910583291267679 12.87565846751469" fill="#ffb210" stroke="none" /><path d="M 109.08828744355905 81.06846463323043 l 8.737688663316758 -18.20121370287817 a41.18988319517709,41.18988319517709 0 0,0 0.6365381240628156,0.3123464930229024 l -9.049698054390005 18.048112049720434" fill="#fffe18" stroke="none" /><path d="M 109.41281617654863 81.2277094730956 l 6.135118004044094 -12.235468687436619 a34.687452901281084,34.687452901281084 0 0,0 0.5314440087260087,0.27222626266674815 l -6.344822500358858 12.12804989945737" fill="#ffac0f" stroke="none" /><path d="M 109.73455568895987 81.39251694778311 l 8.982212201996608 -17.169387762568352 a40.376996985681984,40.376996985681984 0 0,0 0.6130669283426738,0.32747912126839 l -9.276424176867593 17.01222991479821" fill="#fff417" stroke="none" /><path d="M 110.36928655335952 81.73862282372117 l 17.126513793011103 -30.16154741982602 a55.684815373021856,55.684815373021856 0 0,0 0.8294472476545788,0.4804693829568676 l -17.64315777313101 29.862273879479105" fill="#5dff2a" stroke="none" /><line stroke="#e1ed5e" stroke-width="0.3" x1="143.23703022742887" x2="145.7803849466894" y1="26.81831364943548" y2="22.513508569990506" /><path d="M 143.74570117128098 25.957352633546492 a86.0,86.0 0 0,1 28.547481713284135,27.462654790039103" fill="none" id="id50" stroke="none" /><text fill="#e1ed5e" style="font-size:6.75px; font-family:Arial;" text-anchor="middle"><textPath startOffset="19.985693538727396" xlink:href="#id50">February</textPath></text><path d="M 110.68208982089419 81.91981866633111 l 7.936301698884388 -13.432743614818497 a36.60203466465712,36.60203466465712 0 0,0 0.5396846850378494,0.3251539841621479 l -8.166348450139875 13.294143021197735" fill="#ffc412" stroke="none" /><path d="M 111.2981086023043 82.29822771554956 l 11.068159029457844 -17.34148941598834 a41.57258854559156,41.57258854559156 0 0,0 0.5998983406103322,0.3901905679909228 l -11.365024395852457 17.148399923837893" fill="#fcff18" stroke="none" /><path d="M 111.60114157652 82.49532879139004 l 8.068636221318418 -12.174562582868447 a35.60557648831952,35.60557648831952 0 0,0 0.5079649318499684,0.3429801894916947 l -8.277005847574927 12.033870481078083" fill="#ffb811" stroke="none" /><path d="M 111.90073688211348 82.69761687909136 l 10.466056864995078 -15.216513686268573 a39.46836850037678,39.46836850037678 0 0,0 0.5564454706856705,0.3898256123026944 l -10.726433475264399 15.034103231201943" fill="#ffe915" stroke="none" /><path d="M 112.48926042617603 83.11751280151076 l 21.968361249509584 -29.695959961673186 a57.93858327053504,57.93858327053504 0 0,0 0.7966661316741525,0.6000324137559723 l -22.47627353494212 29.313410958411367" fill="#46ff2c" stroke="none" /><path d="M 112.77801427241765 83.33499621200491 l 8.027584449966474 -10.469523856763558 a34.192916352675205,34.192916352675205 0 0,0 0.46399371450805643,0.3621544539198848 l -8.20661071963396 10.329791013620449" fill="#ffa50f" stroke="none" /><path d="M 113.06298171725822 83.55741782278167 l 1.4911191828347305 -1.876895354404027 a23.39711755840241,23.39711755840241 0 0,0 0.31318334424066613,0.2532391506009163 l -1.5232059256398878 1.850950106538981" fill="#ff1001" stroke="none" /><path d="M 113.34407831869373 83.78471172551755 l 13.556256203037691 -16.473119911702934 a42.333911077618694,42.333911077618694 0 0,0 0.558691637438331,0.4678881792432509 l -13.83780537743514 16.237330575065865" fill="#f2ff19" stroke="none" /><path d="M 113.6212207817346 84.01681056812373 l 9.731765186749223 -11.41928825461293 a36.00357950263753,36.00357950263753 0 0,0 0.4682286110992647,0.40604323754393085 l -9.926887596495252 11.250080023649328" fill="#ffbd11" stroke="none" /><path d="M 113.89432698308785 84.25364557470407 l 13.30710756211208 -15.080862304709145 a41.112471740768655,41.112471740768655 0 0,0 0.5266096748112918,0.47279536558761326 l -13.564728224519362 14.849567930352235" fill="#fffd17" stroke="none" /><path d="M 114.42810811169701 84.74124197986012 l 29.905434334003473 -31.627139362769196 a64.52712886209494,64.52712886209494 0 0,0 0.8004951576264993,0.77007570740521 l -30.445412735242392 31.107680568601683" fill="#35ff62" stroke="none" /><path d="M 114.68862486808459 84.99185889309783 l 9.230662462630148 -9.431453658425655 a34.196872645064055,34.196872645064055 0 0,0 0.4171435484715624,0.4153522015066423 l -9.391641811269034 9.271165606268893" fill="#ffa50f" stroke="none" /><path d="M 114.94478906791727 85.2469230424477 l 15.94805329258466 -15.743471284833348 a43.40975885455916,43.40975885455916 0 0,0 0.5203708384629967,0.5362878909241954 l -16.216688394750765 15.466619198359037" fill="#e5ff1a" stroke="none" /><path d="M 115.68641384162765 86.03803664274999 l 11.334133407372489 -10.088141044702791 a36.17343632253203,36.17343632253203 0 0,0 0.40997962700529633,0.46867758581162916 l -11.506104897955634 9.891547902688213" fill="#ffbf11" stroke="none" /><path d="M 115.9244219780498 86.31012108654704 l 16.239430325392544 -13.96068473220062 a42.415410700828936,42.415410700828936 0 0,0 0.4711935781470641,0.5577445744209397 l -16.477334517026726 13.679081208150574" fill="#f1ff19" stroke="none" /><path d="M 116.15771136456269 86.58626213691792 l 11.164487449402367 -9.268485161234112 a35.51036171816126,35.51036171816126 0 0,0 0.38638910473866733,0.4736673552475928 l -11.322375046217443 9.074933636378418" fill="#ffb610" stroke="none" /><path d="M 116.38621287248628 86.86637796730983 l 22.1410417778731 -17.7461428326035 a49.375188394875664,49.375188394875664 0 0,0 0.5258361621151526,0.6677585263879219 l -22.443232020582215 17.362391912262538" fill="#a1ff22" stroke="none" /><path d="M 116.82858285166822 87.43820079747576 l 10.605262159825472 -7.916363184951726 a34.23406179351922,34.23406179351922 0 0,0 0.348433282418756,0.4752626056419845 l -10.739958054757853 7.732638135638249" fill="#ffa60f" stroke="none" /><path d="M 117.04232023915458 87.72973835380427 l 18.55990439509035 -13.362903634032056 a43.870007535795025,43.870007535795025 0 0,0 0.43595794961090373,0.6166316026100583 l -18.787174964505137 13.041445531090204" fill="#e0ff1b" stroke="none" /><path d="M 117.2510076193507 88.02491185347247 l 10.215079511752295 -7.090975801309472 a33.43502260738508,33.43502260738508 0 0,0 0.3241215520322094,0.47560838310841524 l -10.335625529453237 6.9140893949306514" fill="#ff9b0e" stroke="none" /><path d="M 117.65298651832404 88.62581576622439 l 7.601182658891763 -4.897599160746623 a30.042370007535794,30.042370007535794 0 0,0 0.2763503251820998,0.4371198487639401 l -7.684360580319819 4.766031664268477" fill="#ff6d0a" stroke="none" /><line stroke="#e1ed5e" stroke-width="0.3" x1="172.23445277983987" x2="176.4835382374775" y1="55.19839476539836" y2="52.563006222186495" /><path d="M 173.08426987136738 54.67131705675599 a86.0,86.0 0 0,1 12.851231095245387,41.99856678651699" fill="none" id="id51" stroke="none" /><text fill="#e1ed5e" style="font-size:6.75px; font-family:Arial;" text-anchor="middle"><textPath startOffset="22.20632615414155" xlink:href="#id51">March</textPath></text><path d="M 117.84615892207809 88.93136811851018 l 47.83373532180734 -29.66767303291785 a77.28709495101732,77.28709495101732 0 0,0 0.6914773398880335,1.136606935051353 l -48.33732845998159 28.839898324659416" fill="#45ffec" stroke="none" /><path d="M 118.21658344932153 89.55222093294921 l 11.813781542397855 -6.775572370348753 a34.61887716654107,34.61887716654107 0 0,0 0.2920223598613628,0.5194751934628061 l -11.928661543551652 6.571213666951152" fill="#ffab0f" stroke="none" /><path d="M 118.3937258080291 89.86733742301442 l 17.37724259331762 -9.572706343140617 a40.83948756593821,40.83948756593821 0 0,0 0.33389567843522866,0.6186579821753591 l -17.539446370971312 9.2721673776328" fill="#fffa17" stroke="none" /><path d="M 118.56541770881063 90.18545643968196 l 7.194624006598244 -3.803412981080298 a29.138093443858327,29.138093443858327 0 0,0 0.2305941079080149,0.4454344198478825 l -7.259027547666375 3.679005838972071" fill="#ff6109" stroke="none" /><path d="M 118.73160827565052 90.50648371742162 l 12.594783333797418 -6.383262926247603 a35.120007535795025,35.120007535795025 0 0,0 0.268651312172682,0.5415846520148496 l -12.702794658923509 6.165518685733804" fill="#ffb110" stroke="none" /><path d="M 119.04729006885535 91.15688171328212 l 25.51600048661281 -11.84635765462609 a49.13187641296157,49.13187641296157 0 0,0 0.34953278568284,0.7701491609256537 l -25.716135589259 11.405386484858372" fill="#a3ff21" stroke="none" /><path d="M 119.34039704204932 91.81776055985345 l 12.23045705937181 -5.174274752717642 a34.27995478522984,34.27995478522984 0 0,0 0.22523287308968756,0.5454192674979175 l -12.317711619347694 4.962980914766421" fill="#ffa60f" stroke="none" /><path d="M 119.47837535516314 92.15188598940014 l 11.778276582194538 -4.745634878677843 a33.69837980406933,33.69837980406933 0 0,0 0.21214967469686694,0.53989778183233 l -11.858219806773105 4.542188091949729" fill="#ff9f0e" stroke="none" /><path d="M 119.61058180528143 92.48833698450437 l 9.65886423995245 -3.699744046523099 a31.3431989449887,31.3431989449887 0 0,0 0.18864935849177486,0.5054864901978231 l -9.721118186945851 3.532934419295943" fill="#ff7f0b" stroke="none" /><path d="M 119.85752413597 93.16781622104841 l 5.8044974626789445 -1.9970965734668378 a27.13845139412208,27.13845139412208 0 0,0 0.14817944189015797,0.443037670616213 l -5.838014198340873 1.8968857999283109" fill="#ff4506" stroke="none" /><path d="M 119.97218684219823 93.5106431181261 l 30.730879302156552 -9.985067967826817 a53.31235870384326,53.31235870384326 0 0,0 0.27606793602025226,0.8752107995507147 l -30.89820272194501 9.454607001849682" fill="#76ff27" stroke="none" /><path d="M 120.37134235888165 94.90015583598534 l 11.190038228295261 -2.8013593875315586 a32.53536171816127,32.53536171816127 0 0,0 0.13133007168332692,0.5444479333840508 l -11.236601100239406 2.6083262224881016" fill="#ff8f0d" stroke="none" /><path d="M 120.53481517161879 95.60439243477599 l 10.033998797435684 -2.1478411495232406 a31.261303692539563,31.261303692539563 0 0,0 0.10810561356034906,0.5271613646474707 l -10.06948370691103 1.974804128712358" fill="#ff7e0b" stroke="none" /><path d="M 120.6074358757038 95.95851677861258 l 21.909312319496692 -4.296804253836297 a43.32667671439337,43.32667671439337 0 0,0 0.13723059700235388,0.7330913365388698 l -21.980028640408904 3.9190348398348642" fill="#e6ff1a" stroke="none" /><path d="M 120.73433829027371 96.67025291283417 l 12.679795259012463 -2.0362603685964316 a33.8422569706104,33.8422569706104 0 0,0 0.08741633301754222,0.5759644133310191 l -12.712967485469305 1.81769684287333" fill="#ffa10e" stroke="none" /><path d="M 120.78858239683441 97.02765380044208 l 10.306823538244643 -1.4736669960757172 a31.41164280331575,31.41164280331575 0 0,0 0.07192368867378798,0.53591502200212 l -10.330663225976268 1.2960336320089327" fill="#ff800b" stroke="none" /><path d="M 120.87857604477298 97.74499172005257 l 5.989938122365323 -0.6469483375370404 a27.02477392614921,27.02477392614921 0 0,0 0.04597155249666723,0.46292725992460226 l -6.000186800544219 0.5437455469080031" fill="#ff4406" stroke="none" /><path d="M 120.91429891909075 98.10471618934814 l 29.534026613513813 -2.676415916235147 a50.65504898266767,50.65504898266767 0 0,0 0.07121983182676384,0.8690623415054254 l -29.57572092916007 2.1676396575219528" fill="#92ff23" stroke="none" /><line stroke="#e1ed5e" stroke-width="0.3" x1="184.98032266829074" x2="189.97916517819016" y1="98.17113171792111" y2="98.06355123074" /><path d="M 185.9800911702706 98.14961562048488 a86.0,86.0 0 0,1 -9.607161424134198,41.387399972396054" fill="none" id="id52" stroke="none" /><text fill="#e1ed5e" style="font-size:6.75px; font-family:Arial;" text-anchor="middle"><textPath startOffset="21.466115282336823" xlink:href="#id52">April</textPath></text><path d="M 120.95626037817324 101.35467743843564 l 1.323913460213657 0.08558185776602956 a22.32667671439337,22.32667671439337 0 0,0 -0.028092744399193865,0.38330317753765886 l -1.3222441571501256 -0.10835817180045866" fill="#ff0000" stroke="none" /><path d="M 120.92983693683757 101.71520430193887 l 9.443662295351546 0.7739100043601349 a30.475320271288624,30.475320271288624 0 0,0 -0.04734617273505816,0.5224610708384253 l -9.428941526339411 -0.9363524637471308" fill="#ff730a" stroke="none" /><path d="M 120.89721153311464 102.0752229133903 l 10.385614925462782 1.0313560748914115 a31.43669932177845,31.43669932177845 0 0,0 -0.058109538860708694,0.5380221601928122 l -10.36632308510102 -1.209974556969015" fill="#ff800b" stroke="none" /><path d="M 120.81339534386255 102.79330883721812 l 9.313876782267654 1.2499899173029738 a30.397381311228333,30.397381311228333 0 0,0 -0.07406242197139165,0.5179924067695781 l -9.29098030927966 -1.4101277960529612" fill="#ff720a" stroke="none" /><path d="M 120.76222939487914 103.15116336523771 l 20.82989830379615 3.161433735663216 a42.06844385832706,42.06844385832706 0 0,0 -0.11482330470047322,0.7150048279772503 l -20.77239324473439 -3.519517793333671" fill="#f6ff19" stroke="none" /><path d="M 120.5718875245553 104.21870165774334 l 12.425425232348987 2.548096860986008 a33.68400527505652,33.68400527505652 0 0,0 -0.12136822089276579,0.5669919224497783 l -12.379722972731779 -2.7616026028519554" fill="#ff9e0e" stroke="none" /><path d="M 120.49622156327973 104.57218783832717 l 4.959689182980774 1.1063810221945543 a26.08159382064808,26.08159382064808 0 0,0 -0.10151879612042689,0.43734031669305623 l -4.939909820929794 -1.1915899962361753" fill="#ff3605" stroke="none" /><path d="M 120.41448212921028 104.9243191809786 l 21.513151507804434 5.189336861090299 a43.13018085908063,43.13018085908063 0 0,0 -0.18030199484928627,0.7202168432873753 l -21.420638198660086 -5.55888154377507" fill="#e9ff1a" stroke="none" /><path d="M 120.23288151984713 105.62410040840565 l 6.689658452775378 1.8595132284762492 a27.943293142426526,27.943293142426526 0 0,0 -0.13280697167925393,0.46231849105334166 l -6.656658844210025 -1.9743891950341728" fill="#ff5007" stroke="none" /><path d="M 119.67450827220406 107.3425965602758 l 12.424073903089827 4.636708630442433 a34.26109645817634,34.26109645817634 0 0,0 -0.2109597980686117,0.5507494637493703 l -12.34241982542771 -4.849881661024947" fill="#ffa60f" stroke="none" /><path d="M 119.54520255179757 107.68017299344265 l 23.153406014590797 9.097995434338364 a45.8767709118312,45.8767709118312 0 0,0 -0.29513484840480464,0.7325004899079727 l -22.9933685519286 -9.49519529208915" fill="#c8ff1d" stroke="none" /><path d="M 118.81262510543309 109.33194174019688 l 40.82212056600949 20.24968066382586 a66.56857573474002,66.56857573474002 0 0,0 -0.5180345331907004,1.0221312799341495 l -40.46750736303252 -20.9493661554627" fill="#37ff7a" stroke="none" /><line stroke="#e1ed5e" stroke-width="0.3" x1="174.80103733775053" x2="179.2010983576182" y1="140.37084112569926" y2="142.7455964860345" /><path d="M 175.68104954172406 140.8457921977663 a86.0,86.0 0 0,1 -30.038265399797805,32.042727171017184" fill="none" id="id53" stroke="none" /><text fill="#e1ed5e" style="font-size:6.75px; font-family:Arial;" text-anchor="middle"><textPath startOffset="22.206326154141568" xlink:href="#id53">May</textPath></text><path d="M 118.48025628344425 109.97397251340804 l 55.44076885033275 29.921917540224147 a84.0,84.0 0 0,0 -0.6976943621939617,1.2665179264087798 l -54.91749807868728 -30.871805985030733" fill="#4dd2ff" stroke="none" /><line stroke="#e1ed5e" stroke-width="0.3" x1="143.8653032363475" x2="146.44561519142675" y1="172.8068346515853" y2="177.08958963109032" /><path d="M 144.38136562736335 173.6633856474863 a86.0,86.0 0 0,1 -40.68145358897372,12.25698825130547" fill="none" id="id54" stroke="none" /><text fill="#e1ed5e" style="font-size:6.75px; font-family:Arial;" text-anchor="middle"><textPath startOffset="21.466115282336833" xlink:href="#id54">June</textPath></text><line stroke="#e1ed5e" stroke-width="0.3" x1="102.19456741930631" x2="102.32365962044197" y1="184.97166512339345" y2="189.96999836594603" /><path d="M 102.22038585953345 185.97133177190398 a86.0,86.0 0 0,1 -42.740103519485714,-10.115201625700543" fill="none" id="id55" stroke="none" /><text fill="#e1ed5e" style="font-size:6.75px; font-family:Arial;" text-anchor="middle"><textPath startOffset="22.20632615414155" xlink:href="#id55">July</textPath></text><line stroke="#e1ed5e" stroke-width="0.3" x1="58.666819895761336" x2="56.23545636021788" y1="174.27360380694188" y2="178.64263932499728" /><path d="M 58.180547188652646 175.14741091055294 a86.0,86.0 0 0,1 -31.652253787137756,-30.449443065178592" fill="none" id="id56" stroke="none" /><text fill="#e1ed5e" style="font-size:6.75px; font-family:Arial;" text-anchor="middle"><textPath startOffset="22.20632615414155" xlink:href="#id56">August</textPath></text><line stroke="#e1ed5e" stroke-width="0.3" x1="26.63291911575756" x2="22.317208475507996" y1="142.92168965132927" y2="145.44649492493687" /><path d="M 25.769776987707644 143.4266507060508 a86.0,86.0 0 0,1 -11.730757126820373,-40.83630448921669" fill="none" id="id57" stroke="none" /><text fill="#e1ed5e" style="font-size:6.75px; font-family:Arial;" text-anchor="middle"><textPath startOffset="21.46611528233685" xlink:href="#id57">September</textPath></text><line stroke="#e1ed5e" stroke-width="0.3" x1="15.007084014347285" x2="10.007500721073583" y1="101.09737516637583" y2="101.16192664675087" /><path d="M 14.007167355692545 101.11028546245083 a86.0,86.0 0 0,1 10.666146001902534,-42.60595125391555" fill="none" id="id58" stroke="none" /><text fill="#e1ed5e" style="font-size:6.75px; font-family:Arial;" text-anchor="middle"><textPath startOffset="22.20632615414155" xlink:href="#id58">October</textPath></text><line stroke="#e1ed5e" stroke-width="0.3" x1="26.266209847984243" x2="21.928928074336255" y1="57.711370442889674" y2="55.22380399835377" /><path d="M 25.398753493254645 57.213857153982495 a86.0,86.0 0 0,1 29.58750427330803,-30.492523968695096" fill="none" id="id59" stroke="none" /><text fill="#e1ed5e" style="font-size:6.75px; font-family:Arial;" text-anchor="middle"><textPath startOffset="21.46611528233685" xlink:href="#id59">November</textPath></text><line stroke="#e1ed5e" stroke-width="0.3" x1="56.762969772571076" x2="54.21961505331055" y1="26.818313649435495" y2="22.513508569990535" /><path d="M 56.25429882871897 25.957352633546506 a86.0,86.0 0 0,1 42.265352541879196,-11.944610805530505" fill="none" id="id60" stroke="none" /><text fill="#e1ed5e" style="font-size:6.75px; font-family:Arial;" text-anchor="middle"><textPath startOffset="22.20632615414155" xlink:href="#id60">December</textPath></text></svg>