<?xml version="1.0" encoding="utf-8" ?>
<svg baseProfile="full" height="200mm" version="1.1" viewBox="0,0,200,200" width="200mm" xmlns="http://www.w3.org/2000/svg" xmlns:ev="http://www.w3.org/2001/xml-events" xmlns:xlink="http://www.w3.org/1999/xlink"><defs /><rect fill="#1a1a1a" height="200" width="200" x="0" y="0" /><text alignment-baseline="middle" fill="#e1ed5e" style="dominant-baseline: central; font-size:9.0px; font-family:Arial;" text-anchor="middle" x="100.0" y="100.0">2024</text><line stroke="#e1ed5e" stroke-width="0.3" x1="100.0" x2="100.0" y1="15.0" y2="10.0" /><path d="M 100.0 14.0 a86.0,86.0 0 0,1 42.35913384403234,11.155469271406648" fill="none" id="id25" stroke="none" /><text fill="#e1ed5e" style="font-size:6.75px; font-family:Arial;" text-anchor="middle"><textPath startOffset="22.145653131862478" xlink:href="#id25">January</textPath></text><path d="M 100.72087961077811 79.0123766808444 l 0.5802789638657858 -16.894188893065554 a37.90415162113984,37.90415162113984 0 0,0 0.6500999514387914,0.027918089122710016 l -0.8702046759054135 16.881738235517012" fill="#ff7c0b" stroke="none" /><path d="M 101.08105385017728 79.02784411241856 l 0.8772955876421675 -17.019300028857742 a38.04189605121371,38.04189605121371 0 0,0 0.6518852928390015,0.03921580044321172 l -1.1693252326136314 17.00173225058984" fill="#ff7e0b" stroke="none" /><path d="M 101.80034050326958 79.07731436759882 l 1.4383344947279018 -16.71562707875393 a37.777395350729975,37.777395350729975 0 0,0 0.6456344612168557,0.061142254740854614 l -1.7250685193297703 16.68847306850789" fill="#ff7a0b" stroke="none" /><path d="M 102.15924093988457 79.11130261209362 l 2.546329666339578 -24.633429677773485 a45.76468559177549,45.76468559177549 0 0,0 0.7807544677171646,0.08748516660568645 l -2.968820035657539 24.586088750660828" fill="#fff016" stroke="none" /><path d="M 102.87502721639298 79.19773525538626 l 1.876140098165916 -13.574815152184062 a34.70385011899619,34.70385011899619 0 0,0 0.5894281941047523,0.08662564645877296 l -2.1088933978783504 13.540608432426406" fill="#ff4906" stroke="none" /><path d="M 103.23170211078529 79.25015418208739 l 2.3710942821303207 -15.224126199547175 a36.40766389283235,36.40766389283235 0 0,0 0.6167154813315663,0.10148029776534521 l -2.6320872665149575 15.181179903286163" fill="#ff6409" stroke="none" /><path d="M 103.94208987418118 79.37332000966035 l 2.83387797391974 -14.828047042396815 a36.096418232898834,36.096418232898834 0 0,0 0.6076290811940087,0.12154283388371659 l -3.088003540644706 14.77721481185024" fill="#ff5f08" stroke="none" /><path d="M 104.29559338865022 79.4440306129975 l 6.515871636100941 -31.180804550827435 a52.8543428062022,52.8543428062022 0 0,0 0.8865374276781198,0.19321670612060543 l -7.050171480398195 31.06435638657311" fill="#adff20" stroke="none" /><path d="M 105.3480935250658 79.69241777938227 l 3.908288434593862 -14.840407774362482 a36.34641395888103,36.34641395888103 0 0,0 0.6019980373440822,0.16407724204449425 l -4.162467872872637 14.771130038173846" fill="#ff6309" stroke="none" /><path d="M 105.69591212413111 79.78721728523813 l 4.550725462882645 -16.148919254931915 a37.777863253133255,37.777863253133255 0 0,0 0.6226871008899516,0.18125513993002113 l -4.827272576154201 16.06842042069938" fill="#ff7a0b" stroke="none" /><path d="M 107.74402155503746 80.48000691201159 l 5.619753699203754 -14.165450416818194 a36.23947561929376,36.23947561929376 0 0,0 0.5762862481838562,0.23437060018971848 l -5.8620944085780495 14.066892560049181" fill="#ff6109" stroke="none" /><path d="M 108.73861861582097 80.90454125486305 l 6.733866797622035 -14.714714222272855 a37.18232914914523,37.18232914914523 0 0,0 0.5781166719876398,0.27058779331224625 l -6.98547218348118 14.596950197390075" fill="#ff700a" stroke="none" /><path d="M 109.06512990194946 81.05736502329252 l 11.880391324096848 -24.825448577897703 a48.521747675384255,48.521747675384255 0 0,0 0.7482509844078721,0.3660070518088808 l -12.304802557766786 24.6178477759916" fill="#e7ff1a" stroke="none" /><path d="M 109.3889696526874 81.21577127319529 l 6.759225643670787 -13.52297911309728 a36.11813796058635,36.11813796058635 0 0,0 0.552216709597034,0.2819657866200809 l -6.990369574981399 13.404955374804366" fill="#ff6008" stroke="none" /><path d="M 110.34350942703115 81.72400993836675 l 8.71556979616666 -15.39957672005834 a38.69486140179728,38.69486140179728 0 0,0 0.5752774849875759,0.33213661081630785 l -8.978639749014635 15.24769321196586" fill="#ff880c" stroke="none" /><line stroke="#e1ed5e" stroke-width="0.3" x1="143.13028292997686" x2="145.6673583964461" y1="26.7553504044142" y2="22.446841604673864" /><path d="M 143.63769802327073 25.89364864446614 a86.0,86.0 0 0,1 29.32050498858742,28.57503671076993" fill="none" id="id26" stroke="none" /><text fill="#e1ed5e" style="font-size:6.75px; font-family:Arial;" text-anchor="middle"><textPath startOffset="20.669276256404974" xlink:href="#id26">February</textPath></text><path d="M 110.65571695917076 81.90426304109057 l 7.953411034339629 -13.506630718042086 a36.67436826269925,36.67436826269925 0 0,0 0.5397545668547608,0.3241071089879398 l -8.184098357751823 13.368109608518225" fill="#ff6809" stroke="none" /><path d="M 111.27062007382361 82.28071324371311 l 14.636637374035514 -23.011225032833124 a48.27173685577615,48.27173685577615 0 0,0 0.6953759026086304,0.450734258777603 l -15.029498908901152 22.756576932351624" fill="#ebff1a" stroke="none" /><path d="M 111.8722381534696 82.67804972795209 l 10.270960907286542 -14.985638915116557 a39.167608858990334,39.167608858990334 0 0,0 0.55133987836684,0.38487805431284294 l -10.52669587682714 14.807116044998587" fill="#ff8f0d" stroke="none" /><path d="M 112.16784306229584 82.88440491214696 l 9.739201449219282 -13.69940651193911 a37.808503313734825,37.808503313734825 0 0,0 0.5257524255690158,0.3806042112410519 l -9.972934885162266 13.530201529324982" fill="#ff7a0b" stroke="none" /><path d="M 112.7482090630111 83.31218511350987 l 7.35517411925822 -9.62815902637016 a33.116106328424124,33.116106328424124 0 0,0 0.4487864063558078,0.34897902404258724 l -7.519370470249254 9.500478950706782" fill="#ff2f04" stroke="none" /><path d="M 113.03279911837588 83.53348406188908 l 19.77710681215244 -24.987728390047746 a52.867232762731135,52.867232762731135 0 0,0 0.7067826129326643,0.5693340424625083 l -20.203140195440366 24.64454605379183" fill="#adff20" stroke="none" /><path d="M 113.86319453409587 84.22622945171908 l 11.690806020433396 -13.301991199592173 a38.70926072091744,38.70926072091744 0 0,0 0.49535867340584333,0.44295278029266133 l -11.917429720662614 13.099342889416125" fill="#ff880c" stroke="none" /><path d="M 114.13192950727249 84.46653392183569 l 9.597546387150143 -10.549384722141784 a35.26192184347037,35.26192184347037 0 0,0 0.44425022504933576,0.41119137603490785 l -9.777226383513442 10.383075599974502" fill="#ff5207" stroke="none" /><path d="M 114.39649973595853 84.71141617570332 l 7.246759582037096 -7.695807547425533 a31.570760533039156,31.570760533039156 0 0,0 0.3913684575670285,0.37492212923653817 l -7.3778005254694365 7.570273287883414" fill="#ff1602" stroke="none" /><path d="M 114.91283532996326 85.21462403516908 l 17.15264225926436 -17.006039360195587 a45.154057861875366,45.154057861875366 0 0,0 0.5410169971260855,0.5551311000474473 l -17.44204605754126 16.709085568080397" fill="#ffe815" stroke="none" /><path d="M 115.16444852881244 85.47280134310134 l 10.904883748547093 -10.446631952657981 a36.10127838044254,36.10127838044254 0 0,0 0.42486763554236445,0.4511947056127772 l -11.082607217825716 10.25789578710071" fill="#ff5f08" stroke="none" /><path d="M 115.8921839302757 86.27271002978787 l 8.919728273894105 -7.704648839230984 a32.78656719388513,32.78656719388513 0 0,0 0.3642516366796556,0.42908751211092444 l -9.050674474080873 7.550394544670508" fill="#ff2a04" stroke="none" /><path d="M 116.35404254752997 86.82634096563983 l 14.582461461362922 -11.746598714989103 a39.72513721293167,39.72513721293167 0 0,0 0.4232307972334772,0.5347382864451727 l -14.781958689237957 11.494540484629253" fill="#ff980e" stroke="none" /><path d="M 117.01052211995028 87.68569379921539 l 23.986324628902015 -17.36424925871611 a50.61183752356301,50.61183752356301 0 0,0 0.5034308902060524,0.7081385934524416 l -24.28087061763803 16.949933438554165" fill="#cbff1d" stroke="none" /><path d="M 117.42321728460499 88.27688183743584 l 13.908173033727735 -9.358039519133229 a37.76335827863172,37.76335827863172 0 0,0 0.35726935210689836,0.5409513348430337 l -14.066766824755357 9.117908305951136" fill="#ff790b" stroke="none" /><line stroke="#e1ed5e" stroke-width="0.3" x1="172.87174338648825" x2="177.1583165268699" y1="56.24261187166439" y2="53.66864786411523" /><path d="M 173.72905801456457 55.72781907015455 a86.0,86.0 0 0,1 12.242430191666344,42.057860355516425" fill="none" id="id27" stroke="none" /><text fill="#e1ed5e" style="font-size:6.75px; font-family:Arial;" text-anchor="middle"><textPath startOffset="22.145653131862474" xlink:href="#id27">March</textPath></text><path d="M 118.00360718960297 89.18935116829356 l 11.962758520904412 -7.183292773832928 a34.95375528322292,34.95375528322292 0 0,0 0.30447432242819045,0.5170639639279109 l -12.08430655346237 6.976877641611461" fill="#ff4d07" stroke="none" /><path d="M 118.18653347947321 89.5 l 13.453699210041016 -7.767496860513438 a36.53499372102687,36.53499372102687 0 0,0 0.30892361400037616,0.5458384254496863 l -13.585056189062767 7.535401664964634" fill="#ff6609" stroke="none" /><path d="M 118.36410011445183 89.81374322990088 l 21.249780048023958 -11.786894785383957 a45.29987738181221,45.29987738181221 0 0,0 0.37136116919684714,0.6832627240420076 l -21.448986566836147 11.420377227867347" fill="#ffea16" stroke="none" /><path d="M 118.70294669586156 90.45014215332178 l 14.583481751391279 -7.44642969368187 a37.37459175601363,37.37459175601363 0 0,0 0.2868590449004846,0.57391024905711 l -14.7091607095035 7.19498758846101" fill="#ff730a" stroke="none" /><path d="M 119.0197475246899 91.09779779509293 l 9.961542965926064 -4.662505095844558 a31.998695014899155,31.998695014899155 0 0,0 0.22858577888571882,0.4995011800302859 l -10.040113209666835 4.490814933599588" fill="#ff1d02" stroke="none" /><path d="M 119.4528033332814 92.08871423366111 l 29.785395192794752 -12.113460923669699 a53.15440408933485,53.15440408933485 0 0,0 0.3364960433820109,0.848189844807391 l -29.98894991114289 11.600370061648743" fill="#a9ff21" stroke="none" /><path d="M 119.83427380445688 93.10060997987247 l 14.822562141293714 -5.1560565472975375 a36.69373338474448,36.69373338474448 0 0,0 0.2018410068035617,0.5967070718181807 l -14.908888569669642 4.900847801005195" fill="#ff6909" stroke="none" /><path d="M 120.05942366710727 93.78553927170692 l 14.422609552750762 -4.468161306750015 a36.098878493922506,36.098878493922506 0 0,0 0.17830040576816938,0.5935040617380466 l -14.497186278522559 4.219919641421245" fill="#ff5f08" stroke="none" /><path d="M 120.26092885502905 94.47779374421319 l 30.72809573607125 -8.375079134638488 a52.848984569003406,52.848984569003406 0 0,0 0.23105203391538098,0.8773422068978913 l -30.86733725079136 7.846356423367799" fill="#adff20" stroke="none" /><path d="M 120.43855184770803 95.1765574152323 l 12.398478654724737 -2.9260072032079427 a33.739065550694434,33.739065550694434 0 0,0 0.12819099867330125,0.5648331929811782 l -12.446880514955705 2.7127396762877383" fill="#ff3905" stroke="none" /><path d="M 120.77682067341334 96.94652285012252 l 62.330462020240034 -9.160431449632455 a84.0,84.0 0 0,0 0.19742193377914985,1.4284467671996575 l -62.478528470574396 8.089096374232712" fill="#4dd2ff" stroke="none" /><path d="M 120.9064616781168 98.02013634271609 l 15.077154960963334 -1.4278222504621385 a36.144612180436184,36.144612180436184 0 0,0 0.05319519149963783,0.6182087593324742 l -15.099443775160713 1.1687924437540023" fill="#ff6008" stroke="none" /><path d="M 120.93736805541906 98.37931529534042 l 15.079007763361904 -1.167210567194403 a36.12411503644755,36.12411503644755 0 0,0 0.042550833924723176,0.6186797866411264 l -15.096822558451693 0.9081873563989424" fill="#ff6008" stroke="none" /><line stroke="#e1ed5e" stroke-width="0.3" x1="184.99686870605535" x2="189.99668451229388" y1="99.2704041080226" y2="99.22748670261217" /><path d="M 185.99683186730306 99.26182062694052 a86.0,86.0 0 0,1 -10.086455211305974,41.156179273409016" fill="none" id="id28" stroke="none" /><text fill="#e1ed5e" style="font-size:6.75px; font-family:Arial;" text-anchor="middle"><textPath startOffset="21.40746469413373" xlink:href="#id28">April</textPath></text><path d="M 120.99922638620191 99.81974689727618 l 18.664090215783126 -0.16020876717262914 a39.66477780290916,39.66477780290916 0 0,0 0.0,0.6809237397929098 l -18.664090215783126 -0.16020876717262686" fill="#ff970d" stroke="none" /><path d="M 120.99922638620191 100.18025310272382 l 15.395685932888224 0.13215344731880804 a36.3962531116428,36.3962531116428 0 0,0 -0.010725747711122904,0.6247210324410448 l -15.391148753578433 -0.396421395728924" fill="#ff6409" stroke="none" /><path d="M 120.96210409425399 101.26102812881392 l 18.272666580622936 1.099238246456361 a39.30570044246018,39.30570044246018 0 0,0 -0.04629844440852258,0.6731692205881111 l -18.25110417504935 -1.4127508911988158" fill="#ff910d" stroke="none" /><path d="M 120.93736805541906 101.62068470465957 l 24.16987280582306 1.8709010161296844 a45.24217444995024,45.24217444995024 0 0,0 -0.06658436731070444,0.773811277780044 l -24.134194815814617 -2.2855333412853858" fill="#ffe915" stroke="none" /><path d="M 120.82617615685814 102.69636545807757 l 15.316563432010431 1.983035784556498 a36.444401778302414,36.444401778302414 0 0,0 -0.08565386041067964,0.6197486655088288 l -15.280265055044541 -2.245672758265412" fill="#ff6509" stroke="none" /><path d="M 120.7213421655516 103.40968896794604 l 15.456906310537818 2.5434280513563103 a36.66476871661915,36.66476871661915 0 0,0 -0.10752411776276229,0.6201705378332568 l -15.410967375282821 -2.808391622110155" fill="#ff6809" stroke="none" /><path d="M 120.65975698304385 103.76489593502545 l 17.825724480972035 3.2484408065581953 a39.119294162445684,39.119294162445684 0 0,0 -0.12606417520369445,0.6596210343156785 l -17.76733401348618 -3.5539644059071884" fill="#ff8e0d" stroke="none" /><path d="M 120.51834098615036 104.47187691870673 l 22.122629256631857 4.821524080363732 a43.64194823074885,43.64194823074885 0 0,0 -0.1658168309179275,0.73061955228296 l -22.036601564156264 -5.200577966585708" fill="#ffd213" stroke="none" /><path d="M 120.35273937422433 105.17358676015961 l 14.89976818901212 3.787462808556612 a36.37361267277464,36.37361267277464 0 0,0 -0.15902286973786106,0.6038357382915099 l -14.83255583846953 -4.042679051220925" fill="#ff6409" stroke="none" /><path d="M 120.16314734710363 105.8691983318838 l 15.950197521267317 4.642870037771491 a37.61219561512199,37.61219561512199 0 0,0 -0.18577501628303794,0.6183846091567381 l -15.868146184980649 -4.915992250518952" fill="#ff770b" stroke="none" /><path d="M 119.83427380445688 106.89939002012753 l 30.316599424403194 10.545687004982781 a53.09840673720094,53.09840673720094 0 0,0 -0.30685779107448785,0.8583358551974996 l -30.13110146328476 -11.064557816561203" fill="#aaff21" stroke="none" /><path d="M 119.4528033332814 107.91128576633889 l 13.98368468832231 5.687042825669377 a36.09588995599191,36.09588995599191 0 0,0 -0.23836033596910153,0.5719780342923434 l -13.883998507816722 -5.926253369402998" fill="#ff5f08" stroke="none" /><line stroke="#e1ed5e" stroke-width="0.3" x1="174.33088141563837" x2="178.70328620479359" y1="141.23008692659167" y2="143.65538615756765" /><path d="M 175.20536237346943 141.71514677278685 a86.0,86.0 0 0,1 -30.301960400862466,31.631185727798858" fill="none" id="id29" stroke="none" /><text fill="#e1ed5e" style="font-size:6.75px; font-family:Arial;" text-anchor="middle"><textPath startOffset="22.145653131862474" xlink:href="#id29">May</textPath></text><path d="M 117.21940702142032 112.02048342749411 l 12.380307479131297 8.642416123566615 a36.09845587239697,36.09845587239697 0 0,0 -0.35906773324410496,0.5050737340920127 l -12.230124647357231 -8.853667084368132" fill="#ff5f08" stroke="none" /><path d="M 116.79662413953412 112.60449989151573 l 14.493246906568354 10.876002674345642 a39.120199780000405,39.120199780000405 0 0,0 -0.4076846841598888,0.5336723384194738 l -14.30441024505416 -11.123195926005993" fill="#ff8e0d" stroke="none" /><path d="M 116.35404254752997 113.17365903436017 l 11.75731003872183 9.470856710885506 a36.09739931858312,36.09739931858312 0 0,0 -0.39286549673693194,0.4792320269828263 l -11.59299772274627 -9.671291019566825" fill="#ff5f08" stroke="none" /><path d="M 116.1254893667686 113.45245675266167 l 17.389902237626323 14.507274939933277 a43.646627254781606,43.646627254781606 0 0,0 -0.48490454395805216,0.5712163335074525 l -17.13830313016116 -14.803658055890285" fill="#ffd213" stroke="none" /><path d="M 115.6541949942343 113.99807769240083 l 11.528593666443925 10.308939545370453 a36.465532854579365,36.465532854579365 0 0,0 -0.4212677195498534,0.4630470190277861 l -11.349928246052192 -10.50532413995591" fill="#ff6509" stroke="none" /><path d="M 115.16444852881244 114.52719865689866 l 11.058379404080524 10.593677318446804 a36.31384191416271,36.31384191416271 0 0,0 -0.4350972345964941,0.44644809267029967 l -10.874895368333222 -10.78194810318484" fill="#ff6309" stroke="none" /><path d="M 114.91283532996324 114.78537596483092 l 17.691118878898227 17.53991364321415 a45.9123314404477,45.9123314404477 0 0,0 -0.5597108483059838,0.5549270236472726 l -17.387416110462276 -17.841020677090082" fill="#fff316" stroke="none" /><path d="M 114.39649973595853 115.28858382429668 l 10.647577165446783 11.307357969312807 a36.531491999815266,36.531491999815266 0 0,0 -0.4602450091730048,0.42599590943150983 l -10.45190238495981 -11.488471624876697" fill="#ff6609" stroke="none" /><path d="M 113.59037401385872 116.0094264158162 l 9.766047417452555 11.504379301382171 a36.090607186922675,36.090607186922675 0 0,0 -0.47575268404863646,0.39688980976392785 l -9.567120399242024 -11.67033129505797" fill="#ff5f08" stroke="none" /><path d="M 113.31354834802062 116.24036423190432 l 13.396647888516537 16.34173215951306 a42.131076276947134,42.131076276947134 0 0,0 -0.563250819469381,0.4537149897310406 l -13.114146298691903 -16.569295443037504" fill="#ffbc11" stroke="none" /><path d="M 112.45986205192187 116.90419585922612 l 14.517594047667865 19.69590451032801 a45.468126029854446,45.468126029854446 0 0,0 -0.6322645820679612,0.45771079856299746 l -14.177348455225935 -19.942216080264085" fill="#ffec16" stroke="none" /><path d="M 111.8722381534696 117.32195027204791 l 8.620991960885656 12.578284912398306 a36.24909025899978,36.24909025899978 0 0,0 -0.5162970214082663,0.34738767760745426 l -8.403798651380386 -12.72442226406288" fill="#ff6209" stroke="none" /><path d="M 111.27062007382361 117.71928675628689 l 6.995433221308224 10.99798293447081 a34.034251592657476,34.034251592657476 0 0,0 -0.4956616660395444,0.30932953858699314 l -6.805607426478965 -11.116448269899351" fill="#ff3e05" stroke="none" /><line stroke="#e1ed5e" stroke-width="0.3" x1="143.1302829299769" x2="145.66735839644613" y1="173.24464959558577" y2="177.55315839532614" /><path d="M 143.63769802327073 174.10635135553383 a86.0,86.0 0 0,1 -40.68552437913181,11.842963189579606" fill="none" id="id30" stroke="none" /><text fill="#e1ed5e" style="font-size:6.75px; font-family:Arial;" text-anchor="middle"><textPath startOffset="21.407464694133747" xlink:href="#id30">June</textPath></text><path d="M 110.65571695917076 118.09573695890943 l 7.956811512058183 13.512405472623614 a36.68106983260422,36.68106983260422 0 0,0 -0.5453383946989404,0.31485126897887283 l -7.723680649498844 -13.647003638878658" fill="#ff6809" stroke="none" /><path d="M 110.34350942703117 118.27599006163325 l 11.89709400780282 21.02102515425743 a45.15417861088266,45.15417861088266 0 0,0 -0.6778627255294537,0.3759990271283882 l -11.534487094117273 -21.222157096818965" fill="#ffe815" stroke="none" /><path d="M 109.71004243097381 118.62028667847754 l 6.458190192727547 12.384431238850826 a34.967188610284694,34.967188610284694 0 0,0 -0.5346196379032994,0.2729805964291592 l -6.244643333110665 -12.493469786952822" fill="#ff4d07" stroke="none" /><path d="M 109.06512990194946 118.94263497670748 l 5.3641530354884415 11.209016749843093 a33.426431277177,33.426431277177 0 0,0 -0.5197193841427036,0.2432549139488939 l -5.170944937474232 -11.299447895362519" fill="#ff3405" stroke="none" /><path d="M 108.73861861582097 119.09545874513695 l 10.756864345692579 23.50568990026919 a46.85009841836679,46.85009841836679 0 0,0 -0.7341780697323477,0.3283885122232356 l -10.351772873104604 -23.686882163402277" fill="#feff18" stroke="none" /><path d="M 107.74402155503746 119.51999308798841 l 4.455113494222003 11.229796300973316 a33.08124005256716,33.08124005256716 0 0,0 -0.5296585950849092,0.2048833229413913 l -4.261682636643564 -11.304619512052748" fill="#ff2f04" stroke="none" /><path d="M 107.06938296918513 119.77432235084164 l 5.0837702074251965 14.220210063229699 a36.10162553383851,36.10162553383851 0 0,0 -0.5853521482887653,0.20361586262141096 l -4.83891228709141 -14.3053843584197" fill="#ff5f08" stroke="none" /><path d="M 106.72888874123015 119.89276391827305 l 4.520245250024601 13.363301886753405 a35.1071065224899,35.1071065224899 0 0,0 -0.572542177663415,0.18820598593062257 l -4.290180334713452 -13.438928794086047" fill="#ff4f07" stroke="none" /><path d="M 105.69591212413111 120.21278271476187 l 8.747893259129082 31.043187079660104 a53.25221078524528,53.25221078524528 0 0,0 -0.8820052072597302,0.24039444134158294 l -8.213706650934657 -31.18878201514583" fill="#a8ff21" stroke="none" /><path d="M 104.9986988182912 120.39639698878246 l 3.4936243660132145 14.255179615572073 a35.677041836931,35.677041836931 0 0,0 -0.5960917538217241,0.14067603082823094 l -3.248400458451611 -14.31305179004653" fill="#ff5808" stroke="none" /><path d="M 104.29559338865022 120.5559693870025 l 3.705536325261602 17.732332735626564 a39.11536981970853,39.11536981970853 0 0,0 -0.6584486048106304,0.13170816189080428 l -3.400591234920013 -17.79333029418023" fill="#ff8e0d" stroke="none" /><path d="M 103.58742460773223 120.69131181640829 l 5.597046010991992 32.28227403430456 a53.763884703665646,53.763884703665646 0 0,0 -0.9107153958264131,0.14985787181537868 l -5.042053112112506 -32.37359790461561" fill="#a2ff22" stroke="none" /><path d="M 103.2317021107853 120.74984581791261 l 2.3236262198838116 14.91934718863428 a36.09921055369257,36.09921055369257 0 0,0 -0.6131277196135344,0.09010866057058196 l -2.0671733946625914 -14.957036922503745" fill="#ff5f08" stroke="none" /><path d="M 102.51750503828377 120.84855314841334 l 1.8310285119762728 15.163542740800912 a36.273692869236505,36.273692869236505 0 0,0 -0.6188362795907872,0.06934189589710542 l -1.5704563307846864 -15.192740397204988" fill="#ff6209" stroke="none" /><path d="M 101.80034050326958 120.92268563240118 l 1.3114528839389215 15.241070432247714 a36.29738986191851,36.29738986191851 0 0,0 -0.6212574916716445,0.04808925896236544 l -1.049626397492041 -15.261337458205134" fill="#ff6209" stroke="none" /><path d="M 101.08105385017728 120.97215588758144 l 1.1653462001735286 22.607404958626304 a43.637420142975216,43.637420142975216 0 0,0 -0.748432124254197,0.03214089572070174 l -0.777088315318502 -22.624078422772836" fill="#ffd213" stroke="none" /><line stroke="#e1ed5e" stroke-width="0.3" x1="101.45913802915013" x2="101.54496967792366" y1="184.9874750549273" y2="189.98673829345242" /><path d="M 101.47630435890484 185.9873277026323 a86.0,86.0 0 0,1 -42.54439059252881,-10.42667462771756" fill="none" id="id31" stroke="none" /><text fill="#e1ed5e" style="font-size:6.75px; font-family:Arial;" text-anchor="middle"><textPath startOffset="22.145653131862474" xlink:href="#id31">July</textPath></text><path d="M 100.0 121.0 l 1.8789537455296653e-15 15.342821675913953 a36.34282167591395,36.34282167591395 0 0,0 -0.6238728611052612,-0.0053551981797437176 l 0.2633799362564071 -15.340560875928645" fill="#ff6309" stroke="none" /><path d="M 99.27912038922189 120.98762331915562 l -0.4198649928779463 12.223911154749953 a33.23111975787437,33.23111975787437 0 0,0 -0.5699520611035638,-0.024476193856572254 l 0.6296428145823488 -12.214902392467552" fill="#ff3104" stroke="none" /><path d="M 98.55909050195518 120.95050786540614 l -1.7608867993367272 25.602907600825876 a46.663390265834046,46.663390265834046 0 0,0 -0.7986794890687711,-0.06182284365603716 l 2.2001352831807344 -25.568906990174785" fill="#fffd17" stroke="none" /><path d="M 97.48249496171623 120.84855314841334 l -1.8700400787034295 15.486614476485858 a36.59911144390149,36.59911144390149 0 0,0 -0.6230949542992966,-0.0806721166296182 l 2.13561285489352 -15.452230763655843" fill="#ff6709" stroke="none" /><path d="M 97.12497278360702 120.80226474461374 l -1.2709654109191273 9.196072582699557 a30.28348555349936,30.28348555349936 0 0,0 -0.5143504291250278,-0.07559180045158267 l 1.42864094565184 -9.172899708949092" fill="#ff0000" stroke="none" /><path d="M 96.41257539226777 120.69131181640829 l -2.59687608661248 14.978091174615603 a36.20154533737664,36.20154533737664 0 0,0 -0.6114014629973414,-0.11141771341243319 l 2.8536122831608783 -14.931305287271805" fill="#ff6108" stroke="none" /><line stroke="#e1ed5e" stroke-width="0.3" x1="58.13341422392154" x2="55.67067388415222" y1="173.97424548756322" y2="178.32567169271397" /><path d="M 57.64086615596768 174.84453072859336 a86.0,86.0 0 0,1 -31.369924170532247,-30.572349798747897" fill="none" id="id32" stroke="none" /><text fill="#e1ed5e" style="font-size:6.75px; font-family:Arial;" text-anchor="middle"><textPath startOffset="22.145653131862474" xlink:href="#id32">August</textPath></text><line stroke="#e1ed5e" stroke-width="0.3" x1="26.387840678322732" x2="22.057713659400548" y1="142.50000000000003" y2="145.00000000000006" /><path d="M 25.521815274538298 143.00000000000003 a86.0,86.0 0 0,1 -11.493303480769221,-40.785679425670985" fill="none" id="id33" stroke="none" /><text fill="#e1ed5e" style="font-size:6.75px; font-family:Arial;" text-anchor="middle"><textPath startOffset="21.40746469413373" xlink:href="#id33">September</textPath></text><line stroke="#e1ed5e" stroke-width="0.3" x1="15.003131293944662" x2="10.003315487706104" y1="100.72959589197737" y2="100.7725132973878" /><path d="M 14.003168132696942 100.73817937305945 a86.0,86.0 0 0,1 10.791469493833604,-42.45332614584628" fill="none" id="id34" stroke="none" /><text fill="#e1ed5e" style="font-size:6.75px; font-family:Arial;" text-anchor="middle"><textPath startOffset="22.145653131862435" xlink:href="#id34">October</textPath></text><line stroke="#e1ed5e" stroke-width="0.3" x1="26.387840678322718" x2="22.05771365940052" y1="57.49999999999999" y2="54.99999999999999" /><path d="M 25.521815274538284 56.99999999999999 a86.0,86.0 0 0,1 29.574782752854787,-30.34633250058573" fill="none" id="id35" stroke="none" /><text fill="#e1ed5e" style="font-size:6.75px; font-family:Arial;" text-anchor="middle"><textPath startOffset="21.40746469413373" xlink:href="#id35">November</textPath></text><line stroke="#e1ed5e" stroke-width="0.3" x1="56.869717070023135" x2="54.33264160355391" y1="26.7553504044142" y2="22.446841604673864" /><path d="M 56.362301976729285 25.89364864446614 a86.0,86.0 0 0,1 42.16139366436587,-11.88097634709845" fill="none" id="id36" stroke="none" /><text fill="#e1ed5e" style="font-size:6.75px; font-family:Arial;" text-anchor="middle"><textPath startOffset="22.145653131862474" xlink:href="#id36">December</textPath></text></svg>