<?xml version="1.0" encoding="utf-8" ?>
<svg baseProfile="full" height="200mm" version="1.1" viewBox="0,0,200,200" width="200mm" xmlns="http://www.w3.org/2000/svg" xmlns:ev="http://www.w3.org/2001/xml-events" xmlns:xlink="http://www.w3.org/1999/xlink"><defs /><rect fill="#1a1a1a" height="200" width="200" x="0" y="0" /><text alignment-baseline="middle" fill="#e1ed5e" style="dominant-baseline: central; font-size:9.0px; font-family:Arial;" text-anchor="middle" x="100.0" y="100.0">2026</text><line stroke="#e1ed5e" stroke-width="0.3" x1="100.0" x2="100.0" y1="15.0" y2="10.0" /><path d="M 100.0 14.0 a86.0,86.0 0 0,1 42.46469731375804,11.215312516191453" fill="none" id="id49" stroke="none" /><text fill="#e1ed5e" style="font-size:6.75px; font-family:Arial;" text-anchor="middle"><textPath startOffset="22.20632615414155" xlink:href="#id49">January</textPath></text><path d="M 100.0 79.0 l 0.0 -19.69896700459448 a40.69896700459448,40.69896700459448 0 0,0 0.7005658142246491,0.0060299911395525945 l -0.33908533495212073 19.696048390063485" fill="#ffec16" stroke="none" /><path d="M 100.72285384407766 79.0124445844662 l 1.1162464677639037 -32.40943489687226 a53.42865209211442,53.42865209211442 0 0,0 0.918868929340383,0.03956842898953414 l -1.6739562294936183 32.385418741358535" fill="#7cff26" stroke="none" /><path d="M 101.08401301168833 79.027996857942 l 0.8717982329479281 -16.866361458289685 a37.88887743459141,37.88887743459141 0 0,0 0.6510354716792869,0.03927223755244888 l -1.161995753466827 16.84885595135693" fill="#ffc812" stroke="none" /><path d="M 101.80526077348638 79.07773832637324 l 1.698556685332637 -19.68560329895505 a40.758746722834374,40.758746722834374 0 0,0 0.6984785141352832,0.0663289512141252 l -2.0371603265581646 19.653448803225746" fill="#ffed16" stroke="none" /><path d="M 102.52436894288641 79.15227682838746 l 2.1962554519886472 -18.13796901844726 a39.27045314502469,39.27045314502469 0 0,0 0.6703751932054326,0.08703393997493575 l -2.508145373701926 18.09747675530819" fill="#ffda14" stroke="none" /><path d="M 103.2404852339499 79.25152402106235 l 1.9024413482890772 -12.18112590138218 a33.328791964706184,33.328791964706184 0 0,0 0.5660669851659064,0.09340590280146514 l -2.111837539593859 12.14657373564109" fill="#ff8b0c" stroke="none" /><path d="M 103.59715602781102 79.31037775812273 l 10.754478184234927 -61.85611336290355 a83.78405499312353,83.78405499312353 0 0,0 1.4187627966351233,0.2592698325814945 l -11.817636101972951 61.661828048971316" fill="#4dd4ff" stroke="none" /><path d="M 104.66035177308747 79.52364482259891 l 2.622915775564938 -11.524399366379766 a32.81911451512006,32.81911451512006 0 0,0 0.5497612905373173,0.13011073539527138 l -2.820900753064779 11.477542718843626" fill="#ff840c" stroke="none" /><path d="M 105.01212808612495 79.60689891045804 l 4.579784670218692 -18.634003390027498 a40.18855153379552,40.18855153379552 0 0,0 0.6703663037577321,0.17089129715623763 l -4.899859862661449 18.55240909670239" fill="#ffe515" stroke="none" /><path d="M 105.71112130821622 79.79150937346287 l 7.660733221450759 -27.10708583187885 a49.16879365161182,49.16879365161182 0 0,0 0.8124786847546456,0.23718480771236763 l -8.126202123928831 26.97120269524778" fill="#acff21" stroke="none" /><path d="M 106.0581310904928 79.89281104454417 l 4.322420758750868 -14.346294202444989 a35.983306663042946,35.983306663042946 0 0,0 0.5915220856342047,0.18378879138851834 l -4.568728217095791 14.26976527617395" fill="#ffae10" stroke="none" /><path d="M 106.74666289553966 80.11325718540242 l 7.159112903232214 -21.102497529759567 a43.283812500439296,43.283812500439296 0 0,0 0.7035021018643317,0.24543806971459298 l -7.521297009159819 20.97613860687277" fill="#f2ff19" stroke="none" /><path d="M 107.08798089147638 80.2323363322302 l 5.368084736947543 -14.971046796651923 a36.904357136665126,36.904357136665126 0 0,0 0.596124295083703,0.21955760877920383 l -5.624991357803823 14.876425920066394" fill="#ffbb11" stroke="none" /><path d="M 107.4271985657038 80.35727306442388 l 6.784653149193652 -17.94338578445948 a40.18323778106308,40.18323778106308 0 0,0 0.6448775055733181,0.2502024533892872 l -7.092513819766637 17.823940627179645" fill="#ffe515" stroke="none" /><path d="M 108.09893153111575 80.62456947434976 l 12.5288023177249 -29.97320547087548 a53.48636535095837,53.48636535095837 0 0,0 0.8463994258516558,0.3623840623661422 l -13.04288550136687 29.75310188054655" fill="#7bff26" stroke="none" /><path d="M 108.43124777332544 80.76684994638697 l 6.366444740638385 -14.522973383859929 a36.85712377904348,36.85712377904348 0 0,0 0.578863737343418,0.2597192854730548 l -6.615490596448583 14.411233767870343" fill="#ffba11" stroke="none" /><path d="M 109.08828744355905 81.06846463323043 l 9.77976188446028 -20.37192475964866 a43.59776672438071,43.59776672438071 0 0,0 0.6737489522018109,0.3306056847858551 l -10.128982103672522 20.200563914727972" fill="#eeff19" stroke="none" /><path d="M 109.41281617654863 81.2277094730956 l 6.866803742334408 -13.694693747817501 a36.319844336097205,36.319844336097205 0 0,0 0.5564537622642006,0.28503722981310764 l -7.101517992187365 13.574463992691893" fill="#ffb310" stroke="none" /><path d="M 109.73455568895987 81.39251694778311 l 10.05344776130712 -19.217041312633185 a42.68793417319367,42.68793417319367 0 0,0 0.6481552030760087,0.34622206244703024 l -10.38274801091144 19.041140523684398" fill="#f9ff18" stroke="none" /><path d="M 110.36928655335952 81.73862282372117 l 19.169054112646084 -33.758670421748164 a59.82139183771968,59.82139183771968 0 0,0 0.8910631826338407,0.5161613095302682 l -19.747314027745254 33.42370495482785" fill="#39ff2e" stroke="none" /><line stroke="#e1ed5e" stroke-width="0.3" x1="143.23703022742887" x2="145.7803849466894" y1="26.81831364943548" y2="22.513508569990506" /><path d="M 143.74570117128098 25.957352633546492 a86.0,86.0 0 0,1 28.547481713284135,27.462654790039103" fill="none" id="id50" stroke="none" /><text fill="#e1ed5e" style="font-size:6.75px; font-family:Arial;" text-anchor="middle"><textPath startOffset="19.985693538727396" xlink:href="#id50">February</textPath></text><path d="M 110.68208982089419 81.91981866633111 l 8.882799999979033 -15.03475793998621 a38.46276272969446,38.46276272969446 0 0,0 0.5671204942468502,0.3416837522292064 l -9.14028256044352 14.87962757829839" fill="#ffcf13" stroke="none" /><path d="M 111.2981086023043 82.29822771554956 l 12.38816853956755 -19.409668133663732 a44.026114236312054,44.026114236312054 0 0,0 0.6353030638186041,0.4132187848120298 l -12.720438629170435 19.193550424692177" fill="#e9ff1a" stroke="none" /><path d="M 111.60114157652 82.49532879139004 l 9.030916987018403 -13.626523866406245 a37.34746507285324,37.34746507285324 0 0,0 0.5328154862686891,0.35975939476569957 l -9.264137167693635 13.469052559341876" fill="#ffc111" stroke="none" /><path d="M 111.90073688211348 82.69761687909136 l 11.714258535966117 -17.031263792689195 a41.6709409419025,41.6709409419025 0 0,0 0.5874984760545742,0.41158022703045055 l -12.00568815160434 16.82709872289481" fill="#fff817" stroke="none" /><path d="M 112.48926042617603 83.11751280151076 l 24.58834942402884 -33.23755612567099 a62.34394834320095,62.34394834320095 0 0,0 0.8572407082851411,0.6456559290166962 l -25.156836286072366 32.80938360714845" fill="#31ff43" stroke="none" /><path d="M 112.77801427241765 83.33499621200491 l 8.984969304029562 -11.71813900770843 a35.76632842646849,35.76632842646849 0 0,0 0.48534472490568376,0.37881925619934814 l -9.185346584094676 11.56174136228586" fill="#ffac0f" stroke="none" /><path d="M 113.06298171725822 83.55741782278167 l 1.6689528674439107 -2.1007374324497197 a23.683002317152315,23.683002317152315 0 0,0 0.3170100696733713,0.2563334297699148 l -1.7048663356817733 2.0716979054156752" fill="#ff0000" stroke="none" /><path d="M 113.34407831869373 83.78471172551755 l 15.17300087230632 -18.437735245359782 a44.878233528655144,44.878233528655144 0 0,0 0.5922697227169242,0.49600886001003563 l -15.48812813198236 18.173825227955927" fill="#deff1b" stroke="none" /><path d="M 113.6212207817346 84.01681056812373 l 10.892393847981312 -12.78117409801786 a37.79293467692243,37.79293467692243 0 0,0 0.4914992775050126,0.42622333013804087 l -11.110786924133087 12.59178577446015" fill="#ffc612" stroke="none" /><path d="M 113.89432698308785 84.25364557470407 l 14.894138294801243 -16.879434371652607 a43.51112303399349,43.51112303399349 0 0,0 0.5573340006430133,0.5003799686795468 l -15.182483283040245 16.620555394203766" fill="#efff19" stroke="none" /><path d="M 114.42810811169701 84.74124197986012 l 33.472012806519295 -35.39905162255043 a69.71825630188114,69.71825630188114 0 0,0 0.864893999655436,0.8320273424139116 l -34.07639004978715 34.817641193374214" fill="#3bff99" stroke="none" /><path d="M 114.68862486808459 84.99185889309783 l 10.33152866836999 -10.556266600681562 a35.770756553745514,35.770756553745514 0 0,0 0.4363422490476058,0.4344684567610853 l -10.511706717584918 10.376862293270358" fill="#ffac0f" stroke="none" /><path d="M 114.94478906791727 85.2469230424477 l 17.850048191458033 -17.621067347810857 a46.08238893952209,46.08238893952209 0 0,0 0.5524087671433475,0.5693057926427346 l -18.15072122230449 17.311197359618006" fill="#d0ff1d" stroke="none" /><path d="M 115.68641384162765 86.03803664274999 l 12.685863523172657 -11.29127176254792 a37.983048941349566,37.983048941349566 0 0,0 0.43048927115057123,0.4921236545201576 l -12.878344657901076 11.071232551824815" fill="#ffc912" stroke="none" /><path d="M 115.9244219780498 86.31012108654704 l 18.176175398464743 -15.62566231023338 a44.96945295056195,44.96945295056195 0 0,0 0.4995664805074545,0.5913291415415548 l -18.442452492459317 15.31047421906272" fill="#ddff1b" stroke="none" /><path d="M 116.15771136456269 86.58626213691792 l 12.49598526846049 -10.37386217330791 a37.24089480971939,37.24089480971939 0 0,0 0.40521907716403427,0.4967506749600912 l -12.672702837700934 10.157227328739717" fill="#ffbf11" stroke="none" /><path d="M 116.38621287248628 86.86637796730983 l 24.781624157719907 -19.8625812795445 a52.7592668520701,52.7592668520701 0 0,0 0.5618759401104578,0.7135253845452022 l -25.119854178424326 19.43306350104626" fill="#83ff25" stroke="none" /><path d="M 116.82858285166822 87.43820079747576 l 11.870065716669735 -8.860483581289266 a35.8123809501496,35.8123809501496 0 0,0 0.36449736875960714,0.4971740013577222 l -12.020825697942968 8.65484713626005" fill="#ffac0f" stroke="none" /><path d="M 117.04232023915458 87.72973835380427 l 20.773393579971188 -14.95658871143791 a46.597527746083216,46.597527746083216 0 0,0 0.46306266614028496,0.6549693019379882 l -21.027768865915355 14.596792909168128" fill="#caff1d" stroke="none" /><path d="M 117.2510076193507 88.02491185347247 l 11.433349150465668 -7.936658942360686 a34.918046844432155,34.918046844432155 0 0,0 0.33849809734092734,0.4967041893764438 l -11.56827171347533 7.738676729713835" fill="#ffa00e" stroke="none" /><path d="M 117.65298651832404 88.62581576622439 l 8.507714031553975 -5.481696068975409 a31.120780100136592,31.120780100136592 0 0,0 0.28627028088782924,0.45281083640788844 l -8.60081190868776 5.334437584853314" fill="#ff6c09" stroke="none" /><line stroke="#e1ed5e" stroke-width="0.3" x1="172.23445277983987" x2="176.4835382374775" y1="55.19839476539836" y2="52.563006222186495" /><path d="M 173.08426987136738 54.67131705675599 a86.0,86.0 0 0,1 12.851231095245387,41.99856678651699" fill="none" id="id51" stroke="none" /><text fill="#e1ed5e" style="font-size:6.75px; font-family:Arial;" text-anchor="middle"><textPath startOffset="22.20632615414155" xlink:href="#id51">March</textPath></text><path d="M 117.84615892207809 88.93136811851018 l 53.538476766234254 -33.20589564446945 a84.0,84.0 0 0,0 0.7515368068551043,1.2353289071716742 l -54.10212937137558 32.279398964090696" fill="#4dd2ff" stroke="none" /><line stroke="#e1ed5e" stroke-width="0.3" x1="184.98032266829074" x2="189.97916517819016" y1="98.17113171792111" y2="98.06355123074" /><path d="M 185.9800911702706 98.14961562048488 a86.0,86.0 0 0,1 -9.607161424134198,41.387399972396054" fill="none" id="id52" stroke="none" /><text fill="#e1ed5e" style="font-size:6.75px; font-family:Arial;" text-anchor="middle"><textPath startOffset="21.466115282336823" xlink:href="#id52">April</textPath></text><line stroke="#e1ed5e" stroke-width="0.3" x1="174.80103733775053" x2="179.2010983576182" y1="140.37084112569926" y2="142.7455964860345" /><path d="M 175.68104954172406 140.8457921977663 a86.0,86.0 0 0,1 -30.038265399797805,32.042727171017184" fill="none" id="id53" stroke="none" /><text fill="#e1ed5e" style="font-size:6.75px; font-family:Arial;" text-anchor="middle"><textPath startOffset="22.206326154141568" xlink:href="#id53">May</textPath></text><line stroke="#e1ed5e" stroke-width="0.3" x1="143.8653032363475" x2="146.44561519142675" y1="172.8068346515853" y2="177.08958963109032" /><path d="M 144.38136562736335 173.6633856474863 a86.0,86.0 0 0,1 -40.68145358897372,12.25698825130547" fill="none" id="id54" stroke="none" /><text fill="#e1ed5e" style="font-size:6.75px; font-family:Arial;" text-anchor="middle"><textPath startOffset="21.466115282336833" xlink:href="#id54">June</textPath></text><line stroke="#e1ed5e" stroke-width="0.3" x1="102.19456741930631" x2="102.32365962044197" y1="184.97166512339345" y2="189.96999836594603" /><path d="M 102.22038585953345 185.97133177190398 a86.0,86.0 0 0,1 -42.740103519485714,-10.115201625700543" fill="none" id="id55" stroke="none" /><text fill="#e1ed5e" style="font-size:6.75px; font-family:Arial;" text-anchor="middle"><textPath startOffset="22.20632615414155" xlink:href="#id55">July</textPath></text><line stroke="#e1ed5e" stroke-width="0.3" x1="58.666819895761336" x2="56.23545636021788" y1="174.27360380694188" y2="178.64263932499728" /><path d="M 58.180547188652646 175.14741091055294 a86.0,86.0 0 0,1 -31.652253787137756,-30.449443065178592" fill="none" id="id56" stroke="none" /><text fill="#e1ed5e" style="font-size:6.75px; font-family:Arial;" text-anchor="middle"><textPath startOffset="22.20632615414155" xlink:href="#id56">August</textPath></text><line stroke="#e1ed5e" stroke-width="0.3" x1="26.63291911575756" x2="22.317208475507996" y1="142.92168965132927" y2="145.44649492493687" /><path d="M 25.769776987707644 143.4266507060508 a86.0,86.0 0 0,1 -11.730757126820373,-40.83630448921669" fill="none" id="id57" stroke="none" /><text fill="#e1ed5e" style="font-size:6.75px; font-family:Arial;" text-anchor="middle"><textPath startOffset="21.46611528233685" xlink:href="#id57">September</textPath></text><line stroke="#e1ed5e" stroke-width="0.3" x1="15.007084014347285" x2="10.007500721073583" y1="101.09737516637583" y2="101.16192664675087" /><path d="M 14.007167355692545 101.11028546245083 a86.0,86.0 0 0,1 10.666146001902534,-42.60595125391555" fill="none" id="id58" stroke="none" /><text fill="#e1ed5e" style="font-size:6.75px; font-family:Arial;" text-anchor="middle"><textPath startOffset="22.20632615414155" xlink:href="#id58">October</textPath></text><line stroke="#e1ed5e" stroke-width="0.3" x1="26.266209847984243" x2="21.928928074336255" y1="57.711370442889674" y2="55.22380399835377" /><path d="M 25.398753493254645 57.213857153982495 a86.0,86.0 0 0,1 29.58750427330803,-30.492523968695096" fill="none" id="id59" stroke="none" /><text fill="#e1ed5e" style="font-size:6.75px; font-family:Arial;" text-anchor="middle"><textPath startOffset="21.46611528233685" xlink:href="#id59">November</textPath></text><line stroke="#e1ed5e" stroke-width="0.3" x1="56.762969772571076" x2="54.21961505331055" y1="26.818313649435495" y2="22.513508569990535" /><path d="M 56.25429882871897 25.957352633546506 a86.0,86.0 0 0,1 42.265352541879196,-11.944610805530505" fill="none" id="id60" stroke="none" /><text fill="#e1ed5e" style="font-size:6.75px; font-family:Arial;" text-anchor="middle"><textPath startOffset="22.20632615414155" xlink:href="#id60">December</textPath></text></svg>